{"glyphs":{"0":{"ha":707,"x_min":47,"x_max":690,"o":"m 317 -11 q 313 -8 314 -11 q 313 -8 313 -8 q 303 -7 308 -7 q 292 -7 297 -7 q 265 -6 279 -7 q 239 -3 250 -6 q 224 2 232 0 q 208 6 215 4 q 190 13 199 8 q 175 21 182 17 q 157 39 161 31 q 150 47 154 43 q 142 54 146 50 q 138 60 140 57 q 133 65 135 63 q 128 72 131 68 q 122 79 125 75 q 76 153 92 110 q 65 192 69 175 q 56 218 60 208 q 51 264 51 246 q 47 311 51 282 q 51 318 51 314 l 51 328 q 56 353 53 342 q 61 376 58 365 q 69 401 65 389 q 75 424 72 413 q 93 460 79 446 q 107 476 100 467 q 118 496 114 486 q 128 517 125 507 q 153 535 135 524 q 174 543 160 542 q 196 556 188 547 q 208 574 204 558 q 221 594 208 588 q 228 600 225 597 q 232 604 231 603 l 244 613 q 252 615 249 614 q 257 618 256 617 q 264 621 260 619 q 272 624 268 622 q 281 628 276 625 q 290 632 285 631 q 314 635 301 635 q 321 633 315 636 q 322 629 322 632 q 317 618 322 624 q 303 611 313 615 q 283 601 294 607 q 251 586 263 589 q 240 576 247 583 q 225 557 233 568 q 208 538 215 546 q 196 522 201 529 q 189 513 192 517 q 183 507 186 510 q 172 492 175 503 q 166 480 171 488 q 154 461 161 472 q 142 443 147 450 q 135 433 138 436 q 133 418 133 425 q 129 407 132 411 q 124 383 126 393 q 124 361 121 372 q 123 348 124 354 q 121 336 122 342 q 118 322 124 328 q 117 311 113 317 q 119 308 118 310 q 121 301 119 306 q 122 286 121 292 q 122 278 122 282 q 124 269 122 274 q 126 258 124 260 q 129 248 128 253 q 132 239 131 243 q 135 218 135 228 l 135 193 q 140 185 138 189 q 143 178 142 181 q 147 169 144 174 q 150 161 149 165 q 153 153 153 158 q 153 151 153 153 q 154 147 153 149 q 158 144 157 146 q 160 140 158 142 q 165 131 160 133 q 168 127 168 129 q 169 122 168 125 l 175 113 q 181 101 175 113 q 190 94 186 97 q 199 86 194 90 l 215 71 q 224 65 219 67 q 229 61 228 64 q 232 60 231 60 q 239 58 235 58 l 240 56 q 244 49 244 51 q 261 39 251 49 q 281 31 272 28 l 282 33 l 286 33 q 317 29 301 26 q 328 22 321 24 q 342 19 335 19 q 358 23 350 22 q 374 25 367 24 q 399 29 382 29 q 414 33 407 32 q 425 33 421 33 q 429 37 426 35 q 433 40 432 39 q 442 40 439 46 q 454 46 446 43 q 459 49 457 49 q 463 51 461 50 q 472 51 468 56 q 482 54 472 50 q 493 65 486 60 q 501 72 499 69 q 506 76 504 75 q 517 81 514 81 q 528 85 522 81 q 534 97 529 92 q 544 106 539 101 q 557 121 551 117 q 563 129 560 124 q 568 142 565 135 q 575 153 571 144 q 578 161 575 157 q 582 168 581 165 q 587 181 585 175 q 590 192 589 186 q 595 201 593 196 q 599 214 597 207 l 604 233 q 607 243 606 239 q 610 251 608 247 q 614 267 611 258 q 618 282 617 276 q 620 300 619 292 q 621 315 621 308 q 622 342 621 331 q 624 363 622 354 q 622 385 624 374 q 619 413 621 397 l 618 414 q 615 415 615 414 q 610 439 613 429 q 604 458 607 449 q 593 492 594 476 q 590 497 596 492 q 585 506 589 503 q 579 513 582 508 q 568 526 575 519 q 560 535 563 535 l 542 551 q 517 574 533 561 q 506 583 511 578 q 493 592 500 588 q 450 607 479 600 q 442 609 446 608 q 436 610 439 610 q 281 522 331 614 q 272 510 276 518 q 263 507 268 501 q 250 515 246 507 q 250 531 251 524 q 268 556 257 543 q 293 582 279 568 q 368 622 326 608 q 403 633 386 626 q 454 639 414 639 l 454 638 l 458 638 q 471 635 463 638 q 485 632 482 629 l 485 633 q 517 629 503 633 q 532 623 524 626 q 547 617 540 619 q 556 613 551 614 q 563 608 560 611 q 569 606 565 608 q 578 603 574 604 q 581 599 579 601 q 585 594 583 597 q 593 589 588 594 q 611 578 610 579 q 626 564 622 575 q 635 553 632 558 q 639 543 638 549 q 651 525 640 536 q 667 506 665 511 q 672 494 669 500 q 675 485 674 489 q 677 474 676 481 q 679 458 678 467 q 682 450 679 456 q 686 440 686 449 q 689 426 689 435 q 689 411 689 418 q 689 395 689 403 q 686 379 689 388 q 689 373 688 378 q 688 358 690 368 q 686 344 686 350 q 686 336 686 339 q 682 304 686 317 q 678 290 681 297 q 672 271 675 282 q 667 258 671 267 q 663 249 665 253 q 661 243 661 246 q 653 219 657 229 q 646 203 650 210 q 636 184 642 194 q 624 161 631 174 q 615 149 619 158 q 604 138 614 142 q 600 128 603 133 q 594 115 597 122 q 578 92 585 99 q 572 88 575 92 q 568 82 571 86 q 558 76 563 78 q 549 71 553 74 q 538 58 540 68 q 517 49 528 51 q 504 42 510 46 q 493 36 499 39 q 482 29 488 32 q 472 21 476 26 q 442 10 464 14 q 426 8 440 8 q 415 8 421 8 q 406 6 410 8 q 394 3 403 6 q 383 -3 389 -1 q 374 -5 378 -4 q 365 -6 369 -6 q 351 -3 360 -6 q 338 -4 346 -3 q 324 -7 331 -6 q 321 -8 324 -8 q 317 -11 318 -8 z "},"1":{"ha":318,"x_min":78,"x_max":353,"o":"m 126 -14 q 125 -12 126 -12 l 125 -11 q 125 4 122 -4 q 129 18 125 14 q 130 19 129 19 q 131 19 131 19 q 135 22 132 19 q 132 32 132 25 q 133 43 132 40 q 136 51 135 47 q 139 60 138 56 q 142 68 140 64 q 144 75 143 72 q 146 81 146 76 q 145 86 146 83 q 146 90 144 89 q 150 97 147 92 q 156 104 151 100 q 163 110 158 107 q 171 117 167 114 q 183 133 179 124 q 185 146 186 142 q 188 160 185 151 q 192 173 190 167 q 194 186 193 179 q 197 200 196 193 q 200 214 199 207 l 200 229 l 213 296 l 213 308 q 215 319 214 314 q 219 331 217 325 l 219 364 q 222 374 221 369 q 221 383 222 378 l 221 389 q 222 404 221 399 q 224 410 224 407 q 225 414 224 413 l 225 426 q 224 439 225 436 q 224 451 222 446 l 222 451 q 215 447 221 450 l 207 443 q 199 437 203 440 q 189 431 194 433 q 178 424 183 428 q 169 417 174 419 l 153 400 q 133 383 142 393 q 124 374 128 378 q 114 365 119 369 q 100 353 110 363 q 94 346 96 349 q 88 338 93 340 q 79 340 82 336 q 79 353 78 347 l 86 363 q 114 389 100 379 q 140 417 131 403 q 154 435 147 426 q 168 451 161 443 q 183 468 175 460 q 199 486 192 476 l 219 507 l 224 519 q 226 533 224 525 q 231 548 229 540 q 233 561 232 556 q 246 586 238 576 q 275 611 257 601 q 293 623 285 618 q 308 631 301 628 q 315 633 311 632 q 325 636 319 635 q 343 643 336 639 q 349 639 347 640 q 353 635 349 639 q 346 619 353 624 q 333 604 336 613 q 328 579 328 594 q 322 553 328 563 q 310 538 319 544 q 294 522 300 532 q 292 511 292 517 q 289 503 290 507 q 286 494 288 499 q 283 485 285 489 q 281 475 282 481 q 275 455 276 463 q 269 435 274 447 q 260 400 264 421 q 251 367 256 379 l 243 328 q 241 319 240 318 q 239 310 242 319 l 239 289 q 238 275 236 281 q 236 260 238 264 l 233 238 q 231 224 232 231 q 228 210 231 217 q 226 195 228 203 q 224 181 225 188 q 222 170 222 175 q 222 160 221 165 q 222 149 222 154 q 219 138 222 143 q 219 135 219 136 q 218 131 218 133 q 221 119 218 128 q 224 106 225 108 q 223 104 224 104 q 222 103 222 104 q 219 100 219 101 q 218 93 218 99 q 217 86 218 88 l 217 47 q 216 36 217 42 q 214 25 215 31 q 202 13 211 17 q 179 1 193 8 q 126 -14 149 -14 z "},"2":{"ha":565,"x_min":56,"x_max":522,"o":"m 128 -3 q 109 -1 121 -3 q 93 4 97 0 q 78 6 79 7 q 66 -1 72 0 q 57 4 60 -1 l 57 3 q 56 14 56 8 q 57 25 56 19 q 68 57 57 38 q 78 73 72 65 q 89 88 83 81 q 117 115 104 108 l 118 115 l 126 121 l 140 135 l 157 147 l 165 153 q 169 155 168 154 q 183 169 169 156 q 188 172 183 168 l 199 182 l 199 181 q 210 190 204 183 q 222 203 217 197 q 235 213 228 208 q 253 224 243 218 l 264 236 q 275 245 269 240 q 285 256 281 250 l 283 256 l 313 286 q 321 292 314 288 q 331 296 328 297 q 338 301 333 296 q 346 310 342 306 l 361 321 l 378 339 l 388 351 l 388 350 q 403 357 393 354 q 410 374 410 361 l 408 372 l 415 382 l 419 389 l 422 394 l 421 394 l 425 401 q 434 416 431 408 q 439 433 438 424 l 451 468 q 452 470 451 469 q 453 472 453 471 l 456 478 l 456 482 q 453 499 456 493 q 451 509 453 503 q 447 519 450 515 q 447 526 444 524 q 443 538 447 532 l 444 538 q 442 544 443 540 q 439 549 442 547 q 435 553 438 551 q 432 557 433 556 l 433 557 q 419 587 426 576 q 404 601 411 597 q 376 611 390 610 l 356 614 q 347 614 351 614 q 336 615 342 614 q 316 615 326 615 q 294 614 306 615 l 265 601 l 238 583 l 224 572 l 207 556 l 207 557 q 199 551 201 554 l 200 551 q 199 550 200 551 q 190 546 197 549 q 186 538 188 540 q 185 536 185 536 l 168 519 l 168 521 q 153 500 160 517 q 146 483 153 488 q 136 481 143 481 q 131 486 131 481 q 131 493 131 489 q 132 500 131 497 q 133 502 132 501 q 133 504 133 503 q 138 515 136 510 q 143 524 140 521 l 157 543 q 211 597 183 582 q 244 615 226 607 q 279 629 261 622 q 293 635 285 632 q 308 640 301 639 q 321 644 315 643 q 331 646 326 646 l 363 646 q 376 646 369 646 q 390 643 383 646 q 406 643 397 643 q 421 642 414 643 l 419 642 q 448 633 435 638 q 472 622 461 628 q 504 589 494 610 l 508 581 l 508 582 l 511 576 q 512 573 511 575 q 513 568 513 571 q 514 563 513 564 q 517 554 513 561 l 521 543 q 522 529 521 528 q 517 524 518 525 q 517 522 517 522 l 517 499 q 516 497 517 497 q 515 494 515 496 l 515 496 q 513 488 514 492 q 513 482 513 485 q 508 465 513 469 q 506 460 508 463 q 501 446 501 451 q 494 435 499 442 q 483 421 489 428 l 476 411 q 467 397 469 404 q 443 371 450 385 q 418 339 433 354 q 397 317 408 325 q 376 304 386 308 q 350 282 358 294 l 322 254 l 313 247 q 304 240 311 244 q 290 231 297 235 l 292 231 l 286 228 l 272 218 l 261 210 q 249 200 258 210 l 238 189 l 238 190 l 207 164 q 192 147 203 157 q 181 135 183 140 q 176 126 178 131 q 165 107 169 119 q 157 79 160 94 l 157 81 q 155 72 156 76 q 154 64 154 68 q 168 33 154 47 q 175 31 171 32 q 186 29 179 29 l 196 28 q 206 27 201 28 q 217 25 211 26 q 228 26 219 25 q 244 28 236 26 q 278 28 264 31 l 285 28 q 296 29 288 29 q 299 28 297 29 q 301 28 300 28 q 318 28 311 25 q 331 26 322 26 q 351 29 343 26 q 367 38 357 33 q 385 47 376 43 q 410 63 396 51 q 438 88 425 75 q 458 120 449 103 q 472 154 468 138 q 475 161 475 157 q 476 163 475 163 q 476 164 476 164 l 479 174 q 481 175 479 175 l 481 197 q 482 199 482 200 q 483 196 482 199 q 488 192 485 194 q 490 186 490 189 l 492 182 q 493 164 493 178 q 493 151 493 158 q 492 136 493 143 q 490 127 490 132 q 490 119 490 122 q 490 116 490 118 q 489 111 489 114 q 487 99 488 106 q 486 89 486 92 q 475 43 485 72 q 467 24 471 33 q 458 10 463 14 q 444 5 453 7 q 426 6 435 3 q 402 10 417 10 q 372 10 388 11 q 361 8 367 8 q 349 7 356 7 q 306 4 319 7 q 301 4 304 4 q 294 6 297 4 l 282 6 q 261 4 272 4 q 239 4 250 4 q 220 3 229 4 q 204 1 211 3 q 198 1 201 1 q 192 0 194 0 q 178 1 186 1 q 163 1 171 1 q 156 1 160 1 q 150 0 153 0 q 128 -3 139 0 z "},"3":{"ha":549,"x_min":18,"x_max":522,"o":"m 182 -6 l 111 1 q 46 39 71 6 q 18 107 18 78 q 22 121 18 119 q 33 132 28 125 q 44 146 39 139 q 57 163 51 154 q 67 178 63 171 q 89 204 82 204 q 96 192 96 204 q 94 186 94 190 q 93 178 93 185 q 88 163 92 171 q 85 146 85 154 q 92 90 83 115 q 126 50 100 64 q 143 44 133 50 q 153 40 149 43 q 160 36 157 38 l 190 36 l 226 33 l 272 39 q 286 40 279 39 q 299 43 293 42 q 318 52 303 46 q 349 65 333 58 q 367 75 364 72 q 406 108 390 93 q 432 147 422 122 q 454 256 454 200 q 452 286 454 272 q 443 310 450 300 q 414 343 433 333 q 369 358 392 357 q 342 363 356 361 q 317 364 329 364 q 282 363 296 364 q 263 360 268 363 q 250 356 256 360 q 238 349 244 353 q 226 342 229 340 q 219 338 226 342 l 219 342 q 213 338 215 338 q 207 340 208 338 q 204 349 204 340 l 204 357 l 208 357 q 224 369 215 364 q 242 379 232 375 q 272 388 253 383 q 317 397 290 393 l 324 397 q 328 399 326 397 q 332 401 331 400 l 343 406 q 384 424 365 413 q 418 450 403 436 q 451 525 451 482 q 449 543 451 538 q 443 563 449 556 l 440 574 q 432 576 438 574 q 429 585 429 582 q 414 601 424 594 q 389 610 404 608 q 366 617 375 615 q 350 618 357 618 q 300 604 318 618 q 263 571 278 592 q 240 526 250 554 q 231 479 233 504 q 231 474 231 478 q 229 467 231 471 q 227 460 228 463 q 226 454 226 457 l 226 451 q 224 450 226 450 l 215 450 q 213 451 213 450 l 213 482 q 211 492 213 486 q 208 503 210 497 q 205 519 207 511 q 201 536 203 528 q 197 563 197 553 q 218 610 197 593 q 242 626 229 621 q 268 633 254 632 l 275 633 q 285 631 283 633 q 294 629 289 629 q 301 632 297 631 q 311 633 306 633 l 328 633 q 346 636 331 636 q 349 635 346 635 q 358 633 350 633 l 381 633 l 392 636 q 406 635 403 636 q 421 633 410 633 q 440 631 432 632 q 454 629 449 631 q 481 619 471 626 q 497 596 492 613 q 503 554 503 583 q 501 549 503 550 q 500 543 500 547 l 500 532 q 496 519 499 526 q 489 504 493 513 q 476 485 483 494 q 460 467 468 476 q 443 449 451 457 q 425 431 435 440 q 406 414 415 421 q 388 401 397 407 l 399 401 q 406 397 404 401 q 414 396 410 397 q 421 394 414 394 l 458 379 q 484 364 475 372 q 497 349 493 356 q 506 333 501 343 q 514 311 510 322 l 518 297 l 514 300 q 519 296 517 299 q 522 292 521 293 l 522 282 q 519 272 522 275 q 518 264 518 269 l 518 244 q 517 233 518 238 q 515 229 515 232 q 513 224 514 226 q 511 215 513 217 l 511 204 q 449 114 494 157 q 354 47 406 68 l 313 28 q 295 20 303 24 q 281 15 288 17 q 269 10 275 13 q 256 6 263 7 q 241 2 249 4 q 225 0 233 0 q 206 -3 217 -3 q 182 -6 194 -4 z "},"4":{"ha":551,"x_min":31,"x_max":528,"o":"m 313 -11 q 304 -8 307 -11 q 303 0 303 -7 q 305 17 303 8 q 308 35 307 26 q 313 49 311 42 q 318 64 315 57 q 321 74 321 69 q 324 83 321 78 q 327 93 325 89 q 331 101 329 97 q 335 111 333 107 q 338 121 336 115 l 346 154 q 350 170 349 163 q 351 185 351 178 q 354 200 354 192 q 354 218 354 208 l 340 218 q 329 217 335 215 q 314 215 322 218 q 296 214 308 214 q 278 215 286 214 q 260 215 269 215 q 254 217 258 217 q 244 218 250 217 l 228 218 q 208 216 218 217 q 186 215 197 215 q 144 211 164 215 q 136 210 140 210 q 128 210 132 210 q 119 210 124 210 q 110 211 115 210 q 92 211 100 211 q 76 210 83 211 q 67 210 68 211 q 56 210 65 208 q 36 218 43 210 q 35 239 31 226 q 42 249 38 244 l 54 260 q 63 267 58 263 q 69 274 67 271 q 81 288 75 279 q 85 290 83 290 q 88 294 85 292 q 94 299 89 296 q 101 301 99 299 q 115 312 108 307 q 128 322 122 317 l 149 343 l 169 363 q 196 385 182 375 q 213 401 207 392 q 231 418 221 413 q 250 435 242 425 l 269 456 l 290 476 q 311 501 301 488 q 317 506 314 504 q 321 510 317 506 l 351 547 q 383 581 364 564 q 396 601 394 592 q 410 621 397 611 l 432 635 q 447 639 440 642 q 463 640 454 638 q 482 646 472 646 q 504 624 500 646 q 503 610 506 611 q 503 604 501 610 q 501 593 504 599 q 499 585 501 593 q 496 579 497 582 q 493 574 494 576 q 490 568 492 571 q 489 563 489 565 q 488 558 488 561 q 488 554 488 554 q 485 545 486 551 q 482 536 483 539 q 473 525 481 529 q 463 513 465 521 q 464 508 464 511 q 461 500 464 504 q 458 492 458 496 q 453 465 458 476 q 447 440 450 454 q 440 418 443 425 q 435 406 436 413 q 431 389 435 400 q 428 376 429 382 q 428 368 428 371 l 428 353 q 424 340 426 350 q 418 321 421 331 q 413 304 417 311 q 410 294 410 297 q 407 285 407 286 q 404 272 404 276 q 402 265 403 269 q 401 258 401 261 q 414 260 407 260 q 428 261 421 260 q 444 263 436 263 q 457 263 451 263 l 471 263 q 478 263 474 263 q 489 264 483 263 q 495 266 492 265 q 504 268 499 267 q 524 274 513 271 q 528 272 528 276 q 524 260 528 264 l 518 251 q 517 249 517 250 q 515 246 517 247 q 510 233 513 236 q 500 221 510 228 q 472 217 492 214 q 453 219 464 219 q 433 221 442 224 q 411 221 422 218 q 396 218 399 224 l 390 188 q 389 171 390 175 q 388 159 388 165 q 388 144 388 153 q 388 115 388 128 q 390 90 389 101 q 393 64 393 82 q 392 47 393 54 q 390 35 392 40 q 371 6 383 11 q 355 0 364 3 q 335 -6 346 -3 q 329 -8 332 -7 q 324 -8 326 -8 q 313 -11 319 -11 m 289 251 q 360 258 346 251 q 365 269 363 264 q 369 282 368 275 q 378 307 372 297 l 378 314 q 381 322 378 319 q 381 328 381 325 q 382 335 382 332 q 385 350 385 339 q 388 358 386 354 q 390 367 389 363 l 399 385 q 402 398 401 392 q 404 410 403 404 q 407 424 406 417 q 410 439 408 432 l 414 453 q 415 461 414 457 q 417 469 415 465 l 417 483 l 421 511 q 423 526 422 518 q 424 544 424 535 q 424 553 424 547 q 426 565 425 558 l 426 564 q 425 583 431 578 q 421 576 424 581 q 415 569 418 572 q 408 561 413 565 q 401 554 404 557 q 393 547 397 551 q 386 540 389 543 q 371 525 379 532 l 342 494 q 310 464 326 476 l 290 444 l 272 428 q 256 411 264 418 q 238 399 246 406 q 224 386 231 393 q 210 374 217 381 q 196 360 203 367 q 184 347 190 353 q 171 333 178 340 q 146 304 157 319 q 138 294 142 299 q 132 285 135 289 q 121 261 124 276 l 122 261 q 138 260 131 258 l 154 260 q 169 258 161 258 q 185 257 178 258 l 215 257 q 255 253 236 256 q 289 251 274 251 z "},"5":{"ha":486,"x_min":33,"x_max":467,"o":"m 79 282 q 69 290 69 281 l 75 299 q 78 304 76 301 q 81 308 79 307 q 88 322 83 315 q 96 336 93 328 l 100 347 l 104 360 q 110 370 107 365 q 115 381 113 375 q 128 403 124 392 q 130 408 129 406 q 131 414 131 411 q 133 428 131 419 l 146 469 q 153 491 149 481 q 160 511 157 501 q 163 522 163 519 q 158 535 163 529 q 153 545 156 540 q 149 556 150 550 q 149 567 146 563 q 154 574 150 569 q 185 607 167 597 q 204 614 194 614 q 217 613 211 614 q 229 611 224 613 l 243 611 q 256 609 249 610 q 269 610 263 608 q 285 611 276 611 q 300 611 293 611 l 379 621 l 403 621 q 413 624 406 624 q 422 625 419 628 l 426 621 q 439 624 431 621 q 451 624 446 626 q 460 619 458 622 q 467 599 467 615 q 466 582 467 589 q 464 569 465 575 q 457 546 463 558 q 450 522 451 533 l 450 508 q 446 490 446 499 q 440 486 443 488 q 435 485 440 485 q 433 492 433 486 q 432 499 432 493 q 435 507 435 503 q 439 522 438 514 q 440 539 440 529 q 442 549 442 543 q 433 567 442 563 q 396 583 419 579 q 386 589 390 586 q 380 590 383 589 q 374 593 376 592 q 363 593 367 596 q 351 594 360 592 q 342 597 346 596 q 332 596 338 597 l 285 596 q 276 594 279 596 q 264 590 272 593 q 254 586 256 588 q 244 579 251 582 q 238 578 240 579 l 231 578 q 222 569 225 575 q 215 556 218 563 q 210 540 213 547 q 204 528 207 533 l 193 511 q 185 494 188 503 l 185 489 l 181 476 q 178 464 181 472 l 174 451 q 170 441 172 446 q 167 431 168 436 q 158 404 163 419 q 155 390 157 397 q 151 375 153 382 q 149 349 147 358 l 149 339 q 150 329 151 331 q 143 322 150 325 q 138 319 140 319 q 136 319 138 319 q 133 318 135 319 q 131 315 132 317 q 128 313 131 314 q 124 306 128 310 l 110 296 q 103 293 107 296 q 93 288 99 290 q 88 285 92 286 q 79 282 85 283 m 140 -7 l 117 -3 q 106 0 111 -1 q 93 3 100 1 q 72 14 83 4 q 56 32 61 22 q 39 61 46 49 q 33 106 33 72 q 42 136 33 122 q 50 151 46 144 q 57 163 54 157 q 79 175 68 175 l 85 175 q 96 163 96 175 q 93 149 96 157 q 90 133 90 140 q 90 124 90 128 q 88 115 89 119 q 89 104 85 113 q 93 92 92 94 q 107 69 100 74 q 118 63 113 67 q 129 56 124 58 l 135 50 q 139 48 138 49 q 140 47 140 47 q 150 44 144 47 q 158 39 153 42 q 168 40 165 39 q 181 40 175 43 q 197 42 193 43 q 215 44 204 42 l 218 44 q 226 42 222 44 q 233 40 229 40 q 257 44 247 40 q 275 58 265 53 l 297 71 q 304 77 300 74 q 313 83 308 81 q 325 90 318 86 q 336 97 332 94 q 343 114 340 101 q 351 128 347 121 q 360 140 356 135 q 371 154 367 147 q 379 167 375 161 q 382 176 381 172 q 385 186 383 181 q 388 198 386 192 q 392 211 390 204 l 392 246 q 372 325 392 299 q 313 358 349 350 q 300 360 304 358 q 292 360 297 360 q 285 361 288 360 l 267 361 q 243 361 260 364 l 218 356 q 208 353 213 354 q 199 349 204 351 q 182 340 190 349 q 168 332 174 332 q 161 347 156 332 q 179 360 171 357 l 199 371 q 219 379 210 378 l 242 383 q 247 383 244 382 q 251 383 250 383 q 260 385 256 388 q 314 392 288 392 q 368 385 343 392 q 382 380 376 383 q 392 374 388 376 q 440 339 425 364 q 453 303 446 326 q 456 291 456 297 q 456 278 456 285 q 456 269 456 274 q 454 258 456 264 q 453 244 453 251 q 450 231 453 238 q 440 204 450 219 q 421 165 433 183 q 392 131 408 147 q 360 97 375 113 q 328 65 344 81 l 303 54 q 278 42 289 49 q 259 33 269 38 q 242 25 249 29 q 227 17 235 21 q 211 10 219 13 q 195 3 204 7 q 176 -3 186 0 q 157 -8 167 -7 q 140 -7 147 -8 z "},"6":{"ha":522,"x_min":22,"x_max":519,"o":"m 182 -3 q 143 3 156 -3 q 133 8 138 6 q 124 13 128 10 q 114 19 118 15 q 104 24 110 22 q 97 26 101 25 q 90 29 93 28 q 83 31 88 29 q 76 33 79 32 q 74 36 75 35 q 71 39 74 38 q 67 46 71 42 q 60 56 64 51 q 53 64 56 60 q 45 74 49 69 q 39 85 42 79 q 32 107 33 97 l 26 129 l 26 140 q 25 151 26 147 q 23 168 24 158 q 22 189 22 178 q 26 228 22 214 l 35 264 q 40 282 38 274 q 46 299 43 290 q 115 435 72 368 q 214 544 160 503 q 224 553 219 546 q 235 563 226 557 q 253 576 244 569 q 272 589 263 582 q 294 601 283 596 q 315 613 304 607 q 357 625 336 624 q 379 630 368 628 q 403 635 390 632 q 414 636 408 636 q 425 638 419 636 l 449 638 q 490 633 469 638 q 519 608 514 628 l 519 603 q 513 583 519 592 q 496 575 503 571 l 476 586 l 454 594 q 425 603 444 599 q 407 606 414 606 q 397 605 401 606 q 388 603 393 604 l 367 599 q 344 594 356 599 l 319 586 l 293 574 q 267 558 279 567 q 244 542 256 550 q 222 523 233 533 q 203 501 211 513 q 198 493 200 497 q 193 486 196 489 q 188 478 192 482 q 182 469 185 474 q 172 460 178 464 q 164 450 165 456 q 161 445 163 447 q 158 440 160 443 q 156 435 157 438 q 153 429 154 432 q 147 422 151 426 l 142 414 l 138 397 q 135 390 136 394 q 133 383 133 386 q 131 376 132 381 q 128 369 131 372 q 100 301 113 336 q 91 263 94 283 q 86 221 88 243 q 94 228 90 224 l 113 246 q 122 256 117 251 l 135 267 l 149 281 q 176 299 163 290 q 203 317 189 308 q 267 344 231 333 q 278 347 272 346 q 293 350 285 349 q 304 351 301 353 q 315 353 308 350 l 329 357 q 344 358 338 361 l 361 354 q 379 347 372 351 q 385 343 383 343 q 390 339 385 342 q 401 338 399 336 q 411 336 406 339 q 435 319 424 328 q 456 299 450 310 q 458 285 461 292 q 461 269 458 278 q 465 235 465 253 q 457 179 465 203 q 441 138 450 157 q 421 104 432 119 q 363 51 397 74 l 358 47 q 356 44 358 47 q 340 36 350 39 q 331 33 335 35 q 321 29 326 32 q 314 24 318 28 l 306 18 q 290 11 299 13 q 282 8 286 10 q 275 6 278 7 q 224 -1 250 -1 q 203 -2 214 -1 q 182 -3 193 -3 m 218 26 q 258 32 240 26 q 269 34 264 33 q 279 35 274 35 q 289 35 285 35 q 299 38 293 36 q 328 54 314 44 q 356 75 342 64 q 397 131 383 100 q 401 139 400 135 q 404 149 403 143 q 406 158 404 154 q 408 168 407 163 l 408 182 q 410 188 410 185 q 411 194 410 192 q 411 208 414 201 l 406 222 q 403 231 404 226 q 403 239 403 235 q 404 244 404 242 q 406 249 404 247 q 407 253 407 251 q 408 258 407 256 l 392 271 q 388 272 390 272 q 387 272 388 272 q 385 274 386 272 q 372 285 381 276 q 360 296 364 293 q 325 310 343 308 q 303 312 315 311 q 278 313 292 313 q 271 313 275 310 l 263 313 l 244 308 q 226 304 235 308 q 210 297 218 300 q 196 288 203 293 q 168 269 181 276 l 156 263 q 143 257 151 263 l 139 251 q 136 244 139 247 q 126 235 132 239 l 114 226 q 104 217 106 221 q 90 208 100 210 l 88 213 q 88 213 88 213 q 86 215 88 214 l 86 190 q 86 185 89 188 l 86 179 q 88 169 88 174 q 89 160 89 165 q 90 150 89 154 q 92 140 90 146 q 94 132 94 135 q 97 127 97 129 q 99 122 97 125 q 100 113 99 115 l 100 101 q 104 95 101 99 q 110 88 107 92 q 117 78 114 82 q 122 72 121 75 q 126 65 124 71 q 131 58 129 60 q 138 56 133 57 q 144 53 142 54 l 161 49 q 164 47 163 47 q 167 44 165 47 l 171 40 q 192 31 181 33 q 218 26 207 26 z "},"7":{"ha":518,"x_min":43,"x_max":507,"o":"m 76 -4 q 71 -1 71 -4 q 81 17 71 7 l 104 43 l 115 54 l 128 68 l 133 78 l 144 90 q 163 111 161 107 q 165 119 163 111 q 181 147 171 136 l 185 153 q 197 169 192 160 q 217 200 206 179 q 222 203 219 201 q 225 207 224 206 q 231 219 225 211 q 240 244 233 233 l 246 253 l 250 257 q 249 260 250 258 l 249 263 q 256 281 249 269 q 269 300 261 292 l 278 317 q 283 325 281 321 q 286 332 285 329 l 294 350 q 302 366 299 358 q 310 381 306 374 l 326 411 l 338 431 q 340 435 339 433 q 343 440 342 438 l 349 454 q 356 471 350 465 q 358 492 358 479 l 374 524 q 383 541 379 533 q 388 554 386 549 q 393 566 390 561 q 397 575 396 571 q 401 594 401 583 q 393 603 400 601 q 386 606 390 604 q 376 607 382 607 q 367 610 371 610 q 357 611 363 610 q 347 613 351 613 q 338 613 342 613 q 329 614 335 614 l 322 614 q 318 615 318 614 q 307 617 311 617 q 300 618 303 618 q 292 617 296 618 l 263 617 q 254 618 256 617 q 199 614 226 618 q 144 597 169 608 q 99 565 118 585 q 68 515 79 546 q 50 500 61 500 q 44 506 44 500 l 44 507 q 46 508 44 508 l 46 510 l 44 510 l 43 511 q 49 523 46 517 q 54 535 51 529 q 63 548 58 542 q 69 560 67 554 l 69 558 l 75 569 q 92 594 82 582 q 103 609 97 601 q 114 624 108 617 q 150 638 126 636 q 200 642 178 642 l 210 642 q 231 642 221 642 q 253 640 242 642 q 278 633 275 640 q 285 633 281 633 q 296 635 290 633 q 307 635 301 635 q 318 638 313 636 q 334 639 325 639 q 353 639 343 639 l 456 639 q 468 642 460 639 q 481 643 476 642 l 493 643 q 507 638 507 643 q 500 624 507 633 l 485 606 l 469 586 q 457 571 465 575 q 451 564 456 568 q 444 556 446 561 l 444 557 q 435 542 439 547 q 431 535 432 538 q 428 530 429 532 q 425 525 426 528 l 421 521 l 417 515 q 399 489 410 508 l 376 447 l 357 411 q 347 394 351 401 q 338 379 343 386 l 339 379 q 340 378 340 379 q 332 356 338 365 q 325 344 329 350 q 318 331 321 338 q 289 281 300 308 q 284 267 288 275 q 278 253 281 260 l 264 224 l 253 206 q 249 196 249 200 l 247 196 q 246 191 246 193 q 243 186 246 189 q 242 182 243 185 q 239 176 240 179 q 235 167 238 175 q 228 156 231 158 q 224 144 228 149 l 224 135 q 221 130 222 133 q 217 122 219 126 q 211 113 214 117 q 206 104 208 108 q 200 90 200 94 l 200 88 q 199 82 200 85 l 199 75 l 193 56 q 192 50 192 53 q 192 46 192 47 q 179 18 192 29 q 147 3 164 4 q 129 4 143 4 q 92 -3 113 4 q 76 -4 88 -4 z "},"8":{"ha":460,"x_min":13,"x_max":485,"o":"m 138 -14 q 99 -10 115 -14 q 92 -8 96 -8 q 83 -7 86 -8 q 75 -4 76 -7 l 75 0 q 64 7 74 6 l 43 19 q 42 24 43 22 q 38 31 39 29 q 32 39 35 36 q 28 46 32 42 l 26 51 q 17 75 17 61 q 18 83 17 79 q 19 89 19 86 q 21 93 19 92 q 18 108 21 97 q 15 121 15 117 q 13 132 13 125 q 14 136 13 136 q 19 153 15 138 q 26 174 22 163 q 35 199 29 185 q 82 249 44 225 l 86 253 q 92 257 89 256 q 96 261 92 257 q 108 272 101 267 q 122 285 115 278 q 156 311 135 297 q 188 331 172 322 q 203 340 196 336 q 217 346 211 343 l 211 350 q 206 353 208 350 l 201 357 q 199 358 200 357 q 186 363 193 358 l 174 369 l 167 374 l 168 374 q 121 414 135 392 q 106 464 106 438 q 128 531 106 494 q 140 550 136 538 q 146 558 143 554 q 150 565 149 563 q 163 574 157 572 q 165 581 163 575 q 181 588 168 585 q 213 608 199 601 q 224 614 219 611 q 232 618 229 617 q 239 626 239 625 l 276 643 q 300 651 292 650 q 309 653 306 653 q 315 653 313 653 l 324 653 q 331 654 325 654 q 338 653 336 654 q 343 650 340 650 q 350 651 349 650 l 358 653 l 399 649 q 442 632 424 644 q 454 624 449 628 q 465 615 460 621 q 478 594 478 606 q 479 581 479 592 q 483 558 479 571 q 485 551 485 557 q 479 531 485 540 q 463 507 472 517 q 458 496 463 507 q 452 486 456 490 q 446 478 449 482 q 431 468 440 472 q 413 454 422 464 q 350 399 390 426 q 315 375 331 385 q 285 358 299 365 l 303 350 l 336 332 l 374 313 q 391 301 383 307 q 404 290 399 296 q 421 271 418 281 q 426 248 424 258 q 428 229 428 238 q 419 183 428 206 q 396 139 411 161 l 388 126 q 382 117 385 122 q 376 107 379 113 q 371 97 374 101 q 365 89 368 92 q 329 60 350 74 q 308 46 319 53 q 286 32 297 39 l 274 24 q 260 14 272 22 l 246 10 q 240 8 243 8 q 235 7 238 7 q 229 5 232 6 q 224 3 226 4 l 200 -7 l 175 -11 q 165 -12 169 -12 q 153 -12 160 -12 l 138 -14 m 271 367 q 283 373 276 369 q 297 382 289 376 q 314 394 306 388 q 331 406 322 400 q 349 419 340 413 q 364 433 357 426 q 378 447 372 440 q 389 460 385 454 q 407 486 400 475 q 413 497 410 492 q 417 504 415 501 q 421 519 421 513 l 421 539 q 403 613 421 594 q 325 632 383 632 q 291 629 307 632 q 260 621 275 626 q 258 619 258 621 l 257 619 l 256 618 q 238 611 246 615 q 222 604 229 607 q 197 585 208 599 q 186 571 188 578 q 183 563 185 567 q 178 556 181 558 q 176 552 176 554 q 174 547 176 550 q 169 539 174 543 q 161 492 161 513 q 174 450 161 467 l 197 418 l 218 406 q 231 397 225 400 q 240 390 238 393 l 239 390 l 243 388 l 246 385 q 249 381 246 383 l 250 379 l 264 372 q 265 369 264 369 q 269 367 268 368 q 271 367 271 367 m 203 19 q 213 20 208 19 q 224 22 218 21 l 224 24 q 256 35 242 29 q 281 46 271 40 q 303 63 292 53 q 326 86 315 72 q 351 119 338 93 q 365 188 365 147 q 356 236 365 215 q 322 281 344 263 l 324 281 q 306 288 314 283 q 292 294 297 292 l 271 311 q 264 317 268 314 q 257 322 260 319 q 249 328 253 325 q 242 332 244 331 l 238 335 q 229 331 235 333 q 217 325 224 328 q 197 313 200 315 q 189 311 196 311 l 185 308 q 179 306 185 308 l 175 301 l 171 296 q 168 290 168 293 q 166 288 167 289 q 164 285 165 286 q 157 280 161 282 q 150 275 153 278 l 138 264 q 117 250 126 260 q 97 225 104 238 l 85 207 q 65 133 65 175 q 66 122 65 128 q 68 110 67 115 q 75 89 68 99 l 75 90 l 79 83 q 83 76 83 82 q 92 71 90 74 q 94 66 93 69 q 97 60 96 63 q 104 49 99 51 l 106 47 l 106 46 q 114 40 108 43 q 126 31 119 36 q 185 19 144 19 l 203 19 z "},"9":{"ha":536,"x_min":15,"x_max":539,"o":"m 90 -7 q 46 -3 69 -7 q 15 24 21 4 l 15 29 q 22 49 15 40 q 40 58 33 64 l 61 47 q 83 38 69 42 q 115 29 94 33 q 125 28 121 28 q 135 28 129 28 q 145 28 140 28 q 154 29 150 28 l 176 33 q 199 38 189 33 q 212 42 206 40 q 225 47 218 44 q 239 53 232 50 q 253 60 246 56 q 304 92 282 75 q 346 133 328 111 l 357 150 q 363 158 360 154 q 368 167 365 163 q 378 176 372 172 q 388 188 382 179 l 399 208 q 404 215 400 211 l 410 224 l 414 242 q 420 256 417 249 q 425 271 424 263 q 432 286 428 278 q 439 303 436 294 q 446 320 442 311 q 453 339 450 329 l 453 340 q 451 354 453 353 q 444 358 450 358 q 426 354 438 358 q 417 351 421 353 q 411 346 414 349 q 368 319 390 332 q 322 294 346 306 q 235 269 275 269 l 217 269 q 207 268 210 269 l 197 268 q 185 268 192 268 q 174 269 179 268 l 151 274 q 148 275 150 275 q 144 276 146 275 l 139 281 q 129 288 135 288 l 125 288 q 104 297 110 288 q 97 310 100 303 q 89 324 93 317 l 82 338 l 82 336 q 76 364 78 342 q 75 385 75 375 q 75 403 75 396 q 75 413 75 408 q 76 421 75 418 q 99 486 88 461 q 113 510 106 500 q 126 531 119 521 q 142 548 133 540 q 157 561 150 556 q 174 574 165 568 q 189 586 182 581 l 208 601 l 246 618 q 317 646 282 642 q 353 649 335 649 q 389 651 371 650 q 397 653 394 651 l 406 653 q 444 647 432 653 q 475 631 457 642 l 500 610 l 521 581 q 535 543 531 567 q 539 493 539 521 q 535 433 539 463 q 531 407 533 419 q 525 383 528 394 l 510 336 q 508 333 510 335 l 508 331 q 436 196 479 257 q 389 138 414 165 q 335 89 364 111 q 325 81 329 88 q 313 71 321 76 l 274 44 q 229 19 254 31 q 186 7 206 8 q 163 2 175 6 q 138 -4 151 -1 q 126 -6 132 -6 q 114 -7 121 -6 l 90 -7 m 235 307 q 313 318 276 307 q 347 331 331 324 q 378 344 363 338 q 392 355 385 350 q 406 364 399 360 l 426 378 q 443 397 436 386 q 468 454 463 429 q 472 480 471 468 q 475 501 474 492 q 476 507 475 504 l 476 511 l 474 519 q 472 527 472 522 q 471 539 471 532 l 471 546 q 470 547 471 546 q 468 551 469 549 l 460 564 l 451 578 q 443 589 446 583 q 419 599 435 599 q 417 600 418 599 q 413 601 415 601 l 397 618 q 371 622 392 619 q 353 624 361 624 q 339 625 346 624 q 308 618 322 618 l 285 614 q 256 603 275 613 q 167 525 197 571 q 136 406 136 482 q 132 385 132 393 l 132 383 l 136 367 q 146 350 138 356 l 151 344 q 157 338 153 342 q 172 321 164 326 q 235 307 199 307 z "},"\r":{"ha":325,"x_min":0,"x_max":0,"o":""}," ":{"ha":313,"x_min":0,"x_max":0,"o":""}," ":{"ha":313,"x_min":0,"x_max":0,"o":""},"A":{"ha":588,"x_min":-74,"x_max":533,"o":"m -32 -21 q -37 -21 -33 -21 q -47 -19 -40 -21 q -64 -18 -61 -19 q -69 -7 -74 -12 q -67 1 -69 -3 q -64 10 -65 6 q -51 26 -57 21 q -46 34 -49 31 q -42 39 -43 38 q -28 47 -36 40 q -19 57 -25 51 l -11 69 q 6 78 1 72 l 15 89 q 25 99 21 93 l 32 113 q 38 115 35 114 q 44 119 40 117 q 46 128 47 122 q 50 138 46 133 q 65 156 57 147 q 81 172 72 165 q 113 207 99 186 l 119 218 q 126 226 122 222 q 131 233 129 232 q 132 240 131 239 q 140 250 133 246 q 153 260 144 254 q 169 289 164 275 q 176 303 172 296 q 186 318 181 311 q 201 333 193 326 q 204 343 204 339 q 211 350 207 347 q 218 357 215 353 q 224 372 221 368 q 233 385 228 376 q 243 399 238 393 q 260 424 254 411 q 266 437 263 431 q 275 450 269 443 q 283 457 279 454 q 285 461 285 460 q 286 464 285 463 q 288 471 286 468 q 296 482 292 476 q 304 494 300 488 q 317 519 313 510 q 331 550 324 531 q 332 556 332 553 q 333 561 332 560 q 335 572 333 568 q 343 585 338 579 q 354 596 349 590 q 376 613 368 608 l 390 625 q 404 631 399 631 q 417 618 419 631 q 415 599 413 610 q 422 594 417 597 q 419 588 419 583 q 420 576 419 582 q 422 565 421 571 q 424 558 422 561 q 425 551 425 556 q 426 540 426 547 q 429 531 426 539 q 431 517 432 522 q 431 503 428 510 q 431 493 432 497 q 429 485 428 486 q 428 472 431 478 q 426 464 426 469 q 428 449 426 456 q 429 440 429 443 q 432 431 429 433 q 433 422 432 426 q 433 414 436 417 q 435 403 436 404 q 436 393 433 401 q 435 383 435 390 q 436 375 439 378 q 439 367 442 372 q 438 354 435 361 q 438 338 440 349 q 436 331 438 332 q 444 319 444 326 l 444 308 q 446 296 444 300 q 449 293 449 293 q 450 289 449 290 q 450 274 453 282 q 450 261 449 265 q 454 254 453 256 q 458 246 458 250 q 460 241 460 243 q 461 236 460 239 q 460 226 461 231 l 464 215 l 469 201 q 471 192 472 193 q 469 183 469 189 l 474 175 q 477 172 476 174 q 479 168 478 169 q 478 165 478 167 q 479 161 479 163 q 481 153 483 157 q 485 137 483 142 q 488 121 486 132 q 494 100 489 107 q 503 99 494 101 q 507 83 503 88 q 514 76 507 79 q 511 69 514 72 q 511 68 511 69 q 513 65 511 67 l 521 60 l 528 42 q 529 18 533 26 q 524 11 528 15 q 517 3 518 6 q 503 1 508 4 q 497 -1 500 0 q 489 -4 493 -3 q 482 -1 486 -1 q 474 0 475 -1 q 465 -1 469 -1 q 457 -1 461 -1 q 411 38 417 -1 q 414 46 411 43 q 419 53 415 49 q 425 58 425 56 q 426 68 429 63 l 426 72 q 429 83 426 75 q 438 101 436 94 q 433 113 433 106 q 436 125 433 117 q 439 132 436 129 l 435 136 q 432 148 435 143 q 435 160 429 153 q 429 165 429 160 q 428 171 429 168 q 426 176 428 174 q 428 189 428 178 q 431 203 428 200 q 422 221 426 207 q 414 238 418 236 q 406 237 411 238 q 394 235 401 236 q 376 229 378 231 q 360 224 368 226 q 344 219 351 222 q 329 215 338 217 q 311 211 321 214 q 274 207 293 207 l 197 207 q 188 208 194 207 q 172 208 182 208 q 158 211 163 211 q 151 211 153 211 q 115 176 129 200 q 99 153 108 163 q 83 133 90 143 l 71 117 l 63 104 l 58 99 q 39 78 43 90 q 35 63 36 71 q 32 49 33 56 l 28 18 q 14 -10 26 4 q -7 -21 6 -18 l -32 -21 m 354 243 q 365 243 360 243 q 375 244 369 243 q 387 244 382 244 q 397 246 392 244 q 406 247 403 247 q 410 247 408 247 q 415 251 413 250 q 417 256 415 254 q 419 260 418 258 q 415 267 417 263 q 410 275 413 271 q 404 301 404 282 q 404 314 407 304 q 404 326 403 325 q 400 332 400 331 l 396 344 q 393 358 396 350 q 389 364 389 363 q 386 381 385 375 q 385 389 386 385 q 383 397 385 393 l 379 415 q 378 428 379 425 q 376 439 376 431 q 351 486 372 465 l 350 486 q 336 475 344 481 q 322 464 328 469 l 314 450 l 306 433 q 299 425 303 429 q 290 417 294 421 q 274 396 281 407 q 276 386 272 390 l 264 372 l 250 358 q 248 351 249 354 q 247 346 247 349 q 238 339 244 342 q 228 331 229 336 l 224 322 q 222 317 222 321 q 218 311 221 314 l 214 307 q 213 307 214 307 q 211 306 213 307 q 210 300 211 303 q 208 299 208 300 q 207 296 208 297 q 200 292 204 296 l 183 275 l 178 265 q 179 261 176 261 q 201 250 185 253 q 221 250 218 247 l 231 256 q 238 256 233 256 q 244 254 242 256 q 263 250 251 251 q 276 249 269 249 q 289 247 282 249 q 303 246 296 246 q 317 246 311 246 q 339 247 333 246 q 341 247 340 247 q 342 246 342 246 q 343 243 342 243 l 354 243 z "},"Æ":{"ha":807,"x_min":10,"x_max":857,"o":"m 50 -8 q 45 -8 49 -8 q 35 -7 42 -8 q 18 -6 21 -7 q 13 6 10 -1 l 21 22 q 35 39 28 33 q 42 47 39 43 q 46 51 44 50 q 52 54 49 53 q 60 60 56 56 l 69 69 l 79 82 q 96 90 92 85 q 108 101 104 99 q 114 106 111 104 q 118 111 117 108 l 126 125 q 132 128 129 126 q 139 132 135 129 q 142 140 142 133 q 146 150 142 146 q 163 169 154 160 q 181 185 171 178 q 215 219 200 200 q 224 231 221 228 q 231 239 226 235 q 235 246 235 243 q 236 250 236 249 q 238 253 236 251 q 247 263 242 258 l 261 272 q 279 301 272 285 q 288 316 283 308 q 299 331 293 324 q 307 339 303 335 q 315 346 311 343 q 319 356 319 350 q 324 360 322 358 q 328 363 325 361 q 332 366 331 364 q 335 369 333 368 q 342 385 336 378 q 353 397 350 393 q 358 405 356 401 q 364 411 361 408 q 382 436 375 422 q 398 451 385 440 q 424 472 411 461 q 440 488 438 483 q 444 491 442 489 q 450 494 446 493 q 451 499 451 497 q 453 501 451 500 q 456 508 453 503 q 465 519 460 514 q 474 532 469 525 q 483 545 479 539 q 489 557 486 551 q 494 565 492 561 q 499 574 497 569 q 500 576 500 575 q 501 579 500 578 l 506 588 l 510 590 q 543 607 525 607 q 568 608 554 607 q 599 610 582 608 q 611 608 607 610 l 639 608 q 653 610 647 608 q 686 609 669 610 q 719 606 703 608 l 746 601 l 753 601 q 763 601 758 601 q 772 603 768 601 l 797 603 q 803 604 800 604 q 810 606 807 604 q 821 608 813 606 l 826 607 q 833 606 829 604 l 836 606 q 840 610 838 607 q 849 617 843 613 q 854 615 854 617 q 857 613 854 614 l 857 611 q 856 606 856 610 q 831 583 856 599 q 772 564 801 568 q 767 563 769 564 q 761 563 764 563 q 749 567 753 563 q 735 565 736 564 q 722 565 733 568 q 714 567 721 567 q 706 568 706 567 q 688 568 700 567 q 677 568 682 568 q 669 567 672 568 q 661 565 665 565 q 653 565 657 565 q 644 566 649 565 q 633 568 639 567 q 621 571 625 571 q 606 567 613 571 q 604 564 604 565 q 601 560 604 563 q 597 560 597 558 q 593 557 596 560 q 590 540 593 549 q 585 531 589 535 l 579 522 q 579 507 578 517 q 581 493 583 501 q 575 479 578 485 q 568 469 572 472 q 565 469 565 467 q 561 450 564 465 q 560 437 560 442 q 560 431 560 432 q 557 415 563 422 q 554 401 553 407 l 540 368 q 550 365 544 368 q 557 361 551 364 q 564 361 560 361 q 572 363 568 361 q 589 364 583 363 q 588 360 588 363 q 589 358 589 360 q 597 358 593 354 q 607 363 601 364 q 614 363 610 360 q 624 364 617 364 q 630 363 626 363 q 636 361 633 363 q 642 360 639 360 q 649 358 644 360 q 651 361 649 358 q 652 361 651 361 q 654 363 653 361 l 657 363 l 657 361 q 658 360 656 360 q 665 360 661 360 q 672 363 668 361 q 681 364 678 363 q 689 367 685 365 q 697 365 692 368 q 707 364 699 363 q 718 371 714 367 q 732 378 722 375 q 735 372 735 375 l 735 369 q 725 360 731 363 l 711 353 q 699 342 708 351 l 692 338 q 686 338 686 335 q 681 331 681 332 l 658 319 q 638 318 647 315 q 619 318 628 319 q 615 317 618 318 q 606 315 611 317 q 597 313 600 314 q 593 313 593 313 l 585 317 q 574 318 579 319 l 558 314 q 550 313 554 313 q 543 311 546 313 q 533 300 538 310 q 531 292 532 296 q 528 282 529 288 q 526 272 526 276 q 525 261 525 267 q 524 251 524 256 q 524 244 524 247 q 525 232 529 238 q 521 219 519 222 q 521 206 522 215 q 521 199 518 201 q 521 193 524 196 q 522 189 521 192 q 522 183 522 186 q 519 171 522 179 q 518 168 518 169 q 517 164 518 167 q 514 151 517 160 q 515 149 514 150 q 515 146 515 149 q 513 142 515 144 q 511 136 510 140 l 515 133 q 511 122 513 128 q 508 110 510 115 q 508 103 508 107 q 507 97 507 100 q 508 87 507 92 q 510 76 508 82 q 524 51 514 57 q 527 50 525 50 q 531 49 529 50 l 538 44 q 543 39 542 43 q 547 38 544 39 q 550 35 549 36 q 557 35 554 32 q 567 36 563 38 q 585 34 575 35 q 608 33 596 33 q 631 33 621 33 q 651 35 642 33 q 665 33 658 33 q 678 32 672 33 l 704 32 q 706 33 706 32 q 708 33 707 33 q 713 38 708 36 q 725 43 718 40 q 739 49 732 46 q 753 56 747 51 q 765 63 760 60 q 774 72 771 68 q 782 81 776 79 l 790 76 l 790 71 q 778 61 782 63 q 764 51 769 57 l 760 42 q 746 32 757 39 q 737 26 742 29 q 726 19 732 22 q 716 14 721 17 q 706 8 711 11 q 697 4 700 6 q 690 1 693 3 q 682 -1 690 1 q 668 -3 672 -1 q 658 -4 663 -4 q 647 -6 653 -4 q 642 -1 643 -3 q 636 -3 639 -1 q 617 -5 628 -4 q 594 -6 607 -6 q 572 -5 582 -6 q 554 -3 561 -4 q 536 -3 544 -1 q 519 -6 529 -8 l 510 -6 q 497 -7 501 -6 l 488 -7 q 476 -7 482 -7 q 465 -6 471 -7 q 451 -3 458 -4 q 435 0 443 -1 q 428 -1 431 0 q 422 -3 425 -1 q 413 -3 418 -6 l 397 17 q 399 29 396 19 q 402 39 401 35 q 404 46 403 43 q 410 57 404 54 l 418 61 q 426 64 424 61 q 436 72 431 64 q 442 92 440 78 q 447 113 444 107 q 456 117 451 113 q 458 126 457 122 q 458 135 458 131 q 460 144 460 140 q 461 153 460 149 q 467 167 464 160 q 472 182 469 175 q 478 197 475 189 q 483 211 481 204 l 483 222 q 486 236 481 229 q 489 243 489 242 q 485 242 488 243 q 481 242 483 242 q 464 237 472 239 q 449 232 456 235 q 432 228 440 229 q 414 224 424 226 q 376 219 396 219 l 300 219 q 291 220 297 219 q 275 221 285 221 q 260 224 265 224 q 254 224 256 224 q 215 189 231 213 q 179 146 196 160 l 175 140 q 165 129 168 133 l 156 117 l 151 111 q 129 90 136 103 q 124 76 126 83 q 119 61 122 68 q 117 46 118 54 q 113 31 115 38 q 108 17 111 24 q 97 3 104 10 q 74 -8 89 -6 l 50 -8 m 460 256 q 471 256 465 256 q 482 257 476 256 q 488 256 485 257 q 493 256 490 256 l 497 272 q 500 285 500 281 q 501 292 500 290 q 504 313 504 300 q 506 325 506 319 q 507 333 506 331 q 503 353 507 343 q 503 361 503 357 q 506 369 504 365 l 511 385 q 513 401 515 390 l 510 419 q 511 426 510 422 q 514 432 513 429 l 519 444 q 520 450 521 447 q 519 456 519 453 q 517 464 517 464 q 517 469 517 467 q 519 475 518 472 q 524 490 524 482 q 524 494 524 492 q 522 500 524 497 q 522 505 522 503 q 521 508 521 507 l 518 511 q 519 514 518 513 q 518 517 519 515 q 519 518 518 517 q 521 521 519 519 l 519 524 q 513 515 515 521 q 506 506 510 508 q 492 494 497 500 q 487 487 489 492 q 482 478 485 482 q 476 474 479 474 q 469 471 472 475 q 461 463 465 467 q 451 454 457 458 q 435 442 449 451 q 410 422 422 432 q 394 408 397 413 q 396 399 393 403 q 388 392 392 396 q 381 385 385 388 q 374 378 378 382 q 367 371 371 374 q 363 358 363 363 q 353 351 360 354 q 342 343 346 350 l 338 335 l 331 324 l 326 319 q 326 319 326 319 q 324 318 325 319 q 322 315 322 317 q 321 313 322 314 q 319 311 319 313 q 318 308 319 310 q 311 304 315 308 l 303 297 q 292 288 296 290 l 286 278 q 288 274 285 274 q 308 263 293 265 q 328 263 324 261 q 333 265 331 264 q 339 268 336 267 q 351 267 347 268 q 369 263 358 264 q 383 261 376 261 q 396 260 389 261 q 410 258 403 258 q 424 258 418 258 q 436 258 431 258 q 446 260 442 258 q 449 257 449 260 q 448 256 447 257 q 449 256 449 256 l 460 256 z "},"Ǽ":{"ha":807,"x_min":10,"x_max":857,"o":"m 50 -8 q 45 -8 49 -8 q 35 -7 42 -8 q 18 -6 21 -7 q 13 6 10 -1 l 21 22 q 35 39 28 33 q 42 47 39 43 q 46 51 44 50 q 52 54 49 53 q 60 60 56 56 l 69 69 l 79 82 q 96 90 92 85 q 108 101 104 99 q 114 106 111 104 q 118 111 117 108 l 126 125 q 132 128 129 126 q 139 132 135 129 q 142 140 142 133 q 146 150 142 146 q 163 169 154 160 q 181 185 171 178 q 215 219 200 200 q 224 231 221 228 q 231 239 226 235 q 235 246 235 243 q 236 250 236 249 q 238 253 236 251 q 247 263 242 258 l 261 272 q 279 301 272 285 q 288 316 283 308 q 299 331 293 324 q 307 339 303 335 q 315 346 311 343 q 319 356 319 350 q 324 360 322 358 q 328 363 325 361 q 332 366 331 364 q 335 369 333 368 q 342 385 336 378 q 353 397 350 393 q 358 405 356 401 q 364 411 361 408 q 382 436 375 422 q 398 451 385 440 q 424 472 411 461 q 440 488 438 483 q 444 491 442 489 q 450 494 446 493 q 451 499 451 497 q 453 501 451 500 q 456 508 453 503 q 465 519 460 514 q 474 532 469 525 q 483 545 479 539 q 489 557 486 551 q 494 565 492 561 q 499 574 497 569 q 500 576 500 575 q 501 579 500 578 l 506 588 l 510 590 q 543 607 525 607 q 568 608 554 607 q 599 610 582 608 q 611 608 607 610 l 639 608 q 653 610 647 608 q 686 609 669 610 q 719 606 703 608 l 746 601 l 753 601 q 763 601 758 601 q 772 603 768 601 l 797 603 q 803 604 800 604 q 810 606 807 604 q 821 608 813 606 l 826 607 q 833 606 829 604 l 836 606 q 840 610 838 607 q 849 617 843 613 q 854 615 854 617 q 857 613 854 614 l 857 611 q 856 606 856 610 q 831 583 856 599 q 772 564 801 568 q 767 563 769 564 q 761 563 764 563 q 749 567 753 563 q 735 565 736 564 q 722 565 733 568 q 714 567 721 567 q 706 568 706 567 q 688 568 700 567 q 677 568 682 568 q 669 567 672 568 q 661 565 665 565 q 653 565 657 565 q 644 566 649 565 q 633 568 639 567 q 621 571 625 571 q 606 567 613 571 q 604 564 604 565 q 601 560 604 563 q 597 560 597 558 q 593 557 596 560 q 590 540 593 549 q 585 531 589 535 l 579 522 q 579 507 578 517 q 581 493 583 501 q 575 479 578 485 q 568 469 572 472 q 565 469 565 467 q 561 450 564 465 q 560 437 560 442 q 560 431 560 432 q 557 415 563 422 q 554 401 553 407 l 540 368 q 550 365 544 368 q 557 361 551 364 q 564 361 560 361 q 572 363 568 361 q 589 364 583 363 q 588 360 588 363 q 589 358 589 360 q 597 358 593 354 q 607 363 601 364 q 614 363 610 360 q 624 364 617 364 q 630 363 626 363 q 636 361 633 363 q 642 360 639 360 q 649 358 644 360 q 651 361 649 358 q 652 361 651 361 q 654 363 653 361 l 657 363 l 657 361 q 658 360 656 360 q 665 360 661 360 q 672 363 668 361 q 681 364 678 363 q 689 367 685 365 q 697 365 692 368 q 707 364 699 363 q 718 371 714 367 q 732 378 722 375 q 735 372 735 375 l 735 369 q 725 360 731 363 l 711 353 q 699 342 708 351 l 692 338 q 686 338 686 335 q 681 331 681 332 l 658 319 q 638 318 647 315 q 619 318 628 319 q 615 317 618 318 q 606 315 611 317 q 597 313 600 314 q 593 313 593 313 l 585 317 q 574 318 579 319 l 558 314 q 550 313 554 313 q 543 311 546 313 q 533 300 538 310 q 531 292 532 296 q 528 282 529 288 q 526 272 526 276 q 525 261 525 267 q 524 251 524 256 q 524 244 524 247 q 525 232 529 238 q 521 219 519 222 q 521 206 522 215 q 521 199 518 201 q 521 193 524 196 q 522 189 521 192 q 522 183 522 186 q 519 171 522 179 q 518 168 518 169 q 517 164 518 167 q 514 151 517 160 q 515 149 514 150 q 515 146 515 149 q 513 142 515 144 q 511 136 510 140 l 515 133 q 511 122 513 128 q 508 110 510 115 q 508 103 508 107 q 507 97 507 100 q 508 87 507 92 q 510 76 508 82 q 524 51 514 57 q 527 50 525 50 q 531 49 529 50 l 538 44 q 543 39 542 43 q 547 38 544 39 q 550 35 549 36 q 557 35 554 32 q 567 36 563 38 q 585 34 575 35 q 608 33 596 33 q 631 33 621 33 q 651 35 642 33 q 665 33 658 33 q 678 32 672 33 l 704 32 q 706 33 706 32 q 708 33 707 33 q 713 38 708 36 q 725 43 718 40 q 739 49 732 46 q 753 56 747 51 q 765 63 760 60 q 774 72 771 68 q 782 81 776 79 l 790 76 l 790 71 q 778 61 782 63 q 764 51 769 57 l 760 42 q 746 32 757 39 q 737 26 742 29 q 726 19 732 22 q 716 14 721 17 q 706 8 711 11 q 697 4 700 6 q 690 1 693 3 q 682 -1 690 1 q 668 -3 672 -1 q 658 -4 663 -4 q 647 -6 653 -4 q 642 -1 643 -3 q 636 -3 639 -1 q 617 -5 628 -4 q 594 -6 607 -6 q 572 -5 582 -6 q 554 -3 561 -4 q 536 -3 544 -1 q 519 -6 529 -8 l 510 -6 q 497 -7 501 -6 l 488 -7 q 476 -7 482 -7 q 465 -6 471 -7 q 451 -3 458 -4 q 435 0 443 -1 q 428 -1 431 0 q 422 -3 425 -1 q 413 -3 418 -6 l 397 17 q 399 29 396 19 q 402 39 401 35 q 404 46 403 43 q 410 57 404 54 l 418 61 q 426 64 424 61 q 436 72 431 64 q 442 92 440 78 q 447 113 444 107 q 456 117 451 113 q 458 126 457 122 q 458 135 458 131 q 460 144 460 140 q 461 153 460 149 q 467 167 464 160 q 472 182 469 175 q 478 197 475 189 q 483 211 481 204 l 483 222 q 486 236 481 229 q 489 243 489 242 q 485 242 488 243 q 481 242 483 242 q 464 237 472 239 q 449 232 456 235 q 432 228 440 229 q 414 224 424 226 q 376 219 396 219 l 300 219 q 291 220 297 219 q 275 221 285 221 q 260 224 265 224 q 254 224 256 224 q 215 189 231 213 q 179 146 196 160 l 175 140 q 165 129 168 133 l 156 117 l 151 111 q 129 90 136 103 q 124 76 126 83 q 119 61 122 68 q 117 46 118 54 q 113 31 115 38 q 108 17 111 24 q 97 3 104 10 q 74 -8 89 -6 l 50 -8 m 460 256 q 471 256 465 256 q 482 257 476 256 q 488 256 485 257 q 493 256 490 256 l 497 272 q 500 285 500 281 q 501 292 500 290 q 504 313 504 300 q 506 325 506 319 q 507 333 506 331 q 503 353 507 343 q 503 361 503 357 q 506 369 504 365 l 511 385 q 513 401 515 390 l 510 419 q 511 426 510 422 q 514 432 513 429 l 519 444 q 520 450 521 447 q 519 456 519 453 q 517 464 517 464 q 517 469 517 467 q 519 475 518 472 q 524 490 524 482 q 524 494 524 492 q 522 500 524 497 q 522 505 522 503 q 521 508 521 507 l 518 511 q 519 514 518 513 q 518 517 519 515 q 519 518 518 517 q 521 521 519 519 l 519 524 q 513 515 515 521 q 506 506 510 508 q 492 494 497 500 q 487 487 489 492 q 482 478 485 482 q 476 474 479 474 q 469 471 472 475 q 461 463 465 467 q 451 454 457 458 q 435 442 449 451 q 410 422 422 432 q 394 408 397 413 q 396 399 393 403 q 388 392 392 396 q 381 385 385 388 q 374 378 378 382 q 367 371 371 374 q 363 358 363 363 q 353 351 360 354 q 342 343 346 350 l 338 335 l 331 324 l 326 319 q 326 319 326 319 q 324 318 325 319 q 322 315 322 317 q 321 313 322 314 q 319 311 319 313 q 318 308 319 310 q 311 304 315 308 l 303 297 q 292 288 296 290 l 286 278 q 288 274 285 274 q 308 263 293 265 q 328 263 324 261 q 333 265 331 264 q 339 268 336 267 q 351 267 347 268 q 369 263 358 264 q 383 261 376 261 q 396 260 389 261 q 410 258 403 258 q 424 258 418 258 q 436 258 431 258 q 446 260 442 258 q 449 257 449 260 q 448 256 447 257 q 449 256 449 256 l 460 256 m 561 686 q 569 696 561 694 q 582 703 579 699 q 591 710 589 707 q 594 714 593 713 q 599 716 599 715 q 601 717 600 717 q 609 722 604 719 q 617 725 614 724 q 622 733 619 729 q 628 738 625 736 l 643 753 q 658 761 647 757 q 671 767 669 765 q 681 777 678 774 q 699 779 683 781 l 700 779 q 713 776 707 779 q 725 771 719 774 q 739 767 733 768 q 749 765 744 767 q 761 761 757 764 q 761 758 767 758 q 757 758 760 761 q 747 753 751 753 l 740 751 q 738 749 739 751 q 733 746 736 747 l 722 743 l 710 736 q 706 736 706 736 l 701 732 q 692 729 696 729 q 690 728 690 729 q 688 726 690 728 q 683 726 686 729 q 681 725 682 725 q 679 725 679 725 q 672 723 675 724 q 665 721 668 722 q 660 717 664 719 q 643 710 657 715 q 629 706 638 710 q 619 703 624 706 q 610 699 615 700 q 599 694 604 697 q 589 690 594 692 q 564 686 571 686 l 561 686 z "},"Á":{"ha":588,"x_min":-74,"x_max":546,"o":"m -32 -21 q -37 -21 -33 -21 q -47 -19 -40 -21 q -64 -18 -61 -19 q -69 -7 -74 -12 q -67 1 -69 -3 q -64 10 -65 6 q -51 26 -57 21 q -46 34 -49 31 q -42 39 -43 38 q -28 47 -36 40 q -19 57 -25 51 l -11 69 q 6 78 1 72 l 15 89 q 25 99 21 93 l 32 113 q 38 115 35 114 q 44 119 40 117 q 46 128 47 122 q 50 138 46 133 q 65 156 57 147 q 81 172 72 165 q 113 207 99 186 l 119 218 q 126 226 122 222 q 131 233 129 232 q 132 240 131 239 q 140 250 133 246 q 153 260 144 254 q 169 289 164 275 q 176 303 172 296 q 186 318 181 311 q 201 333 193 326 q 204 343 204 339 q 211 350 207 347 q 218 357 215 353 q 224 372 221 368 q 233 385 228 376 q 243 399 238 393 q 260 424 254 411 q 266 437 263 431 q 275 450 269 443 q 283 457 279 454 q 285 461 285 460 q 286 464 285 463 q 288 471 286 468 q 296 482 292 476 q 304 494 300 488 q 317 519 313 510 q 331 550 324 531 q 332 556 332 553 q 333 561 332 560 q 335 572 333 568 q 343 585 338 579 q 354 596 349 590 q 376 613 368 608 l 390 625 q 404 631 399 631 q 417 618 419 631 q 415 599 413 610 q 422 594 417 597 q 419 588 419 583 q 420 576 419 582 q 422 565 421 571 q 424 558 422 561 q 425 551 425 556 q 426 540 426 547 q 429 531 426 539 q 431 517 432 522 q 431 503 428 510 q 431 493 432 497 q 429 485 428 486 q 428 472 431 478 q 426 464 426 469 q 428 449 426 456 q 429 440 429 443 q 432 431 429 433 q 433 422 432 426 q 433 414 436 417 q 435 403 436 404 q 436 393 433 401 q 435 383 435 390 q 436 375 439 378 q 439 367 442 372 q 438 354 435 361 q 438 338 440 349 q 436 331 438 332 q 444 319 444 326 l 444 308 q 446 296 444 300 q 449 293 449 293 q 450 289 449 290 q 450 274 453 282 q 450 261 449 265 q 454 254 453 256 q 458 246 458 250 q 460 241 460 243 q 461 236 460 239 q 460 226 461 231 l 464 215 l 469 201 q 471 192 472 193 q 469 183 469 189 l 474 175 q 477 172 476 174 q 479 168 478 169 q 478 165 478 167 q 479 161 479 163 q 481 153 483 157 q 485 137 483 142 q 488 121 486 132 q 494 100 489 107 q 503 99 494 101 q 507 83 503 88 q 514 76 507 79 q 511 69 514 72 q 511 68 511 69 q 513 65 511 67 l 521 60 l 528 42 q 529 18 533 26 q 524 11 528 15 q 517 3 518 6 q 503 1 508 4 q 497 -1 500 0 q 489 -4 493 -3 q 482 -1 486 -1 q 474 0 475 -1 q 465 -1 469 -1 q 457 -1 461 -1 q 411 38 417 -1 q 414 46 411 43 q 419 53 415 49 q 425 58 425 56 q 426 68 429 63 l 426 72 q 429 83 426 75 q 438 101 436 94 q 433 113 433 106 q 436 125 433 117 q 439 132 436 129 l 435 136 q 432 148 435 143 q 435 160 429 153 q 429 165 429 160 q 428 171 429 168 q 426 176 428 174 q 428 189 428 178 q 431 203 428 200 q 422 221 426 207 q 414 238 418 236 q 406 237 411 238 q 394 235 401 236 q 376 229 378 231 q 360 224 368 226 q 344 219 351 222 q 329 215 338 217 q 311 211 321 214 q 274 207 293 207 l 197 207 q 188 208 194 207 q 172 208 182 208 q 158 211 163 211 q 151 211 153 211 q 115 176 129 200 q 99 153 108 163 q 83 133 90 143 l 71 117 l 63 104 l 58 99 q 39 78 43 90 q 35 63 36 71 q 32 49 33 56 l 28 18 q 14 -10 26 4 q -7 -21 6 -18 l -32 -21 m 354 243 q 365 243 360 243 q 375 244 369 243 q 387 244 382 244 q 397 246 392 244 q 406 247 403 247 q 410 247 408 247 q 415 251 413 250 q 417 256 415 254 q 419 260 418 258 q 415 267 417 263 q 410 275 413 271 q 404 301 404 282 q 404 314 407 304 q 404 326 403 325 q 400 332 400 331 l 396 344 q 393 358 396 350 q 389 364 389 363 q 386 381 385 375 q 385 389 386 385 q 383 397 385 393 l 379 415 q 378 428 379 425 q 376 439 376 431 q 351 486 372 465 l 350 486 q 336 475 344 481 q 322 464 328 469 l 314 450 l 306 433 q 299 425 303 429 q 290 417 294 421 q 274 396 281 407 q 276 386 272 390 l 264 372 l 250 358 q 248 351 249 354 q 247 346 247 349 q 238 339 244 342 q 228 331 229 336 l 224 322 q 222 317 222 321 q 218 311 221 314 l 214 307 q 213 307 214 307 q 211 306 213 307 q 210 300 211 303 q 208 299 208 300 q 207 296 208 297 q 200 292 204 296 l 183 275 l 178 265 q 179 261 176 261 q 201 250 185 253 q 221 250 218 247 l 231 256 q 238 256 233 256 q 244 254 242 256 q 263 250 251 251 q 276 249 269 249 q 289 247 282 249 q 303 246 296 246 q 317 246 311 246 q 339 247 333 246 q 341 247 340 247 q 342 246 342 246 q 343 243 342 243 l 354 243 m 340 686 q 349 696 340 694 q 361 703 358 699 q 370 710 368 707 q 374 714 372 713 q 378 716 378 715 q 381 717 379 717 q 388 722 383 719 q 396 725 393 724 q 401 733 399 729 q 407 738 404 736 l 422 753 q 438 761 426 757 q 450 767 449 765 q 460 777 457 774 q 478 779 463 781 l 479 779 q 492 776 486 779 q 504 771 499 774 q 518 767 513 768 q 528 765 524 767 q 540 761 536 764 q 540 758 546 758 q 536 758 539 761 q 526 753 531 753 l 519 751 q 517 749 518 751 q 513 746 515 747 l 501 743 l 489 736 q 485 736 485 736 l 481 732 q 471 729 475 729 q 469 728 469 729 q 467 726 469 728 q 463 726 465 729 q 460 725 461 725 q 458 725 458 725 q 451 723 454 724 q 444 721 447 722 q 440 717 443 719 q 422 710 436 715 q 408 706 417 710 q 399 703 403 706 q 389 699 394 700 q 378 694 383 697 q 368 690 374 692 q 343 686 350 686 l 340 686 z "},"Ă":{"ha":588,"x_min":-74,"x_max":569,"o":"m -32 -21 q -37 -21 -33 -21 q -47 -19 -40 -21 q -64 -18 -61 -19 q -69 -7 -74 -12 q -67 1 -69 -3 q -64 10 -65 6 q -51 26 -57 21 q -46 34 -49 31 q -42 39 -43 38 q -28 47 -36 40 q -19 57 -25 51 l -11 69 q 6 78 1 72 l 15 89 q 25 99 21 93 l 32 113 q 38 115 35 114 q 44 119 40 117 q 46 128 47 122 q 50 138 46 133 q 65 156 57 147 q 81 172 72 165 q 113 207 99 186 l 119 218 q 126 226 122 222 q 131 233 129 232 q 132 240 131 239 q 140 250 133 246 q 153 260 144 254 q 169 289 164 275 q 176 303 172 296 q 186 318 181 311 q 201 333 193 326 q 204 343 204 339 q 211 350 207 347 q 218 357 215 353 q 224 372 221 368 q 233 385 228 376 q 243 399 238 393 q 260 424 254 411 q 266 437 263 431 q 275 450 269 443 q 283 457 279 454 q 285 461 285 460 q 286 464 285 463 q 288 471 286 468 q 296 482 292 476 q 304 494 300 488 q 317 519 313 510 q 331 550 324 531 q 332 556 332 553 q 333 561 332 560 q 335 572 333 568 q 343 585 338 579 q 354 596 349 590 q 376 613 368 608 l 390 625 q 404 631 399 631 q 417 618 419 631 q 415 599 413 610 q 422 594 417 597 q 419 588 419 583 q 420 576 419 582 q 422 565 421 571 q 424 558 422 561 q 425 551 425 556 q 426 540 426 547 q 429 531 426 539 q 431 517 432 522 q 431 503 428 510 q 431 493 432 497 q 429 485 428 486 q 428 472 431 478 q 426 464 426 469 q 428 449 426 456 q 429 440 429 443 q 432 431 429 433 q 433 422 432 426 q 433 414 436 417 q 435 403 436 404 q 436 393 433 401 q 435 383 435 390 q 436 375 439 378 q 439 367 442 372 q 438 354 435 361 q 438 338 440 349 q 436 331 438 332 q 444 319 444 326 l 444 308 q 446 296 444 300 q 449 293 449 293 q 450 289 449 290 q 450 274 453 282 q 450 261 449 265 q 454 254 453 256 q 458 246 458 250 q 460 241 460 243 q 461 236 460 239 q 460 226 461 231 l 464 215 l 469 201 q 471 192 472 193 q 469 183 469 189 l 474 175 q 477 172 476 174 q 479 168 478 169 q 478 165 478 167 q 479 161 479 163 q 481 153 483 157 q 485 137 483 142 q 488 121 486 132 q 494 100 489 107 q 503 99 494 101 q 507 83 503 88 q 514 76 507 79 q 511 69 514 72 q 511 68 511 69 q 513 65 511 67 l 521 60 l 528 42 q 529 18 533 26 q 524 11 528 15 q 517 3 518 6 q 503 1 508 4 q 497 -1 500 0 q 489 -4 493 -3 q 482 -1 486 -1 q 474 0 475 -1 q 465 -1 469 -1 q 457 -1 461 -1 q 411 38 417 -1 q 414 46 411 43 q 419 53 415 49 q 425 58 425 56 q 426 68 429 63 l 426 72 q 429 83 426 75 q 438 101 436 94 q 433 113 433 106 q 436 125 433 117 q 439 132 436 129 l 435 136 q 432 148 435 143 q 435 160 429 153 q 429 165 429 160 q 428 171 429 168 q 426 176 428 174 q 428 189 428 178 q 431 203 428 200 q 422 221 426 207 q 414 238 418 236 q 406 237 411 238 q 394 235 401 236 q 376 229 378 231 q 360 224 368 226 q 344 219 351 222 q 329 215 338 217 q 311 211 321 214 q 274 207 293 207 l 197 207 q 188 208 194 207 q 172 208 182 208 q 158 211 163 211 q 151 211 153 211 q 115 176 129 200 q 99 153 108 163 q 83 133 90 143 l 71 117 l 63 104 l 58 99 q 39 78 43 90 q 35 63 36 71 q 32 49 33 56 l 28 18 q 14 -10 26 4 q -7 -21 6 -18 l -32 -21 m 354 243 q 365 243 360 243 q 375 244 369 243 q 387 244 382 244 q 397 246 392 244 q 406 247 403 247 q 410 247 408 247 q 415 251 413 250 q 417 256 415 254 q 419 260 418 258 q 415 267 417 263 q 410 275 413 271 q 404 301 404 282 q 404 314 407 304 q 404 326 403 325 q 400 332 400 331 l 396 344 q 393 358 396 350 q 389 364 389 363 q 386 381 385 375 q 385 389 386 385 q 383 397 385 393 l 379 415 q 378 428 379 425 q 376 439 376 431 q 351 486 372 465 l 350 486 q 336 475 344 481 q 322 464 328 469 l 314 450 l 306 433 q 299 425 303 429 q 290 417 294 421 q 274 396 281 407 q 276 386 272 390 l 264 372 l 250 358 q 248 351 249 354 q 247 346 247 349 q 238 339 244 342 q 228 331 229 336 l 224 322 q 222 317 222 321 q 218 311 221 314 l 214 307 q 213 307 214 307 q 211 306 213 307 q 210 300 211 303 q 208 299 208 300 q 207 296 208 297 q 200 292 204 296 l 183 275 l 178 265 q 179 261 176 261 q 201 250 185 253 q 221 250 218 247 l 231 256 q 238 256 233 256 q 244 254 242 256 q 263 250 251 251 q 276 249 269 249 q 289 247 282 249 q 303 246 296 246 q 317 246 311 246 q 339 247 333 246 q 341 247 340 247 q 342 246 342 246 q 343 243 342 243 l 354 243 m 393 686 q 375 690 383 686 q 353 702 364 699 q 336 715 342 706 q 331 723 333 721 q 324 728 328 725 q 322 732 324 731 q 321 733 321 733 q 320 735 321 735 q 319 736 319 736 q 319 742 319 735 q 318 746 319 749 q 317 753 317 747 q 315 761 315 756 q 328 790 315 783 q 343 799 342 796 q 349 799 346 799 q 354 797 353 800 q 358 789 358 796 q 358 770 358 778 q 360 760 358 763 q 369 747 365 751 l 382 732 q 390 730 383 732 q 396 726 396 728 q 400 725 396 725 l 413 724 q 419 723 415 722 q 429 722 424 724 q 435 722 432 721 q 440 724 439 724 l 454 726 l 471 729 l 494 735 q 517 743 513 739 q 521 748 519 744 q 528 754 522 751 q 533 758 528 756 q 539 767 539 764 q 544 772 542 769 q 547 775 546 774 q 552 790 549 782 q 558 799 556 797 q 567 794 569 799 q 565 790 565 790 q 557 767 565 779 l 550 757 q 536 738 547 753 q 522 721 525 724 q 510 713 518 715 q 497 707 501 711 q 486 702 496 707 q 469 696 476 697 q 460 692 463 694 q 454 690 458 690 q 435 686 446 686 l 414 686 q 413 687 413 686 q 408 688 413 688 q 403 687 407 688 q 393 686 399 686 z "},"Ắ":{"ha":588,"x_min":-74,"x_max":586,"o":"m -32 -21 q -37 -21 -33 -21 q -47 -19 -40 -21 q -64 -18 -61 -19 q -69 -7 -74 -12 q -67 1 -69 -3 q -64 10 -65 6 q -51 26 -57 21 q -46 34 -49 31 q -42 39 -43 38 q -28 47 -36 40 q -19 57 -25 51 l -11 69 q 6 78 1 72 l 15 89 q 25 99 21 93 l 32 113 q 38 115 35 114 q 44 119 40 117 q 46 128 47 122 q 50 138 46 133 q 65 156 57 147 q 81 172 72 165 q 113 207 99 186 l 119 218 q 126 226 122 222 q 131 233 129 232 q 132 240 131 239 q 140 250 133 246 q 153 260 144 254 q 169 289 164 275 q 176 303 172 296 q 186 318 181 311 q 201 333 193 326 q 204 343 204 339 q 211 350 207 347 q 218 357 215 353 q 224 372 221 368 q 233 385 228 376 q 243 399 238 393 q 260 424 254 411 q 266 437 263 431 q 275 450 269 443 q 283 457 279 454 q 285 461 285 460 q 286 464 285 463 q 288 471 286 468 q 296 482 292 476 q 304 494 300 488 q 317 519 313 510 q 331 550 324 531 q 332 556 332 553 q 333 561 332 560 q 335 572 333 568 q 343 585 338 579 q 354 596 349 590 q 376 613 368 608 l 390 625 q 404 631 399 631 q 417 618 419 631 q 415 599 413 610 q 422 594 417 597 q 419 588 419 583 q 420 576 419 582 q 422 565 421 571 q 424 558 422 561 q 425 551 425 556 q 426 540 426 547 q 429 531 426 539 q 431 517 432 522 q 431 503 428 510 q 431 493 432 497 q 429 485 428 486 q 428 472 431 478 q 426 464 426 469 q 428 449 426 456 q 429 440 429 443 q 432 431 429 433 q 433 422 432 426 q 433 414 436 417 q 435 403 436 404 q 436 393 433 401 q 435 383 435 390 q 436 375 439 378 q 439 367 442 372 q 438 354 435 361 q 438 338 440 349 q 436 331 438 332 q 444 319 444 326 l 444 308 q 446 296 444 300 q 449 293 449 293 q 450 289 449 290 q 450 274 453 282 q 450 261 449 265 q 454 254 453 256 q 458 246 458 250 q 460 241 460 243 q 461 236 460 239 q 460 226 461 231 l 464 215 l 469 201 q 471 192 472 193 q 469 183 469 189 l 474 175 q 477 172 476 174 q 479 168 478 169 q 478 165 478 167 q 479 161 479 163 q 481 153 483 157 q 485 137 483 142 q 488 121 486 132 q 494 100 489 107 q 503 99 494 101 q 507 83 503 88 q 514 76 507 79 q 511 69 514 72 q 511 68 511 69 q 513 65 511 67 l 521 60 l 528 42 q 529 18 533 26 q 524 11 528 15 q 517 3 518 6 q 503 1 508 4 q 497 -1 500 0 q 489 -4 493 -3 q 482 -1 486 -1 q 474 0 475 -1 q 465 -1 469 -1 q 457 -1 461 -1 q 411 38 417 -1 q 414 46 411 43 q 419 53 415 49 q 425 58 425 56 q 426 68 429 63 l 426 72 q 429 83 426 75 q 438 101 436 94 q 433 113 433 106 q 436 125 433 117 q 439 132 436 129 l 435 136 q 432 148 435 143 q 435 160 429 153 q 429 165 429 160 q 428 171 429 168 q 426 176 428 174 q 428 189 428 178 q 431 203 428 200 q 422 221 426 207 q 414 238 418 236 q 406 237 411 238 q 394 235 401 236 q 376 229 378 231 q 360 224 368 226 q 344 219 351 222 q 329 215 338 217 q 311 211 321 214 q 274 207 293 207 l 197 207 q 188 208 194 207 q 172 208 182 208 q 158 211 163 211 q 151 211 153 211 q 115 176 129 200 q 99 153 108 163 q 83 133 90 143 l 71 117 l 63 104 l 58 99 q 39 78 43 90 q 35 63 36 71 q 32 49 33 56 l 28 18 q 14 -10 26 4 q -7 -21 6 -18 l -32 -21 m 354 243 q 365 243 360 243 q 375 244 369 243 q 387 244 382 244 q 397 246 392 244 q 406 247 403 247 q 410 247 408 247 q 415 251 413 250 q 417 256 415 254 q 419 260 418 258 q 415 267 417 263 q 410 275 413 271 q 404 301 404 282 q 404 314 407 304 q 404 326 403 325 q 400 332 400 331 l 396 344 q 393 358 396 350 q 389 364 389 363 q 386 381 385 375 q 385 389 386 385 q 383 397 385 393 l 379 415 q 378 428 379 425 q 376 439 376 431 q 351 486 372 465 l 350 486 q 336 475 344 481 q 322 464 328 469 l 314 450 l 306 433 q 299 425 303 429 q 290 417 294 421 q 274 396 281 407 q 276 386 272 390 l 264 372 l 250 358 q 248 351 249 354 q 247 346 247 349 q 238 339 244 342 q 228 331 229 336 l 224 322 q 222 317 222 321 q 218 311 221 314 l 214 307 q 213 307 214 307 q 211 306 213 307 q 210 300 211 303 q 208 299 208 300 q 207 296 208 297 q 200 292 204 296 l 183 275 l 178 265 q 179 261 176 261 q 201 250 185 253 q 221 250 218 247 l 231 256 q 238 256 233 256 q 244 254 242 256 q 263 250 251 251 q 276 249 269 249 q 289 247 282 249 q 303 246 296 246 q 317 246 311 246 q 339 247 333 246 q 341 247 340 247 q 342 246 342 246 q 343 243 342 243 l 354 243 m 393 686 q 375 690 383 686 q 353 702 364 699 q 336 715 342 706 q 331 723 333 721 q 324 728 328 725 q 322 732 324 731 q 321 733 321 733 q 320 735 321 735 q 319 736 319 736 q 319 742 319 735 q 318 746 319 749 q 317 753 317 747 q 315 761 315 756 q 328 790 315 783 q 343 799 342 796 q 349 799 346 799 q 354 797 353 800 q 358 789 358 796 q 358 770 358 778 q 360 760 358 763 q 369 747 365 751 l 382 732 q 390 730 383 732 q 396 726 396 728 q 400 725 396 725 l 413 724 q 419 723 415 722 q 429 722 424 724 q 435 722 432 721 q 440 724 439 724 l 454 726 l 471 729 l 494 735 q 517 743 513 739 q 521 748 519 744 q 528 754 522 751 q 533 758 528 756 q 539 767 539 764 q 544 772 542 769 q 547 775 546 774 q 552 790 549 782 q 558 799 556 797 q 567 794 569 799 q 565 790 565 790 q 557 767 565 779 l 550 757 q 536 738 547 753 q 522 721 525 724 q 510 713 518 715 q 497 707 501 711 q 486 702 496 707 q 469 696 476 697 q 460 692 463 694 q 454 690 458 690 q 435 686 446 686 l 414 686 q 413 687 413 686 q 408 688 413 688 q 403 687 407 688 q 393 686 399 686 m 381 826 q 389 836 381 835 q 401 843 399 839 q 410 850 408 847 q 414 854 413 853 q 419 856 418 856 q 421 857 419 857 q 428 862 424 860 q 436 865 433 864 q 442 873 439 869 q 447 878 444 876 l 463 893 q 478 901 467 897 q 490 907 489 906 q 500 917 497 914 q 518 919 503 921 l 519 919 q 533 917 526 919 q 544 911 539 914 q 558 908 553 908 q 568 906 564 907 q 581 901 576 904 q 581 899 586 899 q 576 899 579 901 q 567 893 571 893 l 560 892 q 557 890 558 892 q 553 886 556 888 l 542 883 l 529 876 q 525 876 525 876 l 521 872 q 511 869 515 869 q 510 869 510 869 q 507 867 510 868 q 503 867 506 869 q 500 865 501 865 q 499 865 499 865 q 491 863 494 864 q 485 861 488 863 q 480 858 483 860 q 463 850 476 856 q 449 846 457 850 q 439 843 443 846 q 429 839 435 840 q 419 835 424 838 q 408 831 414 832 q 383 826 390 826 l 381 826 z "},"Ặ":{"ha":588,"x_min":-74,"x_max":569,"o":"m -32 -21 q -37 -21 -33 -21 q -47 -19 -40 -21 q -64 -18 -61 -19 q -69 -7 -74 -12 q -67 1 -69 -3 q -64 10 -65 6 q -51 26 -57 21 q -46 34 -49 31 q -42 39 -43 38 q -28 47 -36 40 q -19 57 -25 51 l -11 69 q 6 78 1 72 l 15 89 q 25 99 21 93 l 32 113 q 38 115 35 114 q 44 119 40 117 q 46 128 47 122 q 50 138 46 133 q 65 156 57 147 q 81 172 72 165 q 113 207 99 186 l 119 218 q 126 226 122 222 q 131 233 129 232 q 132 240 131 239 q 140 250 133 246 q 153 260 144 254 q 169 289 164 275 q 176 303 172 296 q 186 318 181 311 q 201 333 193 326 q 204 343 204 339 q 211 350 207 347 q 218 357 215 353 q 224 372 221 368 q 233 385 228 376 q 243 399 238 393 q 260 424 254 411 q 266 437 263 431 q 275 450 269 443 q 283 457 279 454 q 285 461 285 460 q 286 464 285 463 q 288 471 286 468 q 296 482 292 476 q 304 494 300 488 q 317 519 313 510 q 331 550 324 531 q 332 556 332 553 q 333 561 332 560 q 335 572 333 568 q 343 585 338 579 q 354 596 349 590 q 376 613 368 608 l 390 625 q 404 631 399 631 q 417 618 419 631 q 415 599 413 610 q 422 594 417 597 q 419 588 419 583 q 420 576 419 582 q 422 565 421 571 q 424 558 422 561 q 425 551 425 556 q 426 540 426 547 q 429 531 426 539 q 431 517 432 522 q 431 503 428 510 q 431 493 432 497 q 429 485 428 486 q 428 472 431 478 q 426 464 426 469 q 428 449 426 456 q 429 440 429 443 q 432 431 429 433 q 433 422 432 426 q 433 414 436 417 q 435 403 436 404 q 436 393 433 401 q 435 383 435 390 q 436 375 439 378 q 439 367 442 372 q 438 354 435 361 q 438 338 440 349 q 436 331 438 332 q 444 319 444 326 l 444 308 q 446 296 444 300 q 449 293 449 293 q 450 289 449 290 q 450 274 453 282 q 450 261 449 265 q 454 254 453 256 q 458 246 458 250 q 460 241 460 243 q 461 236 460 239 q 460 226 461 231 l 464 215 l 469 201 q 471 192 472 193 q 469 183 469 189 l 474 175 q 477 172 476 174 q 479 168 478 169 q 478 165 478 167 q 479 161 479 163 q 481 153 483 157 q 485 137 483 142 q 488 121 486 132 q 494 100 489 107 q 503 99 494 101 q 507 83 503 88 q 514 76 507 79 q 511 69 514 72 q 511 68 511 69 q 513 65 511 67 l 521 60 l 528 42 q 529 18 533 26 q 524 11 528 15 q 517 3 518 6 q 503 1 508 4 q 497 -1 500 0 q 489 -4 493 -3 q 482 -1 486 -1 q 474 0 475 -1 q 465 -1 469 -1 q 457 -1 461 -1 q 411 38 417 -1 q 414 46 411 43 q 419 53 415 49 q 425 58 425 56 q 426 68 429 63 l 426 72 q 429 83 426 75 q 438 101 436 94 q 433 113 433 106 q 436 125 433 117 q 439 132 436 129 l 435 136 q 432 148 435 143 q 435 160 429 153 q 429 165 429 160 q 428 171 429 168 q 426 176 428 174 q 428 189 428 178 q 431 203 428 200 q 422 221 426 207 q 414 238 418 236 q 406 237 411 238 q 394 235 401 236 q 376 229 378 231 q 360 224 368 226 q 344 219 351 222 q 329 215 338 217 q 311 211 321 214 q 274 207 293 207 l 197 207 q 188 208 194 207 q 172 208 182 208 q 158 211 163 211 q 151 211 153 211 q 115 176 129 200 q 99 153 108 163 q 83 133 90 143 l 71 117 l 63 104 l 58 99 q 39 78 43 90 q 35 63 36 71 q 32 49 33 56 l 28 18 q 14 -10 26 4 q -7 -21 6 -18 l -32 -21 m 354 243 q 365 243 360 243 q 375 244 369 243 q 387 244 382 244 q 397 246 392 244 q 406 247 403 247 q 410 247 408 247 q 415 251 413 250 q 417 256 415 254 q 419 260 418 258 q 415 267 417 263 q 410 275 413 271 q 404 301 404 282 q 404 314 407 304 q 404 326 403 325 q 400 332 400 331 l 396 344 q 393 358 396 350 q 389 364 389 363 q 386 381 385 375 q 385 389 386 385 q 383 397 385 393 l 379 415 q 378 428 379 425 q 376 439 376 431 q 351 486 372 465 l 350 486 q 336 475 344 481 q 322 464 328 469 l 314 450 l 306 433 q 299 425 303 429 q 290 417 294 421 q 274 396 281 407 q 276 386 272 390 l 264 372 l 250 358 q 248 351 249 354 q 247 346 247 349 q 238 339 244 342 q 228 331 229 336 l 224 322 q 222 317 222 321 q 218 311 221 314 l 214 307 q 213 307 214 307 q 211 306 213 307 q 210 300 211 303 q 208 299 208 300 q 207 296 208 297 q 200 292 204 296 l 183 275 l 178 265 q 179 261 176 261 q 201 250 185 253 q 221 250 218 247 l 231 256 q 238 256 233 256 q 244 254 242 256 q 263 250 251 251 q 276 249 269 249 q 289 247 282 249 q 303 246 296 246 q 317 246 311 246 q 339 247 333 246 q 341 247 340 247 q 342 246 342 246 q 343 243 342 243 l 354 243 m 214 -125 q 193 -111 193 -125 q 192 -100 190 -106 l 194 -85 q 200 -76 197 -81 q 208 -69 203 -71 q 222 -67 217 -68 q 233 -67 228 -67 q 244 -69 242 -67 q 256 -90 254 -83 q 256 -104 258 -101 q 240 -122 249 -121 l 228 -125 l 214 -125 m 393 686 q 375 690 383 686 q 353 702 364 699 q 336 715 342 706 q 331 723 333 721 q 324 728 328 725 q 322 732 324 731 q 321 733 321 733 q 320 735 321 735 q 319 736 319 736 q 319 742 319 735 q 318 746 319 749 q 317 753 317 747 q 315 761 315 756 q 328 790 315 783 q 343 799 342 796 q 349 799 346 799 q 354 797 353 800 q 358 789 358 796 q 358 770 358 778 q 360 760 358 763 q 369 747 365 751 l 382 732 q 390 730 383 732 q 396 726 396 728 q 400 725 396 725 l 413 724 q 419 723 415 722 q 429 722 424 724 q 435 722 432 721 q 440 724 439 724 l 454 726 l 471 729 l 494 735 q 517 743 513 739 q 521 748 519 744 q 528 754 522 751 q 533 758 528 756 q 539 767 539 764 q 544 772 542 769 q 547 775 546 774 q 552 790 549 782 q 558 799 556 797 q 567 794 569 799 q 565 790 565 790 q 557 767 565 779 l 550 757 q 536 738 547 753 q 522 721 525 724 q 510 713 518 715 q 497 707 501 711 q 486 702 496 707 q 469 696 476 697 q 460 692 463 694 q 454 690 458 690 q 435 686 446 686 l 414 686 q 413 687 413 686 q 408 688 413 688 q 403 687 407 688 q 393 686 399 686 z "},"Ằ":{"ha":588,"x_min":-74,"x_max":569,"o":"m -32 -21 q -37 -21 -33 -21 q -47 -19 -40 -21 q -64 -18 -61 -19 q -69 -7 -74 -12 q -67 1 -69 -3 q -64 10 -65 6 q -51 26 -57 21 q -46 34 -49 31 q -42 39 -43 38 q -28 47 -36 40 q -19 57 -25 51 l -11 69 q 6 78 1 72 l 15 89 q 25 99 21 93 l 32 113 q 38 115 35 114 q 44 119 40 117 q 46 128 47 122 q 50 138 46 133 q 65 156 57 147 q 81 172 72 165 q 113 207 99 186 l 119 218 q 126 226 122 222 q 131 233 129 232 q 132 240 131 239 q 140 250 133 246 q 153 260 144 254 q 169 289 164 275 q 176 303 172 296 q 186 318 181 311 q 201 333 193 326 q 204 343 204 339 q 211 350 207 347 q 218 357 215 353 q 224 372 221 368 q 233 385 228 376 q 243 399 238 393 q 260 424 254 411 q 266 437 263 431 q 275 450 269 443 q 283 457 279 454 q 285 461 285 460 q 286 464 285 463 q 288 471 286 468 q 296 482 292 476 q 304 494 300 488 q 317 519 313 510 q 331 550 324 531 q 332 556 332 553 q 333 561 332 560 q 335 572 333 568 q 343 585 338 579 q 354 596 349 590 q 376 613 368 608 l 390 625 q 404 631 399 631 q 417 618 419 631 q 415 599 413 610 q 422 594 417 597 q 419 588 419 583 q 420 576 419 582 q 422 565 421 571 q 424 558 422 561 q 425 551 425 556 q 426 540 426 547 q 429 531 426 539 q 431 517 432 522 q 431 503 428 510 q 431 493 432 497 q 429 485 428 486 q 428 472 431 478 q 426 464 426 469 q 428 449 426 456 q 429 440 429 443 q 432 431 429 433 q 433 422 432 426 q 433 414 436 417 q 435 403 436 404 q 436 393 433 401 q 435 383 435 390 q 436 375 439 378 q 439 367 442 372 q 438 354 435 361 q 438 338 440 349 q 436 331 438 332 q 444 319 444 326 l 444 308 q 446 296 444 300 q 449 293 449 293 q 450 289 449 290 q 450 274 453 282 q 450 261 449 265 q 454 254 453 256 q 458 246 458 250 q 460 241 460 243 q 461 236 460 239 q 460 226 461 231 l 464 215 l 469 201 q 471 192 472 193 q 469 183 469 189 l 474 175 q 477 172 476 174 q 479 168 478 169 q 478 165 478 167 q 479 161 479 163 q 481 153 483 157 q 485 137 483 142 q 488 121 486 132 q 494 100 489 107 q 503 99 494 101 q 507 83 503 88 q 514 76 507 79 q 511 69 514 72 q 511 68 511 69 q 513 65 511 67 l 521 60 l 528 42 q 529 18 533 26 q 524 11 528 15 q 517 3 518 6 q 503 1 508 4 q 497 -1 500 0 q 489 -4 493 -3 q 482 -1 486 -1 q 474 0 475 -1 q 465 -1 469 -1 q 457 -1 461 -1 q 411 38 417 -1 q 414 46 411 43 q 419 53 415 49 q 425 58 425 56 q 426 68 429 63 l 426 72 q 429 83 426 75 q 438 101 436 94 q 433 113 433 106 q 436 125 433 117 q 439 132 436 129 l 435 136 q 432 148 435 143 q 435 160 429 153 q 429 165 429 160 q 428 171 429 168 q 426 176 428 174 q 428 189 428 178 q 431 203 428 200 q 422 221 426 207 q 414 238 418 236 q 406 237 411 238 q 394 235 401 236 q 376 229 378 231 q 360 224 368 226 q 344 219 351 222 q 329 215 338 217 q 311 211 321 214 q 274 207 293 207 l 197 207 q 188 208 194 207 q 172 208 182 208 q 158 211 163 211 q 151 211 153 211 q 115 176 129 200 q 99 153 108 163 q 83 133 90 143 l 71 117 l 63 104 l 58 99 q 39 78 43 90 q 35 63 36 71 q 32 49 33 56 l 28 18 q 14 -10 26 4 q -7 -21 6 -18 l -32 -21 m 354 243 q 365 243 360 243 q 375 244 369 243 q 387 244 382 244 q 397 246 392 244 q 406 247 403 247 q 410 247 408 247 q 415 251 413 250 q 417 256 415 254 q 419 260 418 258 q 415 267 417 263 q 410 275 413 271 q 404 301 404 282 q 404 314 407 304 q 404 326 403 325 q 400 332 400 331 l 396 344 q 393 358 396 350 q 389 364 389 363 q 386 381 385 375 q 385 389 386 385 q 383 397 385 393 l 379 415 q 378 428 379 425 q 376 439 376 431 q 351 486 372 465 l 350 486 q 336 475 344 481 q 322 464 328 469 l 314 450 l 306 433 q 299 425 303 429 q 290 417 294 421 q 274 396 281 407 q 276 386 272 390 l 264 372 l 250 358 q 248 351 249 354 q 247 346 247 349 q 238 339 244 342 q 228 331 229 336 l 224 322 q 222 317 222 321 q 218 311 221 314 l 214 307 q 213 307 214 307 q 211 306 213 307 q 210 300 211 303 q 208 299 208 300 q 207 296 208 297 q 200 292 204 296 l 183 275 l 178 265 q 179 261 176 261 q 201 250 185 253 q 221 250 218 247 l 231 256 q 238 256 233 256 q 244 254 242 256 q 263 250 251 251 q 276 249 269 249 q 289 247 282 249 q 303 246 296 246 q 317 246 311 246 q 339 247 333 246 q 341 247 340 247 q 342 246 342 246 q 343 243 342 243 l 354 243 m 393 686 q 375 690 383 686 q 353 702 364 699 q 336 715 342 706 q 331 723 333 721 q 324 728 328 725 q 322 732 324 731 q 321 733 321 733 q 320 735 321 735 q 319 736 319 736 q 319 742 319 735 q 318 746 319 749 q 317 753 317 747 q 315 761 315 756 q 328 790 315 783 q 343 799 342 796 q 349 799 346 799 q 354 797 353 800 q 358 789 358 796 q 358 770 358 778 q 360 760 358 763 q 369 747 365 751 l 382 732 q 390 730 383 732 q 396 726 396 728 q 400 725 396 725 l 413 724 q 419 723 415 722 q 429 722 424 724 q 435 722 432 721 q 440 724 439 724 l 454 726 l 471 729 l 494 735 q 517 743 513 739 q 521 748 519 744 q 528 754 522 751 q 533 758 528 756 q 539 767 539 764 q 544 772 542 769 q 547 775 546 774 q 552 790 549 782 q 558 799 556 797 q 567 794 569 799 q 565 790 565 790 q 557 767 565 779 l 550 757 q 536 738 547 753 q 522 721 525 724 q 510 713 518 715 q 497 707 501 711 q 486 702 496 707 q 469 696 476 697 q 460 692 463 694 q 454 690 458 690 q 435 686 446 686 l 414 686 q 413 687 413 686 q 408 688 413 688 q 403 687 407 688 q 393 686 399 686 m 511 826 q 486 831 506 826 q 476 835 481 832 q 465 839 472 838 q 456 843 460 840 q 446 846 451 846 q 432 850 438 850 q 415 858 418 856 q 410 861 413 860 q 403 863 407 863 q 396 865 400 864 q 394 865 396 865 q 392 867 393 865 q 388 867 390 869 q 386 869 386 868 q 383 869 386 869 q 374 872 379 869 l 369 876 q 365 876 369 876 l 353 883 l 342 886 q 339 890 340 888 q 335 892 338 892 l 328 893 q 318 899 324 893 q 314 899 317 901 q 314 901 308 899 q 326 906 318 904 q 336 908 331 907 q 350 911 342 908 q 363 917 356 914 q 375 919 369 919 q 394 917 392 919 q 404 907 397 914 q 417 901 407 906 q 432 893 428 897 l 447 878 q 453 873 450 876 q 458 865 456 869 q 466 862 461 864 q 474 857 471 860 q 476 856 475 857 q 481 854 476 856 q 485 850 483 853 q 493 843 488 847 q 506 836 496 839 q 514 826 514 835 l 511 826 z "},"Ẳ":{"ha":588,"x_min":-74,"x_max":579,"o":"m -32 -21 q -37 -21 -33 -21 q -47 -19 -40 -21 q -64 -18 -61 -19 q -69 -7 -74 -12 q -67 1 -69 -3 q -64 10 -65 6 q -51 26 -57 21 q -46 34 -49 31 q -42 39 -43 38 q -28 47 -36 40 q -19 57 -25 51 l -11 69 q 6 78 1 72 l 15 89 q 25 99 21 93 l 32 113 q 38 115 35 114 q 44 119 40 117 q 46 128 47 122 q 50 138 46 133 q 65 156 57 147 q 81 172 72 165 q 113 207 99 186 l 119 218 q 126 226 122 222 q 131 233 129 232 q 132 240 131 239 q 140 250 133 246 q 153 260 144 254 q 169 289 164 275 q 176 303 172 296 q 186 318 181 311 q 201 333 193 326 q 204 343 204 339 q 211 350 207 347 q 218 357 215 353 q 224 372 221 368 q 233 385 228 376 q 243 399 238 393 q 260 424 254 411 q 266 437 263 431 q 275 450 269 443 q 283 457 279 454 q 285 461 285 460 q 286 464 285 463 q 288 471 286 468 q 296 482 292 476 q 304 494 300 488 q 317 519 313 510 q 331 550 324 531 q 332 556 332 553 q 333 561 332 560 q 335 572 333 568 q 343 585 338 579 q 354 596 349 590 q 376 613 368 608 l 390 625 q 404 631 399 631 q 417 618 419 631 q 415 599 413 610 q 422 594 417 597 q 419 588 419 583 q 420 576 419 582 q 422 565 421 571 q 424 558 422 561 q 425 551 425 556 q 426 540 426 547 q 429 531 426 539 q 431 517 432 522 q 431 503 428 510 q 431 493 432 497 q 429 485 428 486 q 428 472 431 478 q 426 464 426 469 q 428 449 426 456 q 429 440 429 443 q 432 431 429 433 q 433 422 432 426 q 433 414 436 417 q 435 403 436 404 q 436 393 433 401 q 435 383 435 390 q 436 375 439 378 q 439 367 442 372 q 438 354 435 361 q 438 338 440 349 q 436 331 438 332 q 444 319 444 326 l 444 308 q 446 296 444 300 q 449 293 449 293 q 450 289 449 290 q 450 274 453 282 q 450 261 449 265 q 454 254 453 256 q 458 246 458 250 q 460 241 460 243 q 461 236 460 239 q 460 226 461 231 l 464 215 l 469 201 q 471 192 472 193 q 469 183 469 189 l 474 175 q 477 172 476 174 q 479 168 478 169 q 478 165 478 167 q 479 161 479 163 q 481 153 483 157 q 485 137 483 142 q 488 121 486 132 q 494 100 489 107 q 503 99 494 101 q 507 83 503 88 q 514 76 507 79 q 511 69 514 72 q 511 68 511 69 q 513 65 511 67 l 521 60 l 528 42 q 529 18 533 26 q 524 11 528 15 q 517 3 518 6 q 503 1 508 4 q 497 -1 500 0 q 489 -4 493 -3 q 482 -1 486 -1 q 474 0 475 -1 q 465 -1 469 -1 q 457 -1 461 -1 q 411 38 417 -1 q 414 46 411 43 q 419 53 415 49 q 425 58 425 56 q 426 68 429 63 l 426 72 q 429 83 426 75 q 438 101 436 94 q 433 113 433 106 q 436 125 433 117 q 439 132 436 129 l 435 136 q 432 148 435 143 q 435 160 429 153 q 429 165 429 160 q 428 171 429 168 q 426 176 428 174 q 428 189 428 178 q 431 203 428 200 q 422 221 426 207 q 414 238 418 236 q 406 237 411 238 q 394 235 401 236 q 376 229 378 231 q 360 224 368 226 q 344 219 351 222 q 329 215 338 217 q 311 211 321 214 q 274 207 293 207 l 197 207 q 188 208 194 207 q 172 208 182 208 q 158 211 163 211 q 151 211 153 211 q 115 176 129 200 q 99 153 108 163 q 83 133 90 143 l 71 117 l 63 104 l 58 99 q 39 78 43 90 q 35 63 36 71 q 32 49 33 56 l 28 18 q 14 -10 26 4 q -7 -21 6 -18 l -32 -21 m 354 243 q 365 243 360 243 q 375 244 369 243 q 387 244 382 244 q 397 246 392 244 q 406 247 403 247 q 410 247 408 247 q 415 251 413 250 q 417 256 415 254 q 419 260 418 258 q 415 267 417 263 q 410 275 413 271 q 404 301 404 282 q 404 314 407 304 q 404 326 403 325 q 400 332 400 331 l 396 344 q 393 358 396 350 q 389 364 389 363 q 386 381 385 375 q 385 389 386 385 q 383 397 385 393 l 379 415 q 378 428 379 425 q 376 439 376 431 q 351 486 372 465 l 350 486 q 336 475 344 481 q 322 464 328 469 l 314 450 l 306 433 q 299 425 303 429 q 290 417 294 421 q 274 396 281 407 q 276 386 272 390 l 264 372 l 250 358 q 248 351 249 354 q 247 346 247 349 q 238 339 244 342 q 228 331 229 336 l 224 322 q 222 317 222 321 q 218 311 221 314 l 214 307 q 213 307 214 307 q 211 306 213 307 q 210 300 211 303 q 208 299 208 300 q 207 296 208 297 q 200 292 204 296 l 183 275 l 178 265 q 179 261 176 261 q 201 250 185 253 q 221 250 218 247 l 231 256 q 238 256 233 256 q 244 254 242 256 q 263 250 251 251 q 276 249 269 249 q 289 247 282 249 q 303 246 296 246 q 317 246 311 246 q 339 247 333 246 q 341 247 340 247 q 342 246 342 246 q 343 243 342 243 l 354 243 m 393 686 q 375 690 383 686 q 353 702 364 699 q 336 715 342 706 q 331 723 333 721 q 324 728 328 725 q 322 732 324 731 q 321 733 321 733 q 320 735 321 735 q 319 736 319 736 q 319 742 319 735 q 318 746 319 749 q 317 753 317 747 q 315 761 315 756 q 328 790 315 783 q 343 799 342 796 q 349 799 346 799 q 354 797 353 800 q 358 789 358 796 q 358 770 358 778 q 360 760 358 763 q 369 747 365 751 l 382 732 q 390 730 383 732 q 396 726 396 728 q 400 725 396 725 l 413 724 q 419 723 415 722 q 429 722 424 724 q 435 722 432 721 q 440 724 439 724 l 454 726 l 471 729 l 494 735 q 517 743 513 739 q 521 748 519 744 q 528 754 522 751 q 533 758 528 756 q 539 767 539 764 q 544 772 542 769 q 547 775 546 774 q 552 790 549 782 q 558 799 556 797 q 567 794 569 799 q 565 790 565 790 q 557 767 565 779 l 550 757 q 536 738 547 753 q 522 721 525 724 q 510 713 518 715 q 497 707 501 711 q 486 702 496 707 q 469 696 476 697 q 460 692 463 694 q 454 690 458 690 q 435 686 446 686 l 414 686 q 413 687 413 686 q 408 688 413 688 q 403 687 407 688 q 393 686 399 686 m 471 826 q 460 826 467 825 q 456 828 454 826 q 453 830 453 826 q 456 838 453 833 q 473 865 463 853 q 496 889 483 878 q 521 924 517 910 q 523 934 522 929 q 524 943 524 939 q 499 965 524 965 q 476 960 488 965 q 456 947 465 954 l 446 940 q 440 937 442 938 q 438 932 439 936 q 430 922 436 928 q 419 917 424 917 q 406 922 406 915 q 435 956 406 936 q 451 966 443 963 q 468 979 460 969 q 498 992 479 990 q 526 993 517 994 q 557 988 554 989 q 574 969 569 983 q 577 966 575 968 q 579 961 579 964 l 579 958 q 576 942 579 951 q 568 919 572 933 q 556 903 561 910 q 543 889 550 897 q 521 869 539 882 q 508 861 514 864 q 497 854 503 858 l 488 847 l 478 836 l 471 826 z "},"Ẵ":{"ha":588,"x_min":-74,"x_max":588,"o":"m -32 -21 q -37 -21 -33 -21 q -47 -19 -40 -21 q -64 -18 -61 -19 q -69 -7 -74 -12 q -67 1 -69 -3 q -64 10 -65 6 q -51 26 -57 21 q -46 34 -49 31 q -42 39 -43 38 q -28 47 -36 40 q -19 57 -25 51 l -11 69 q 6 78 1 72 l 15 89 q 25 99 21 93 l 32 113 q 38 115 35 114 q 44 119 40 117 q 46 128 47 122 q 50 138 46 133 q 65 156 57 147 q 81 172 72 165 q 113 207 99 186 l 119 218 q 126 226 122 222 q 131 233 129 232 q 132 240 131 239 q 140 250 133 246 q 153 260 144 254 q 169 289 164 275 q 176 303 172 296 q 186 318 181 311 q 201 333 193 326 q 204 343 204 339 q 211 350 207 347 q 218 357 215 353 q 224 372 221 368 q 233 385 228 376 q 243 399 238 393 q 260 424 254 411 q 266 437 263 431 q 275 450 269 443 q 283 457 279 454 q 285 461 285 460 q 286 464 285 463 q 288 471 286 468 q 296 482 292 476 q 304 494 300 488 q 317 519 313 510 q 331 550 324 531 q 332 556 332 553 q 333 561 332 560 q 335 572 333 568 q 343 585 338 579 q 354 596 349 590 q 376 613 368 608 l 390 625 q 404 631 399 631 q 417 618 419 631 q 415 599 413 610 q 422 594 417 597 q 419 588 419 583 q 420 576 419 582 q 422 565 421 571 q 424 558 422 561 q 425 551 425 556 q 426 540 426 547 q 429 531 426 539 q 431 517 432 522 q 431 503 428 510 q 431 493 432 497 q 429 485 428 486 q 428 472 431 478 q 426 464 426 469 q 428 449 426 456 q 429 440 429 443 q 432 431 429 433 q 433 422 432 426 q 433 414 436 417 q 435 403 436 404 q 436 393 433 401 q 435 383 435 390 q 436 375 439 378 q 439 367 442 372 q 438 354 435 361 q 438 338 440 349 q 436 331 438 332 q 444 319 444 326 l 444 308 q 446 296 444 300 q 449 293 449 293 q 450 289 449 290 q 450 274 453 282 q 450 261 449 265 q 454 254 453 256 q 458 246 458 250 q 460 241 460 243 q 461 236 460 239 q 460 226 461 231 l 464 215 l 469 201 q 471 192 472 193 q 469 183 469 189 l 474 175 q 477 172 476 174 q 479 168 478 169 q 478 165 478 167 q 479 161 479 163 q 481 153 483 157 q 485 137 483 142 q 488 121 486 132 q 494 100 489 107 q 503 99 494 101 q 507 83 503 88 q 514 76 507 79 q 511 69 514 72 q 511 68 511 69 q 513 65 511 67 l 521 60 l 528 42 q 529 18 533 26 q 524 11 528 15 q 517 3 518 6 q 503 1 508 4 q 497 -1 500 0 q 489 -4 493 -3 q 482 -1 486 -1 q 474 0 475 -1 q 465 -1 469 -1 q 457 -1 461 -1 q 411 38 417 -1 q 414 46 411 43 q 419 53 415 49 q 425 58 425 56 q 426 68 429 63 l 426 72 q 429 83 426 75 q 438 101 436 94 q 433 113 433 106 q 436 125 433 117 q 439 132 436 129 l 435 136 q 432 148 435 143 q 435 160 429 153 q 429 165 429 160 q 428 171 429 168 q 426 176 428 174 q 428 189 428 178 q 431 203 428 200 q 422 221 426 207 q 414 238 418 236 q 406 237 411 238 q 394 235 401 236 q 376 229 378 231 q 360 224 368 226 q 344 219 351 222 q 329 215 338 217 q 311 211 321 214 q 274 207 293 207 l 197 207 q 188 208 194 207 q 172 208 182 208 q 158 211 163 211 q 151 211 153 211 q 115 176 129 200 q 99 153 108 163 q 83 133 90 143 l 71 117 l 63 104 l 58 99 q 39 78 43 90 q 35 63 36 71 q 32 49 33 56 l 28 18 q 14 -10 26 4 q -7 -21 6 -18 l -32 -21 m 354 243 q 365 243 360 243 q 375 244 369 243 q 387 244 382 244 q 397 246 392 244 q 406 247 403 247 q 410 247 408 247 q 415 251 413 250 q 417 256 415 254 q 419 260 418 258 q 415 267 417 263 q 410 275 413 271 q 404 301 404 282 q 404 314 407 304 q 404 326 403 325 q 400 332 400 331 l 396 344 q 393 358 396 350 q 389 364 389 363 q 386 381 385 375 q 385 389 386 385 q 383 397 385 393 l 379 415 q 378 428 379 425 q 376 439 376 431 q 351 486 372 465 l 350 486 q 336 475 344 481 q 322 464 328 469 l 314 450 l 306 433 q 299 425 303 429 q 290 417 294 421 q 274 396 281 407 q 276 386 272 390 l 264 372 l 250 358 q 248 351 249 354 q 247 346 247 349 q 238 339 244 342 q 228 331 229 336 l 224 322 q 222 317 222 321 q 218 311 221 314 l 214 307 q 213 307 214 307 q 211 306 213 307 q 210 300 211 303 q 208 299 208 300 q 207 296 208 297 q 200 292 204 296 l 183 275 l 178 265 q 179 261 176 261 q 201 250 185 253 q 221 250 218 247 l 231 256 q 238 256 233 256 q 244 254 242 256 q 263 250 251 251 q 276 249 269 249 q 289 247 282 249 q 303 246 296 246 q 317 246 311 246 q 339 247 333 246 q 341 247 340 247 q 342 246 342 246 q 343 243 342 243 l 354 243 m 393 686 q 375 690 383 686 q 353 702 364 699 q 336 715 342 706 q 331 723 333 721 q 324 728 328 725 q 322 732 324 731 q 321 733 321 733 q 320 735 321 735 q 319 736 319 736 q 319 742 319 735 q 318 746 319 749 q 317 753 317 747 q 315 761 315 756 q 328 790 315 783 q 343 799 342 796 q 349 799 346 799 q 354 797 353 800 q 358 789 358 796 q 358 770 358 778 q 360 760 358 763 q 369 747 365 751 l 382 732 q 390 730 383 732 q 396 726 396 728 q 400 725 396 725 l 413 724 q 419 723 415 722 q 429 722 424 724 q 435 722 432 721 q 440 724 439 724 l 454 726 l 471 729 l 494 735 q 517 743 513 739 q 521 748 519 744 q 528 754 522 751 q 533 758 528 756 q 539 767 539 764 q 544 772 542 769 q 547 775 546 774 q 552 790 549 782 q 558 799 556 797 q 567 794 569 799 q 565 790 565 790 q 557 767 565 779 l 550 757 q 536 738 547 753 q 522 721 525 724 q 510 713 518 715 q 497 707 501 711 q 486 702 496 707 q 469 696 476 697 q 460 692 463 694 q 454 690 458 690 q 435 686 446 686 l 414 686 q 413 687 413 686 q 408 688 413 688 q 403 687 407 688 q 393 686 399 686 m 339 831 q 325 835 332 831 q 324 838 324 835 q 327 842 324 839 q 331 850 331 846 q 335 855 332 853 q 340 863 339 857 q 347 870 343 865 q 356 876 350 875 q 365 885 363 881 q 371 890 368 889 q 383 899 379 897 q 394 903 386 901 q 404 904 401 906 l 414 900 q 424 898 419 899 q 429 896 428 897 q 443 891 436 893 q 454 886 450 889 q 475 881 471 885 q 486 878 479 879 q 494 875 493 876 q 508 872 499 872 q 511 872 510 872 q 514 871 513 871 q 528 875 519 871 q 537 877 532 878 q 547 882 542 876 q 556 892 553 888 q 564 901 560 896 q 569 910 567 906 q 578 914 571 914 q 586 909 585 914 q 588 900 588 904 q 581 881 588 889 q 561 860 574 872 q 514 832 539 838 q 511 831 513 832 q 507 831 510 831 q 493 833 500 831 q 483 835 486 835 q 464 838 471 835 q 451 842 457 840 q 436 844 443 843 q 424 846 429 846 q 410 851 415 849 q 400 856 406 853 q 391 860 393 858 q 381 863 389 863 q 367 858 369 861 q 361 856 364 856 q 354 850 356 853 q 350 843 353 847 q 347 838 349 842 q 344 832 344 835 q 339 831 343 831 z "},"Ǎ":{"ha":588,"x_min":-74,"x_max":600,"o":"m 590 815 q 597 812 593 815 q 600 806 600 808 q 597 797 600 797 l 586 793 q 581 792 583 793 q 576 789 579 790 q 565 783 571 788 q 553 775 558 778 l 528 763 q 518 756 522 760 q 510 749 514 751 q 501 741 507 744 q 492 735 496 738 q 485 726 489 729 q 479 719 482 722 q 472 713 475 717 q 465 707 469 710 q 453 700 457 701 q 445 694 449 699 q 439 689 442 690 l 421 679 q 413 678 419 678 q 401 679 407 679 q 390 684 393 679 q 383 693 386 689 q 378 704 381 699 q 374 715 376 710 q 367 728 371 721 q 360 743 364 735 q 351 760 356 751 q 342 775 347 768 q 336 780 339 778 q 331 783 333 782 q 326 787 329 786 q 318 789 322 788 q 313 790 317 790 q 306 790 308 790 q 303 792 303 790 q 306 794 304 794 q 317 799 313 797 q 325 801 321 800 q 335 804 329 803 q 349 807 342 806 q 364 810 354 810 q 370 808 368 810 q 374 807 372 807 q 381 799 379 803 q 389 790 383 793 q 396 776 393 786 q 404 757 397 765 q 409 750 407 754 q 413 742 411 746 q 414 735 413 739 q 417 728 415 731 q 424 715 419 715 q 431 717 428 714 l 436 725 q 442 730 439 728 q 450 735 446 732 q 457 742 453 738 q 467 746 461 746 q 472 749 471 746 q 474 753 472 751 l 481 757 q 490 763 485 757 q 505 771 497 767 q 519 781 513 775 q 551 800 533 792 q 571 810 557 806 q 590 815 582 815 m -32 -21 q -37 -21 -33 -21 q -47 -19 -40 -21 q -64 -18 -61 -19 q -69 -7 -74 -12 q -67 1 -69 -3 q -64 10 -65 6 q -51 26 -57 21 q -46 34 -49 31 q -42 39 -43 38 q -28 47 -36 40 q -19 57 -25 51 l -11 69 q 6 78 1 72 l 15 89 q 25 99 21 93 l 32 113 q 38 115 35 114 q 44 119 40 117 q 46 128 47 122 q 50 138 46 133 q 65 156 57 147 q 81 172 72 165 q 113 207 99 186 l 119 218 q 126 226 122 222 q 131 233 129 232 q 132 240 131 239 q 140 250 133 246 q 153 260 144 254 q 169 289 164 275 q 176 303 172 296 q 186 318 181 311 q 201 333 193 326 q 204 343 204 339 q 211 350 207 347 q 218 357 215 353 q 224 372 221 368 q 233 385 228 376 q 243 399 238 393 q 260 424 254 411 q 266 437 263 431 q 275 450 269 443 q 283 457 279 454 q 285 461 285 460 q 286 464 285 463 q 288 471 286 468 q 296 482 292 476 q 304 494 300 488 q 317 519 313 510 q 331 550 324 531 q 332 556 332 553 q 333 561 332 560 q 335 572 333 568 q 343 585 338 579 q 354 596 349 590 q 376 613 368 608 l 390 625 q 404 631 399 631 q 417 618 419 631 q 415 599 413 610 q 422 594 417 597 q 419 588 419 583 q 420 576 419 582 q 422 565 421 571 q 424 558 422 561 q 425 551 425 556 q 426 540 426 547 q 429 531 426 539 q 431 517 432 522 q 431 503 428 510 q 431 493 432 497 q 429 485 428 486 q 428 472 431 478 q 426 464 426 469 q 428 449 426 456 q 429 440 429 443 q 432 431 429 433 q 433 422 432 426 q 433 414 436 417 q 435 403 436 404 q 436 393 433 401 q 435 383 435 390 q 436 375 439 378 q 439 367 442 372 q 438 354 435 361 q 438 338 440 349 q 436 331 438 332 q 444 319 444 326 l 444 308 q 446 296 444 300 q 449 293 449 293 q 450 289 449 290 q 450 274 453 282 q 450 261 449 265 q 454 254 453 256 q 458 246 458 250 q 460 241 460 243 q 461 236 460 239 q 460 226 461 231 l 464 215 l 469 201 q 471 192 472 193 q 469 183 469 189 l 474 175 q 477 172 476 174 q 479 168 478 169 q 478 165 478 167 q 479 161 479 163 q 481 153 483 157 q 485 137 483 142 q 488 121 486 132 q 494 100 489 107 q 503 99 494 101 q 507 83 503 88 q 514 76 507 79 q 511 69 514 72 q 511 68 511 69 q 513 65 511 67 l 521 60 l 528 42 q 529 18 533 26 q 524 11 528 15 q 517 3 518 6 q 503 1 508 4 q 497 -1 500 0 q 489 -4 493 -3 q 482 -1 486 -1 q 474 0 475 -1 q 465 -1 469 -1 q 457 -1 461 -1 q 411 38 417 -1 q 414 46 411 43 q 419 53 415 49 q 425 58 425 56 q 426 68 429 63 l 426 72 q 429 83 426 75 q 438 101 436 94 q 433 113 433 106 q 436 125 433 117 q 439 132 436 129 l 435 136 q 432 148 435 143 q 435 160 429 153 q 429 165 429 160 q 428 171 429 168 q 426 176 428 174 q 428 189 428 178 q 431 203 428 200 q 422 221 426 207 q 414 238 418 236 q 406 237 411 238 q 394 235 401 236 q 376 229 378 231 q 360 224 368 226 q 344 219 351 222 q 329 215 338 217 q 311 211 321 214 q 274 207 293 207 l 197 207 q 188 208 194 207 q 172 208 182 208 q 158 211 163 211 q 151 211 153 211 q 115 176 129 200 q 99 153 108 163 q 83 133 90 143 l 71 117 l 63 104 l 58 99 q 39 78 43 90 q 35 63 36 71 q 32 49 33 56 l 28 18 q 14 -10 26 4 q -7 -21 6 -18 l -32 -21 m 354 243 q 365 243 360 243 q 375 244 369 243 q 387 244 382 244 q 397 246 392 244 q 406 247 403 247 q 410 247 408 247 q 415 251 413 250 q 417 256 415 254 q 419 260 418 258 q 415 267 417 263 q 410 275 413 271 q 404 301 404 282 q 404 314 407 304 q 404 326 403 325 q 400 332 400 331 l 396 344 q 393 358 396 350 q 389 364 389 363 q 386 381 385 375 q 385 389 386 385 q 383 397 385 393 l 379 415 q 378 428 379 425 q 376 439 376 431 q 351 486 372 465 l 350 486 q 336 475 344 481 q 322 464 328 469 l 314 450 l 306 433 q 299 425 303 429 q 290 417 294 421 q 274 396 281 407 q 276 386 272 390 l 264 372 l 250 358 q 248 351 249 354 q 247 346 247 349 q 238 339 244 342 q 228 331 229 336 l 224 322 q 222 317 222 321 q 218 311 221 314 l 214 307 q 213 307 214 307 q 211 306 213 307 q 210 300 211 303 q 208 299 208 300 q 207 296 208 297 q 200 292 204 296 l 183 275 l 178 265 q 179 261 176 261 q 201 250 185 253 q 221 250 218 247 l 231 256 q 238 256 233 256 q 244 254 242 256 q 263 250 251 251 q 276 249 269 249 q 289 247 282 249 q 303 246 296 246 q 317 246 311 246 q 339 247 333 246 q 341 247 340 247 q 342 246 342 246 q 343 243 342 243 l 354 243 z "},"Â":{"ha":588,"x_min":-74,"x_max":557,"o":"m -32 -21 q -37 -21 -33 -21 q -47 -19 -40 -21 q -64 -18 -61 -19 q -69 -7 -74 -12 q -67 1 -69 -3 q -64 10 -65 6 q -51 26 -57 21 q -46 34 -49 31 q -42 39 -43 38 q -28 47 -36 40 q -19 57 -25 51 l -11 69 q 6 78 1 72 l 15 89 q 25 99 21 93 l 32 113 q 38 115 35 114 q 44 119 40 117 q 46 128 47 122 q 50 138 46 133 q 65 156 57 147 q 81 172 72 165 q 113 207 99 186 l 119 218 q 126 226 122 222 q 131 233 129 232 q 132 240 131 239 q 140 250 133 246 q 153 260 144 254 q 169 289 164 275 q 176 303 172 296 q 186 318 181 311 q 201 333 193 326 q 204 343 204 339 q 211 350 207 347 q 218 357 215 353 q 224 372 221 368 q 233 385 228 376 q 243 399 238 393 q 260 424 254 411 q 266 437 263 431 q 275 450 269 443 q 283 457 279 454 q 285 461 285 460 q 286 464 285 463 q 288 471 286 468 q 296 482 292 476 q 304 494 300 488 q 317 519 313 510 q 331 550 324 531 q 332 556 332 553 q 333 561 332 560 q 335 572 333 568 q 343 585 338 579 q 354 596 349 590 q 376 613 368 608 l 390 625 q 404 631 399 631 q 417 618 419 631 q 415 599 413 610 q 422 594 417 597 q 419 588 419 583 q 420 576 419 582 q 422 565 421 571 q 424 558 422 561 q 425 551 425 556 q 426 540 426 547 q 429 531 426 539 q 431 517 432 522 q 431 503 428 510 q 431 493 432 497 q 429 485 428 486 q 428 472 431 478 q 426 464 426 469 q 428 449 426 456 q 429 440 429 443 q 432 431 429 433 q 433 422 432 426 q 433 414 436 417 q 435 403 436 404 q 436 393 433 401 q 435 383 435 390 q 436 375 439 378 q 439 367 442 372 q 438 354 435 361 q 438 338 440 349 q 436 331 438 332 q 444 319 444 326 l 444 308 q 446 296 444 300 q 449 293 449 293 q 450 289 449 290 q 450 274 453 282 q 450 261 449 265 q 454 254 453 256 q 458 246 458 250 q 460 241 460 243 q 461 236 460 239 q 460 226 461 231 l 464 215 l 469 201 q 471 192 472 193 q 469 183 469 189 l 474 175 q 477 172 476 174 q 479 168 478 169 q 478 165 478 167 q 479 161 479 163 q 481 153 483 157 q 485 137 483 142 q 488 121 486 132 q 494 100 489 107 q 503 99 494 101 q 507 83 503 88 q 514 76 507 79 q 511 69 514 72 q 511 68 511 69 q 513 65 511 67 l 521 60 l 528 42 q 529 18 533 26 q 524 11 528 15 q 517 3 518 6 q 503 1 508 4 q 497 -1 500 0 q 489 -4 493 -3 q 482 -1 486 -1 q 474 0 475 -1 q 465 -1 469 -1 q 457 -1 461 -1 q 411 38 417 -1 q 414 46 411 43 q 419 53 415 49 q 425 58 425 56 q 426 68 429 63 l 426 72 q 429 83 426 75 q 438 101 436 94 q 433 113 433 106 q 436 125 433 117 q 439 132 436 129 l 435 136 q 432 148 435 143 q 435 160 429 153 q 429 165 429 160 q 428 171 429 168 q 426 176 428 174 q 428 189 428 178 q 431 203 428 200 q 422 221 426 207 q 414 238 418 236 q 406 237 411 238 q 394 235 401 236 q 376 229 378 231 q 360 224 368 226 q 344 219 351 222 q 329 215 338 217 q 311 211 321 214 q 274 207 293 207 l 197 207 q 188 208 194 207 q 172 208 182 208 q 158 211 163 211 q 151 211 153 211 q 115 176 129 200 q 99 153 108 163 q 83 133 90 143 l 71 117 l 63 104 l 58 99 q 39 78 43 90 q 35 63 36 71 q 32 49 33 56 l 28 18 q 14 -10 26 4 q -7 -21 6 -18 l -32 -21 m 354 243 q 365 243 360 243 q 375 244 369 243 q 387 244 382 244 q 397 246 392 244 q 406 247 403 247 q 410 247 408 247 q 415 251 413 250 q 417 256 415 254 q 419 260 418 258 q 415 267 417 263 q 410 275 413 271 q 404 301 404 282 q 404 314 407 304 q 404 326 403 325 q 400 332 400 331 l 396 344 q 393 358 396 350 q 389 364 389 363 q 386 381 385 375 q 385 389 386 385 q 383 397 385 393 l 379 415 q 378 428 379 425 q 376 439 376 431 q 351 486 372 465 l 350 486 q 336 475 344 481 q 322 464 328 469 l 314 450 l 306 433 q 299 425 303 429 q 290 417 294 421 q 274 396 281 407 q 276 386 272 390 l 264 372 l 250 358 q 248 351 249 354 q 247 346 247 349 q 238 339 244 342 q 228 331 229 336 l 224 322 q 222 317 222 321 q 218 311 221 314 l 214 307 q 213 307 214 307 q 211 306 213 307 q 210 300 211 303 q 208 299 208 300 q 207 296 208 297 q 200 292 204 296 l 183 275 l 178 265 q 179 261 176 261 q 201 250 185 253 q 221 250 218 247 l 231 256 q 238 256 233 256 q 244 254 242 256 q 263 250 251 251 q 276 249 269 249 q 289 247 282 249 q 303 246 296 246 q 317 246 311 246 q 339 247 333 246 q 341 247 340 247 q 342 246 342 246 q 343 243 342 243 l 354 243 m 269 663 q 263 667 267 663 q 260 672 260 671 q 263 681 260 681 l 274 685 q 279 686 276 685 q 283 689 282 688 q 295 696 289 692 q 307 703 301 700 l 332 715 q 342 723 339 718 q 350 729 346 728 q 358 737 353 733 q 368 743 364 740 q 375 752 371 749 q 381 758 379 756 q 388 765 385 761 q 394 771 390 768 q 407 778 403 776 q 415 783 411 779 q 421 789 419 788 l 439 799 q 447 799 442 800 q 458 799 453 799 q 470 794 467 799 q 476 785 474 789 q 481 774 479 779 q 486 763 483 769 q 492 750 489 757 q 500 735 496 743 q 508 718 504 726 q 518 703 513 710 q 524 699 521 701 q 529 694 528 696 q 535 692 532 693 q 542 689 538 692 q 549 688 544 688 q 554 688 553 688 q 557 685 557 688 q 554 683 557 683 q 544 680 549 682 q 535 676 539 678 q 524 674 531 675 q 511 671 518 674 q 496 668 506 668 q 490 669 492 668 q 486 671 488 671 q 479 679 481 675 q 471 688 478 686 q 464 701 467 692 q 456 721 463 713 q 452 728 454 724 q 447 736 450 732 q 446 743 447 739 q 443 750 444 747 q 436 763 442 763 q 429 761 432 764 l 424 753 q 418 748 422 750 q 410 743 414 746 q 403 736 407 740 q 393 732 399 732 q 388 729 389 732 q 386 725 388 726 l 379 721 q 369 715 375 721 q 355 707 363 711 q 340 697 347 703 q 308 678 326 688 q 289 668 304 674 q 269 663 278 663 z "},"Ấ":{"ha":588,"x_min":-74,"x_max":751,"o":"m -32 -21 q -37 -21 -33 -21 q -47 -19 -40 -21 q -64 -18 -61 -19 q -69 -7 -74 -12 q -67 1 -69 -3 q -64 10 -65 6 q -51 26 -57 21 q -46 34 -49 31 q -42 39 -43 38 q -28 47 -36 40 q -19 57 -25 51 l -11 69 q 6 78 1 72 l 15 89 q 25 99 21 93 l 32 113 q 38 115 35 114 q 44 119 40 117 q 46 128 47 122 q 50 138 46 133 q 65 156 57 147 q 81 172 72 165 q 113 207 99 186 l 119 218 q 126 226 122 222 q 131 233 129 232 q 132 240 131 239 q 140 250 133 246 q 153 260 144 254 q 169 289 164 275 q 176 303 172 296 q 186 318 181 311 q 201 333 193 326 q 204 343 204 339 q 211 350 207 347 q 218 357 215 353 q 224 372 221 368 q 233 385 228 376 q 243 399 238 393 q 260 424 254 411 q 266 437 263 431 q 275 450 269 443 q 283 457 279 454 q 285 461 285 460 q 286 464 285 463 q 288 471 286 468 q 296 482 292 476 q 304 494 300 488 q 317 519 313 510 q 331 550 324 531 q 332 556 332 553 q 333 561 332 560 q 335 572 333 568 q 343 585 338 579 q 354 596 349 590 q 376 613 368 608 l 390 625 q 404 631 399 631 q 417 618 419 631 q 415 599 413 610 q 422 594 417 597 q 419 588 419 583 q 420 576 419 582 q 422 565 421 571 q 424 558 422 561 q 425 551 425 556 q 426 540 426 547 q 429 531 426 539 q 431 517 432 522 q 431 503 428 510 q 431 493 432 497 q 429 485 428 486 q 428 472 431 478 q 426 464 426 469 q 428 449 426 456 q 429 440 429 443 q 432 431 429 433 q 433 422 432 426 q 433 414 436 417 q 435 403 436 404 q 436 393 433 401 q 435 383 435 390 q 436 375 439 378 q 439 367 442 372 q 438 354 435 361 q 438 338 440 349 q 436 331 438 332 q 444 319 444 326 l 444 308 q 446 296 444 300 q 449 293 449 293 q 450 289 449 290 q 450 274 453 282 q 450 261 449 265 q 454 254 453 256 q 458 246 458 250 q 460 241 460 243 q 461 236 460 239 q 460 226 461 231 l 464 215 l 469 201 q 471 192 472 193 q 469 183 469 189 l 474 175 q 477 172 476 174 q 479 168 478 169 q 478 165 478 167 q 479 161 479 163 q 481 153 483 157 q 485 137 483 142 q 488 121 486 132 q 494 100 489 107 q 503 99 494 101 q 507 83 503 88 q 514 76 507 79 q 511 69 514 72 q 511 68 511 69 q 513 65 511 67 l 521 60 l 528 42 q 529 18 533 26 q 524 11 528 15 q 517 3 518 6 q 503 1 508 4 q 497 -1 500 0 q 489 -4 493 -3 q 482 -1 486 -1 q 474 0 475 -1 q 465 -1 469 -1 q 457 -1 461 -1 q 411 38 417 -1 q 414 46 411 43 q 419 53 415 49 q 425 58 425 56 q 426 68 429 63 l 426 72 q 429 83 426 75 q 438 101 436 94 q 433 113 433 106 q 436 125 433 117 q 439 132 436 129 l 435 136 q 432 148 435 143 q 435 160 429 153 q 429 165 429 160 q 428 171 429 168 q 426 176 428 174 q 428 189 428 178 q 431 203 428 200 q 422 221 426 207 q 414 238 418 236 q 406 237 411 238 q 394 235 401 236 q 376 229 378 231 q 360 224 368 226 q 344 219 351 222 q 329 215 338 217 q 311 211 321 214 q 274 207 293 207 l 197 207 q 188 208 194 207 q 172 208 182 208 q 158 211 163 211 q 151 211 153 211 q 115 176 129 200 q 99 153 108 163 q 83 133 90 143 l 71 117 l 63 104 l 58 99 q 39 78 43 90 q 35 63 36 71 q 32 49 33 56 l 28 18 q 14 -10 26 4 q -7 -21 6 -18 l -32 -21 m 354 243 q 365 243 360 243 q 375 244 369 243 q 387 244 382 244 q 397 246 392 244 q 406 247 403 247 q 410 247 408 247 q 415 251 413 250 q 417 256 415 254 q 419 260 418 258 q 415 267 417 263 q 410 275 413 271 q 404 301 404 282 q 404 314 407 304 q 404 326 403 325 q 400 332 400 331 l 396 344 q 393 358 396 350 q 389 364 389 363 q 386 381 385 375 q 385 389 386 385 q 383 397 385 393 l 379 415 q 378 428 379 425 q 376 439 376 431 q 351 486 372 465 l 350 486 q 336 475 344 481 q 322 464 328 469 l 314 450 l 306 433 q 299 425 303 429 q 290 417 294 421 q 274 396 281 407 q 276 386 272 390 l 264 372 l 250 358 q 248 351 249 354 q 247 346 247 349 q 238 339 244 342 q 228 331 229 336 l 224 322 q 222 317 222 321 q 218 311 221 314 l 214 307 q 213 307 214 307 q 211 306 213 307 q 210 300 211 303 q 208 299 208 300 q 207 296 208 297 q 200 292 204 296 l 183 275 l 178 265 q 179 261 176 261 q 201 250 185 253 q 221 250 218 247 l 231 256 q 238 256 233 256 q 244 254 242 256 q 263 250 251 251 q 276 249 269 249 q 289 247 282 249 q 303 246 296 246 q 317 246 311 246 q 339 247 333 246 q 341 247 340 247 q 342 246 342 246 q 343 243 342 243 l 354 243 m 269 663 q 263 667 267 663 q 260 672 260 671 q 263 681 260 681 l 274 685 q 279 686 276 685 q 283 689 282 688 q 295 696 289 692 q 307 703 301 700 l 332 715 q 342 723 339 718 q 350 729 346 728 q 358 737 353 733 q 368 743 364 740 q 375 752 371 749 q 381 758 379 756 q 388 765 385 761 q 394 771 390 768 q 407 778 403 776 q 415 783 411 779 q 421 789 419 788 l 439 799 q 447 799 442 800 q 458 799 453 799 q 470 794 467 799 q 476 785 474 789 q 481 774 479 779 q 486 763 483 769 q 492 750 489 757 q 500 735 496 743 q 508 718 504 726 q 518 703 513 710 q 524 699 521 701 q 529 694 528 696 q 535 692 532 693 q 542 689 538 692 q 549 688 544 688 q 554 688 553 688 q 557 685 557 688 q 554 683 557 683 q 544 680 549 682 q 535 676 539 678 q 524 674 531 675 q 511 671 518 674 q 496 668 506 668 q 490 669 492 668 q 486 671 488 671 q 479 679 481 675 q 471 688 478 686 q 464 701 467 692 q 456 721 463 713 q 452 728 454 724 q 447 736 450 732 q 446 743 447 739 q 443 750 444 747 q 436 763 442 763 q 429 761 432 764 l 424 753 q 418 748 422 750 q 410 743 414 746 q 403 736 407 740 q 393 732 399 732 q 388 729 389 732 q 386 725 388 726 l 379 721 q 369 715 375 721 q 355 707 363 711 q 340 697 347 703 q 308 678 326 688 q 289 668 304 674 q 269 663 278 663 m 546 753 q 554 763 546 761 q 567 769 564 765 q 576 776 574 774 q 579 781 578 779 q 584 783 583 782 q 586 783 585 783 q 594 788 589 786 q 601 792 599 790 q 607 799 604 796 q 613 804 610 803 l 628 819 q 643 828 632 824 q 656 833 654 832 q 665 844 663 840 q 683 846 668 847 l 685 846 q 698 843 692 846 q 710 838 704 840 q 724 834 718 835 q 733 832 729 833 q 746 828 742 831 q 746 825 751 825 q 742 825 744 828 q 732 819 736 819 l 725 818 q 722 816 724 818 q 718 813 721 814 l 707 810 l 694 803 q 690 803 690 803 l 686 799 q 676 796 681 796 q 675 795 675 796 q 672 793 675 794 q 668 793 671 796 q 665 792 667 792 q 664 792 664 792 q 656 790 660 790 q 650 788 653 789 q 645 784 649 786 q 628 776 642 782 q 614 772 622 776 q 604 769 608 772 q 594 765 600 767 q 584 761 589 764 q 574 757 579 758 q 549 753 556 753 l 546 753 z "},"Ậ":{"ha":588,"x_min":-74,"x_max":557,"o":"m -32 -21 q -37 -21 -33 -21 q -47 -19 -40 -21 q -64 -18 -61 -19 q -69 -7 -74 -12 q -67 1 -69 -3 q -64 10 -65 6 q -51 26 -57 21 q -46 34 -49 31 q -42 39 -43 38 q -28 47 -36 40 q -19 57 -25 51 l -11 69 q 6 78 1 72 l 15 89 q 25 99 21 93 l 32 113 q 38 115 35 114 q 44 119 40 117 q 46 128 47 122 q 50 138 46 133 q 65 156 57 147 q 81 172 72 165 q 113 207 99 186 l 119 218 q 126 226 122 222 q 131 233 129 232 q 132 240 131 239 q 140 250 133 246 q 153 260 144 254 q 169 289 164 275 q 176 303 172 296 q 186 318 181 311 q 201 333 193 326 q 204 343 204 339 q 211 350 207 347 q 218 357 215 353 q 224 372 221 368 q 233 385 228 376 q 243 399 238 393 q 260 424 254 411 q 266 437 263 431 q 275 450 269 443 q 283 457 279 454 q 285 461 285 460 q 286 464 285 463 q 288 471 286 468 q 296 482 292 476 q 304 494 300 488 q 317 519 313 510 q 331 550 324 531 q 332 556 332 553 q 333 561 332 560 q 335 572 333 568 q 343 585 338 579 q 354 596 349 590 q 376 613 368 608 l 390 625 q 404 631 399 631 q 417 618 419 631 q 415 599 413 610 q 422 594 417 597 q 419 588 419 583 q 420 576 419 582 q 422 565 421 571 q 424 558 422 561 q 425 551 425 556 q 426 540 426 547 q 429 531 426 539 q 431 517 432 522 q 431 503 428 510 q 431 493 432 497 q 429 485 428 486 q 428 472 431 478 q 426 464 426 469 q 428 449 426 456 q 429 440 429 443 q 432 431 429 433 q 433 422 432 426 q 433 414 436 417 q 435 403 436 404 q 436 393 433 401 q 435 383 435 390 q 436 375 439 378 q 439 367 442 372 q 438 354 435 361 q 438 338 440 349 q 436 331 438 332 q 444 319 444 326 l 444 308 q 446 296 444 300 q 449 293 449 293 q 450 289 449 290 q 450 274 453 282 q 450 261 449 265 q 454 254 453 256 q 458 246 458 250 q 460 241 460 243 q 461 236 460 239 q 460 226 461 231 l 464 215 l 469 201 q 471 192 472 193 q 469 183 469 189 l 474 175 q 477 172 476 174 q 479 168 478 169 q 478 165 478 167 q 479 161 479 163 q 481 153 483 157 q 485 137 483 142 q 488 121 486 132 q 494 100 489 107 q 503 99 494 101 q 507 83 503 88 q 514 76 507 79 q 511 69 514 72 q 511 68 511 69 q 513 65 511 67 l 521 60 l 528 42 q 529 18 533 26 q 524 11 528 15 q 517 3 518 6 q 503 1 508 4 q 497 -1 500 0 q 489 -4 493 -3 q 482 -1 486 -1 q 474 0 475 -1 q 465 -1 469 -1 q 457 -1 461 -1 q 411 38 417 -1 q 414 46 411 43 q 419 53 415 49 q 425 58 425 56 q 426 68 429 63 l 426 72 q 429 83 426 75 q 438 101 436 94 q 433 113 433 106 q 436 125 433 117 q 439 132 436 129 l 435 136 q 432 148 435 143 q 435 160 429 153 q 429 165 429 160 q 428 171 429 168 q 426 176 428 174 q 428 189 428 178 q 431 203 428 200 q 422 221 426 207 q 414 238 418 236 q 406 237 411 238 q 394 235 401 236 q 376 229 378 231 q 360 224 368 226 q 344 219 351 222 q 329 215 338 217 q 311 211 321 214 q 274 207 293 207 l 197 207 q 188 208 194 207 q 172 208 182 208 q 158 211 163 211 q 151 211 153 211 q 115 176 129 200 q 99 153 108 163 q 83 133 90 143 l 71 117 l 63 104 l 58 99 q 39 78 43 90 q 35 63 36 71 q 32 49 33 56 l 28 18 q 14 -10 26 4 q -7 -21 6 -18 l -32 -21 m 354 243 q 365 243 360 243 q 375 244 369 243 q 387 244 382 244 q 397 246 392 244 q 406 247 403 247 q 410 247 408 247 q 415 251 413 250 q 417 256 415 254 q 419 260 418 258 q 415 267 417 263 q 410 275 413 271 q 404 301 404 282 q 404 314 407 304 q 404 326 403 325 q 400 332 400 331 l 396 344 q 393 358 396 350 q 389 364 389 363 q 386 381 385 375 q 385 389 386 385 q 383 397 385 393 l 379 415 q 378 428 379 425 q 376 439 376 431 q 351 486 372 465 l 350 486 q 336 475 344 481 q 322 464 328 469 l 314 450 l 306 433 q 299 425 303 429 q 290 417 294 421 q 274 396 281 407 q 276 386 272 390 l 264 372 l 250 358 q 248 351 249 354 q 247 346 247 349 q 238 339 244 342 q 228 331 229 336 l 224 322 q 222 317 222 321 q 218 311 221 314 l 214 307 q 213 307 214 307 q 211 306 213 307 q 210 300 211 303 q 208 299 208 300 q 207 296 208 297 q 200 292 204 296 l 183 275 l 178 265 q 179 261 176 261 q 201 250 185 253 q 221 250 218 247 l 231 256 q 238 256 233 256 q 244 254 242 256 q 263 250 251 251 q 276 249 269 249 q 289 247 282 249 q 303 246 296 246 q 317 246 311 246 q 339 247 333 246 q 341 247 340 247 q 342 246 342 246 q 343 243 342 243 l 354 243 m 214 -125 q 193 -111 193 -125 q 192 -100 190 -106 l 194 -85 q 200 -76 197 -81 q 208 -69 203 -71 q 222 -67 217 -68 q 233 -67 228 -67 q 244 -69 242 -67 q 256 -90 254 -83 q 256 -104 258 -101 q 240 -122 249 -121 l 228 -125 l 214 -125 m 269 663 q 263 667 267 663 q 260 672 260 671 q 263 681 260 681 l 274 685 q 279 686 276 685 q 283 689 282 688 q 295 696 289 692 q 307 703 301 700 l 332 715 q 342 723 339 718 q 350 729 346 728 q 358 737 353 733 q 368 743 364 740 q 375 752 371 749 q 381 758 379 756 q 388 765 385 761 q 394 771 390 768 q 407 778 403 776 q 415 783 411 779 q 421 789 419 788 l 439 799 q 447 799 442 800 q 458 799 453 799 q 470 794 467 799 q 476 785 474 789 q 481 774 479 779 q 486 763 483 769 q 492 750 489 757 q 500 735 496 743 q 508 718 504 726 q 518 703 513 710 q 524 699 521 701 q 529 694 528 696 q 535 692 532 693 q 542 689 538 692 q 549 688 544 688 q 554 688 553 688 q 557 685 557 688 q 554 683 557 683 q 544 680 549 682 q 535 676 539 678 q 524 674 531 675 q 511 671 518 674 q 496 668 506 668 q 490 669 492 668 q 486 671 488 671 q 479 679 481 675 q 471 688 478 686 q 464 701 467 692 q 456 721 463 713 q 452 728 454 724 q 447 736 450 732 q 446 743 447 739 q 443 750 444 747 q 436 763 442 763 q 429 761 432 764 l 424 753 q 418 748 422 750 q 410 743 414 746 q 403 736 407 740 q 393 732 399 732 q 388 729 389 732 q 386 725 388 726 l 379 721 q 369 715 375 721 q 355 707 363 711 q 340 697 347 703 q 308 678 326 688 q 289 668 304 674 q 269 663 278 663 z "},"Ầ":{"ha":588,"x_min":-74,"x_max":601,"o":"m -32 -21 q -37 -21 -33 -21 q -47 -19 -40 -21 q -64 -18 -61 -19 q -69 -7 -74 -12 q -67 1 -69 -3 q -64 10 -65 6 q -51 26 -57 21 q -46 34 -49 31 q -42 39 -43 38 q -28 47 -36 40 q -19 57 -25 51 l -11 69 q 6 78 1 72 l 15 89 q 25 99 21 93 l 32 113 q 38 115 35 114 q 44 119 40 117 q 46 128 47 122 q 50 138 46 133 q 65 156 57 147 q 81 172 72 165 q 113 207 99 186 l 119 218 q 126 226 122 222 q 131 233 129 232 q 132 240 131 239 q 140 250 133 246 q 153 260 144 254 q 169 289 164 275 q 176 303 172 296 q 186 318 181 311 q 201 333 193 326 q 204 343 204 339 q 211 350 207 347 q 218 357 215 353 q 224 372 221 368 q 233 385 228 376 q 243 399 238 393 q 260 424 254 411 q 266 437 263 431 q 275 450 269 443 q 283 457 279 454 q 285 461 285 460 q 286 464 285 463 q 288 471 286 468 q 296 482 292 476 q 304 494 300 488 q 317 519 313 510 q 331 550 324 531 q 332 556 332 553 q 333 561 332 560 q 335 572 333 568 q 343 585 338 579 q 354 596 349 590 q 376 613 368 608 l 390 625 q 404 631 399 631 q 417 618 419 631 q 415 599 413 610 q 422 594 417 597 q 419 588 419 583 q 420 576 419 582 q 422 565 421 571 q 424 558 422 561 q 425 551 425 556 q 426 540 426 547 q 429 531 426 539 q 431 517 432 522 q 431 503 428 510 q 431 493 432 497 q 429 485 428 486 q 428 472 431 478 q 426 464 426 469 q 428 449 426 456 q 429 440 429 443 q 432 431 429 433 q 433 422 432 426 q 433 414 436 417 q 435 403 436 404 q 436 393 433 401 q 435 383 435 390 q 436 375 439 378 q 439 367 442 372 q 438 354 435 361 q 438 338 440 349 q 436 331 438 332 q 444 319 444 326 l 444 308 q 446 296 444 300 q 449 293 449 293 q 450 289 449 290 q 450 274 453 282 q 450 261 449 265 q 454 254 453 256 q 458 246 458 250 q 460 241 460 243 q 461 236 460 239 q 460 226 461 231 l 464 215 l 469 201 q 471 192 472 193 q 469 183 469 189 l 474 175 q 477 172 476 174 q 479 168 478 169 q 478 165 478 167 q 479 161 479 163 q 481 153 483 157 q 485 137 483 142 q 488 121 486 132 q 494 100 489 107 q 503 99 494 101 q 507 83 503 88 q 514 76 507 79 q 511 69 514 72 q 511 68 511 69 q 513 65 511 67 l 521 60 l 528 42 q 529 18 533 26 q 524 11 528 15 q 517 3 518 6 q 503 1 508 4 q 497 -1 500 0 q 489 -4 493 -3 q 482 -1 486 -1 q 474 0 475 -1 q 465 -1 469 -1 q 457 -1 461 -1 q 411 38 417 -1 q 414 46 411 43 q 419 53 415 49 q 425 58 425 56 q 426 68 429 63 l 426 72 q 429 83 426 75 q 438 101 436 94 q 433 113 433 106 q 436 125 433 117 q 439 132 436 129 l 435 136 q 432 148 435 143 q 435 160 429 153 q 429 165 429 160 q 428 171 429 168 q 426 176 428 174 q 428 189 428 178 q 431 203 428 200 q 422 221 426 207 q 414 238 418 236 q 406 237 411 238 q 394 235 401 236 q 376 229 378 231 q 360 224 368 226 q 344 219 351 222 q 329 215 338 217 q 311 211 321 214 q 274 207 293 207 l 197 207 q 188 208 194 207 q 172 208 182 208 q 158 211 163 211 q 151 211 153 211 q 115 176 129 200 q 99 153 108 163 q 83 133 90 143 l 71 117 l 63 104 l 58 99 q 39 78 43 90 q 35 63 36 71 q 32 49 33 56 l 28 18 q 14 -10 26 4 q -7 -21 6 -18 l -32 -21 m 354 243 q 365 243 360 243 q 375 244 369 243 q 387 244 382 244 q 397 246 392 244 q 406 247 403 247 q 410 247 408 247 q 415 251 413 250 q 417 256 415 254 q 419 260 418 258 q 415 267 417 263 q 410 275 413 271 q 404 301 404 282 q 404 314 407 304 q 404 326 403 325 q 400 332 400 331 l 396 344 q 393 358 396 350 q 389 364 389 363 q 386 381 385 375 q 385 389 386 385 q 383 397 385 393 l 379 415 q 378 428 379 425 q 376 439 376 431 q 351 486 372 465 l 350 486 q 336 475 344 481 q 322 464 328 469 l 314 450 l 306 433 q 299 425 303 429 q 290 417 294 421 q 274 396 281 407 q 276 386 272 390 l 264 372 l 250 358 q 248 351 249 354 q 247 346 247 349 q 238 339 244 342 q 228 331 229 336 l 224 322 q 222 317 222 321 q 218 311 221 314 l 214 307 q 213 307 214 307 q 211 306 213 307 q 210 300 211 303 q 208 299 208 300 q 207 296 208 297 q 200 292 204 296 l 183 275 l 178 265 q 179 261 176 261 q 201 250 185 253 q 221 250 218 247 l 231 256 q 238 256 233 256 q 244 254 242 256 q 263 250 251 251 q 276 249 269 249 q 289 247 282 249 q 303 246 296 246 q 317 246 311 246 q 339 247 333 246 q 341 247 340 247 q 342 246 342 246 q 343 243 342 243 l 354 243 m 269 663 q 263 667 267 663 q 260 672 260 671 q 263 681 260 681 l 274 685 q 279 686 276 685 q 283 689 282 688 q 295 696 289 692 q 307 703 301 700 l 332 715 q 342 723 339 718 q 350 729 346 728 q 358 737 353 733 q 368 743 364 740 q 375 752 371 749 q 381 758 379 756 q 388 765 385 761 q 394 771 390 768 q 407 778 403 776 q 415 783 411 779 q 421 789 419 788 l 439 799 q 447 799 442 800 q 458 799 453 799 q 470 794 467 799 q 476 785 474 789 q 481 774 479 779 q 486 763 483 769 q 492 750 489 757 q 500 735 496 743 q 508 718 504 726 q 518 703 513 710 q 524 699 521 701 q 529 694 528 696 q 535 692 532 693 q 542 689 538 692 q 549 688 544 688 q 554 688 553 688 q 557 685 557 688 q 554 683 557 683 q 544 680 549 682 q 535 676 539 678 q 524 674 531 675 q 511 671 518 674 q 496 668 506 668 q 490 669 492 668 q 486 671 488 671 q 479 679 481 675 q 471 688 478 686 q 464 701 467 692 q 456 721 463 713 q 452 728 454 724 q 447 736 450 732 q 446 743 447 739 q 443 750 444 747 q 436 763 442 763 q 429 761 432 764 l 424 753 q 418 748 422 750 q 410 743 414 746 q 403 736 407 740 q 393 732 399 732 q 388 729 389 732 q 386 725 388 726 l 379 721 q 369 715 375 721 q 355 707 363 711 q 340 697 347 703 q 308 678 326 688 q 289 668 304 674 q 269 663 278 663 m 599 811 q 574 815 593 811 q 564 819 568 817 q 553 824 560 822 q 543 828 547 825 q 533 831 539 831 q 519 835 525 835 q 503 842 506 840 q 497 846 500 844 q 491 848 494 847 q 483 850 488 849 q 482 850 483 850 q 479 851 481 850 q 475 851 478 854 q 474 853 474 853 q 471 854 474 854 q 461 857 467 854 l 457 861 q 453 861 457 861 l 440 868 l 429 871 q 426 874 428 872 q 422 876 425 876 l 415 878 q 406 883 411 878 q 401 883 404 886 q 401 886 396 883 q 414 890 406 889 q 424 892 418 892 q 438 896 429 893 q 450 901 443 899 q 463 904 457 904 q 482 901 479 904 q 492 892 485 899 q 505 886 494 890 q 519 878 515 882 l 535 863 q 540 858 538 861 q 546 850 543 854 q 553 847 549 849 q 561 842 558 844 q 563 841 563 842 q 568 839 564 840 q 573 835 571 838 q 581 828 575 832 q 593 821 583 824 q 601 811 601 819 l 599 811 z "},"Ẩ":{"ha":588,"x_min":-74,"x_max":678,"o":"m -32 -21 q -37 -21 -33 -21 q -47 -19 -40 -21 q -64 -18 -61 -19 q -69 -7 -74 -12 q -67 1 -69 -3 q -64 10 -65 6 q -51 26 -57 21 q -46 34 -49 31 q -42 39 -43 38 q -28 47 -36 40 q -19 57 -25 51 l -11 69 q 6 78 1 72 l 15 89 q 25 99 21 93 l 32 113 q 38 115 35 114 q 44 119 40 117 q 46 128 47 122 q 50 138 46 133 q 65 156 57 147 q 81 172 72 165 q 113 207 99 186 l 119 218 q 126 226 122 222 q 131 233 129 232 q 132 240 131 239 q 140 250 133 246 q 153 260 144 254 q 169 289 164 275 q 176 303 172 296 q 186 318 181 311 q 201 333 193 326 q 204 343 204 339 q 211 350 207 347 q 218 357 215 353 q 224 372 221 368 q 233 385 228 376 q 243 399 238 393 q 260 424 254 411 q 266 437 263 431 q 275 450 269 443 q 283 457 279 454 q 285 461 285 460 q 286 464 285 463 q 288 471 286 468 q 296 482 292 476 q 304 494 300 488 q 317 519 313 510 q 331 550 324 531 q 332 556 332 553 q 333 561 332 560 q 335 572 333 568 q 343 585 338 579 q 354 596 349 590 q 376 613 368 608 l 390 625 q 404 631 399 631 q 417 618 419 631 q 415 599 413 610 q 422 594 417 597 q 419 588 419 583 q 420 576 419 582 q 422 565 421 571 q 424 558 422 561 q 425 551 425 556 q 426 540 426 547 q 429 531 426 539 q 431 517 432 522 q 431 503 428 510 q 431 493 432 497 q 429 485 428 486 q 428 472 431 478 q 426 464 426 469 q 428 449 426 456 q 429 440 429 443 q 432 431 429 433 q 433 422 432 426 q 433 414 436 417 q 435 403 436 404 q 436 393 433 401 q 435 383 435 390 q 436 375 439 378 q 439 367 442 372 q 438 354 435 361 q 438 338 440 349 q 436 331 438 332 q 444 319 444 326 l 444 308 q 446 296 444 300 q 449 293 449 293 q 450 289 449 290 q 450 274 453 282 q 450 261 449 265 q 454 254 453 256 q 458 246 458 250 q 460 241 460 243 q 461 236 460 239 q 460 226 461 231 l 464 215 l 469 201 q 471 192 472 193 q 469 183 469 189 l 474 175 q 477 172 476 174 q 479 168 478 169 q 478 165 478 167 q 479 161 479 163 q 481 153 483 157 q 485 137 483 142 q 488 121 486 132 q 494 100 489 107 q 503 99 494 101 q 507 83 503 88 q 514 76 507 79 q 511 69 514 72 q 511 68 511 69 q 513 65 511 67 l 521 60 l 528 42 q 529 18 533 26 q 524 11 528 15 q 517 3 518 6 q 503 1 508 4 q 497 -1 500 0 q 489 -4 493 -3 q 482 -1 486 -1 q 474 0 475 -1 q 465 -1 469 -1 q 457 -1 461 -1 q 411 38 417 -1 q 414 46 411 43 q 419 53 415 49 q 425 58 425 56 q 426 68 429 63 l 426 72 q 429 83 426 75 q 438 101 436 94 q 433 113 433 106 q 436 125 433 117 q 439 132 436 129 l 435 136 q 432 148 435 143 q 435 160 429 153 q 429 165 429 160 q 428 171 429 168 q 426 176 428 174 q 428 189 428 178 q 431 203 428 200 q 422 221 426 207 q 414 238 418 236 q 406 237 411 238 q 394 235 401 236 q 376 229 378 231 q 360 224 368 226 q 344 219 351 222 q 329 215 338 217 q 311 211 321 214 q 274 207 293 207 l 197 207 q 188 208 194 207 q 172 208 182 208 q 158 211 163 211 q 151 211 153 211 q 115 176 129 200 q 99 153 108 163 q 83 133 90 143 l 71 117 l 63 104 l 58 99 q 39 78 43 90 q 35 63 36 71 q 32 49 33 56 l 28 18 q 14 -10 26 4 q -7 -21 6 -18 l -32 -21 m 354 243 q 365 243 360 243 q 375 244 369 243 q 387 244 382 244 q 397 246 392 244 q 406 247 403 247 q 410 247 408 247 q 415 251 413 250 q 417 256 415 254 q 419 260 418 258 q 415 267 417 263 q 410 275 413 271 q 404 301 404 282 q 404 314 407 304 q 404 326 403 325 q 400 332 400 331 l 396 344 q 393 358 396 350 q 389 364 389 363 q 386 381 385 375 q 385 389 386 385 q 383 397 385 393 l 379 415 q 378 428 379 425 q 376 439 376 431 q 351 486 372 465 l 350 486 q 336 475 344 481 q 322 464 328 469 l 314 450 l 306 433 q 299 425 303 429 q 290 417 294 421 q 274 396 281 407 q 276 386 272 390 l 264 372 l 250 358 q 248 351 249 354 q 247 346 247 349 q 238 339 244 342 q 228 331 229 336 l 224 322 q 222 317 222 321 q 218 311 221 314 l 214 307 q 213 307 214 307 q 211 306 213 307 q 210 300 211 303 q 208 299 208 300 q 207 296 208 297 q 200 292 204 296 l 183 275 l 178 265 q 179 261 176 261 q 201 250 185 253 q 221 250 218 247 l 231 256 q 238 256 233 256 q 244 254 242 256 q 263 250 251 251 q 276 249 269 249 q 289 247 282 249 q 303 246 296 246 q 317 246 311 246 q 339 247 333 246 q 341 247 340 247 q 342 246 342 246 q 343 243 342 243 l 354 243 m 269 663 q 263 667 267 663 q 260 672 260 671 q 263 681 260 681 l 274 685 q 279 686 276 685 q 283 689 282 688 q 295 696 289 692 q 307 703 301 700 l 332 715 q 342 723 339 718 q 350 729 346 728 q 358 737 353 733 q 368 743 364 740 q 375 752 371 749 q 381 758 379 756 q 388 765 385 761 q 394 771 390 768 q 407 778 403 776 q 415 783 411 779 q 421 789 419 788 l 439 799 q 447 799 442 800 q 458 799 453 799 q 470 794 467 799 q 476 785 474 789 q 481 774 479 779 q 486 763 483 769 q 492 750 489 757 q 500 735 496 743 q 508 718 504 726 q 518 703 513 710 q 524 699 521 701 q 529 694 528 696 q 535 692 532 693 q 542 689 538 692 q 549 688 544 688 q 554 688 553 688 q 557 685 557 688 q 554 683 557 683 q 544 680 549 682 q 535 676 539 678 q 524 674 531 675 q 511 671 518 674 q 496 668 506 668 q 490 669 492 668 q 486 671 488 671 q 479 679 481 675 q 471 688 478 686 q 464 701 467 692 q 456 721 463 713 q 452 728 454 724 q 447 736 450 732 q 446 743 447 739 q 443 750 444 747 q 436 763 442 763 q 429 761 432 764 l 424 753 q 418 748 422 750 q 410 743 414 746 q 403 736 407 740 q 393 732 399 732 q 388 729 389 732 q 386 725 388 726 l 379 721 q 369 715 375 721 q 355 707 363 711 q 340 697 347 703 q 308 678 326 688 q 289 668 304 674 q 269 663 278 663 m 569 788 q 559 787 565 786 q 554 789 553 788 q 551 791 551 788 q 554 799 551 794 q 572 826 561 814 q 594 850 582 839 q 619 885 615 871 q 622 895 621 890 q 622 904 622 900 q 597 926 622 926 q 575 921 586 926 q 554 908 564 915 l 544 901 q 539 898 540 899 q 536 893 538 897 q 528 883 535 889 q 518 878 522 878 q 504 883 504 876 q 533 917 504 897 q 550 927 542 924 q 567 940 558 931 q 597 953 578 951 q 625 954 615 956 q 656 949 653 950 q 672 931 668 944 q 676 927 674 929 q 678 922 678 925 l 678 919 q 674 903 678 913 q 667 881 671 894 q 654 865 660 871 q 642 850 649 858 q 619 831 638 843 q 607 822 613 825 q 596 815 601 819 l 586 808 l 576 797 l 569 788 z "},"Ẫ":{"ha":588,"x_min":-74,"x_max":625,"o":"m -32 -21 q -37 -21 -33 -21 q -47 -19 -40 -21 q -64 -18 -61 -19 q -69 -7 -74 -12 q -67 1 -69 -3 q -64 10 -65 6 q -51 26 -57 21 q -46 34 -49 31 q -42 39 -43 38 q -28 47 -36 40 q -19 57 -25 51 l -11 69 q 6 78 1 72 l 15 89 q 25 99 21 93 l 32 113 q 38 115 35 114 q 44 119 40 117 q 46 128 47 122 q 50 138 46 133 q 65 156 57 147 q 81 172 72 165 q 113 207 99 186 l 119 218 q 126 226 122 222 q 131 233 129 232 q 132 240 131 239 q 140 250 133 246 q 153 260 144 254 q 169 289 164 275 q 176 303 172 296 q 186 318 181 311 q 201 333 193 326 q 204 343 204 339 q 211 350 207 347 q 218 357 215 353 q 224 372 221 368 q 233 385 228 376 q 243 399 238 393 q 260 424 254 411 q 266 437 263 431 q 275 450 269 443 q 283 457 279 454 q 285 461 285 460 q 286 464 285 463 q 288 471 286 468 q 296 482 292 476 q 304 494 300 488 q 317 519 313 510 q 331 550 324 531 q 332 556 332 553 q 333 561 332 560 q 335 572 333 568 q 343 585 338 579 q 354 596 349 590 q 376 613 368 608 l 390 625 q 404 631 399 631 q 417 618 419 631 q 415 599 413 610 q 422 594 417 597 q 419 588 419 583 q 420 576 419 582 q 422 565 421 571 q 424 558 422 561 q 425 551 425 556 q 426 540 426 547 q 429 531 426 539 q 431 517 432 522 q 431 503 428 510 q 431 493 432 497 q 429 485 428 486 q 428 472 431 478 q 426 464 426 469 q 428 449 426 456 q 429 440 429 443 q 432 431 429 433 q 433 422 432 426 q 433 414 436 417 q 435 403 436 404 q 436 393 433 401 q 435 383 435 390 q 436 375 439 378 q 439 367 442 372 q 438 354 435 361 q 438 338 440 349 q 436 331 438 332 q 444 319 444 326 l 444 308 q 446 296 444 300 q 449 293 449 293 q 450 289 449 290 q 450 274 453 282 q 450 261 449 265 q 454 254 453 256 q 458 246 458 250 q 460 241 460 243 q 461 236 460 239 q 460 226 461 231 l 464 215 l 469 201 q 471 192 472 193 q 469 183 469 189 l 474 175 q 477 172 476 174 q 479 168 478 169 q 478 165 478 167 q 479 161 479 163 q 481 153 483 157 q 485 137 483 142 q 488 121 486 132 q 494 100 489 107 q 503 99 494 101 q 507 83 503 88 q 514 76 507 79 q 511 69 514 72 q 511 68 511 69 q 513 65 511 67 l 521 60 l 528 42 q 529 18 533 26 q 524 11 528 15 q 517 3 518 6 q 503 1 508 4 q 497 -1 500 0 q 489 -4 493 -3 q 482 -1 486 -1 q 474 0 475 -1 q 465 -1 469 -1 q 457 -1 461 -1 q 411 38 417 -1 q 414 46 411 43 q 419 53 415 49 q 425 58 425 56 q 426 68 429 63 l 426 72 q 429 83 426 75 q 438 101 436 94 q 433 113 433 106 q 436 125 433 117 q 439 132 436 129 l 435 136 q 432 148 435 143 q 435 160 429 153 q 429 165 429 160 q 428 171 429 168 q 426 176 428 174 q 428 189 428 178 q 431 203 428 200 q 422 221 426 207 q 414 238 418 236 q 406 237 411 238 q 394 235 401 236 q 376 229 378 231 q 360 224 368 226 q 344 219 351 222 q 329 215 338 217 q 311 211 321 214 q 274 207 293 207 l 197 207 q 188 208 194 207 q 172 208 182 208 q 158 211 163 211 q 151 211 153 211 q 115 176 129 200 q 99 153 108 163 q 83 133 90 143 l 71 117 l 63 104 l 58 99 q 39 78 43 90 q 35 63 36 71 q 32 49 33 56 l 28 18 q 14 -10 26 4 q -7 -21 6 -18 l -32 -21 m 354 243 q 365 243 360 243 q 375 244 369 243 q 387 244 382 244 q 397 246 392 244 q 406 247 403 247 q 410 247 408 247 q 415 251 413 250 q 417 256 415 254 q 419 260 418 258 q 415 267 417 263 q 410 275 413 271 q 404 301 404 282 q 404 314 407 304 q 404 326 403 325 q 400 332 400 331 l 396 344 q 393 358 396 350 q 389 364 389 363 q 386 381 385 375 q 385 389 386 385 q 383 397 385 393 l 379 415 q 378 428 379 425 q 376 439 376 431 q 351 486 372 465 l 350 486 q 336 475 344 481 q 322 464 328 469 l 314 450 l 306 433 q 299 425 303 429 q 290 417 294 421 q 274 396 281 407 q 276 386 272 390 l 264 372 l 250 358 q 248 351 249 354 q 247 346 247 349 q 238 339 244 342 q 228 331 229 336 l 224 322 q 222 317 222 321 q 218 311 221 314 l 214 307 q 213 307 214 307 q 211 306 213 307 q 210 300 211 303 q 208 299 208 300 q 207 296 208 297 q 200 292 204 296 l 183 275 l 178 265 q 179 261 176 261 q 201 250 185 253 q 221 250 218 247 l 231 256 q 238 256 233 256 q 244 254 242 256 q 263 250 251 251 q 276 249 269 249 q 289 247 282 249 q 303 246 296 246 q 317 246 311 246 q 339 247 333 246 q 341 247 340 247 q 342 246 342 246 q 343 243 342 243 l 354 243 m 269 663 q 263 667 267 663 q 260 672 260 671 q 263 681 260 681 l 274 685 q 279 686 276 685 q 283 689 282 688 q 295 696 289 692 q 307 703 301 700 l 332 715 q 342 723 339 718 q 350 729 346 728 q 358 737 353 733 q 368 743 364 740 q 375 752 371 749 q 381 758 379 756 q 388 765 385 761 q 394 771 390 768 q 407 778 403 776 q 415 783 411 779 q 421 789 419 788 l 439 799 q 447 799 442 800 q 458 799 453 799 q 470 794 467 799 q 476 785 474 789 q 481 774 479 779 q 486 763 483 769 q 492 750 489 757 q 500 735 496 743 q 508 718 504 726 q 518 703 513 710 q 524 699 521 701 q 529 694 528 696 q 535 692 532 693 q 542 689 538 692 q 549 688 544 688 q 554 688 553 688 q 557 685 557 688 q 554 683 557 683 q 544 680 549 682 q 535 676 539 678 q 524 674 531 675 q 511 671 518 674 q 496 668 506 668 q 490 669 492 668 q 486 671 488 671 q 479 679 481 675 q 471 688 478 686 q 464 701 467 692 q 456 721 463 713 q 452 728 454 724 q 447 736 450 732 q 446 743 447 739 q 443 750 444 747 q 436 763 442 763 q 429 761 432 764 l 424 753 q 418 748 422 750 q 410 743 414 746 q 403 736 407 740 q 393 732 399 732 q 388 729 389 732 q 386 725 388 726 l 379 721 q 369 715 375 721 q 355 707 363 711 q 340 697 347 703 q 308 678 326 688 q 289 668 304 674 q 269 663 278 663 m 376 849 q 363 853 369 849 q 361 856 361 853 q 365 860 361 857 q 368 868 368 864 q 373 873 369 871 q 378 881 376 875 q 384 888 381 883 q 393 894 388 893 q 403 903 400 899 q 408 908 406 907 q 421 917 417 915 q 431 922 424 919 q 442 922 439 924 l 451 918 q 461 916 457 917 q 467 914 465 915 q 481 909 474 911 q 492 904 488 907 q 513 899 508 903 q 524 896 517 897 q 532 893 531 894 q 546 890 536 890 q 549 890 547 890 q 551 889 550 889 q 565 893 557 889 q 574 895 569 896 q 585 900 579 894 q 594 910 590 906 q 601 919 597 914 q 606 928 604 924 q 615 932 608 932 q 624 927 622 932 q 625 918 625 922 q 618 899 625 907 q 599 878 611 890 q 551 850 576 856 q 549 849 550 850 q 544 849 547 849 q 531 851 538 849 q 521 853 524 853 q 501 856 508 853 q 489 860 494 858 q 474 863 481 861 q 461 864 467 864 q 448 869 453 867 q 438 874 443 871 q 428 878 431 876 q 418 881 426 881 q 404 876 407 879 q 399 874 401 874 q 392 868 393 871 q 388 861 390 865 q 384 856 386 860 q 382 850 382 853 q 376 849 381 849 z "},"Ȁ":{"ha":588,"x_min":-74,"x_max":533,"o":"m 442 685 q 417 692 435 686 q 408 697 413 694 q 397 703 403 700 q 389 709 393 706 q 379 713 385 713 q 367 719 371 718 q 350 728 353 726 q 346 733 347 731 q 340 735 343 735 q 332 739 336 736 q 331 740 332 739 q 328 742 329 740 q 325 742 326 743 q 322 744 322 743 q 321 744 322 744 q 311 749 317 746 l 308 754 q 304 754 308 754 l 292 763 l 282 767 q 278 771 279 768 q 275 774 278 774 l 269 776 q 260 783 265 776 q 256 783 258 785 q 256 786 250 785 q 269 789 261 788 q 279 789 274 789 q 293 790 285 789 q 306 794 299 792 q 319 796 313 797 q 338 790 336 793 q 346 779 340 786 q 358 772 349 776 q 372 761 368 767 l 385 744 q 390 739 388 743 q 394 731 392 735 q 401 725 397 728 q 408 719 406 722 q 410 719 410 719 q 415 717 411 718 q 418 712 417 715 q 425 704 419 708 q 438 694 428 699 q 444 685 444 692 l 442 685 m 353 686 q 328 690 347 686 q 318 694 322 692 q 307 699 314 697 q 297 703 301 700 q 288 706 293 706 q 274 710 279 710 q 257 717 260 715 q 251 721 254 719 q 245 723 249 722 q 238 725 242 724 q 236 725 238 725 q 233 726 235 725 q 229 726 232 729 q 228 728 228 728 q 225 729 228 729 q 215 732 221 729 l 211 736 q 207 736 211 736 l 194 743 l 183 746 q 181 749 182 747 q 176 751 179 751 l 169 753 q 160 758 165 753 q 156 758 158 761 q 156 761 150 758 q 168 765 160 764 q 178 767 172 767 q 192 771 183 768 q 204 776 197 774 q 217 779 211 779 q 236 776 233 779 q 246 767 239 774 q 259 761 249 765 q 274 753 269 757 l 289 738 q 294 733 292 736 q 300 725 297 729 q 308 722 303 724 q 315 717 313 719 q 317 716 317 717 q 322 714 318 715 q 327 710 325 713 q 335 703 329 707 q 347 696 338 699 q 356 686 356 694 l 353 686 m -32 -21 q -37 -21 -33 -21 q -47 -19 -40 -21 q -64 -18 -61 -19 q -69 -7 -74 -12 q -67 1 -69 -3 q -64 10 -65 6 q -51 26 -57 21 q -46 34 -49 31 q -42 39 -43 38 q -28 47 -36 40 q -19 57 -25 51 l -11 69 q 6 78 1 72 l 15 89 q 25 99 21 93 l 32 113 q 38 115 35 114 q 44 119 40 117 q 46 128 47 122 q 50 138 46 133 q 65 156 57 147 q 81 172 72 165 q 113 207 99 186 l 119 218 q 126 226 122 222 q 131 233 129 232 q 132 240 131 239 q 140 250 133 246 q 153 260 144 254 q 169 289 164 275 q 176 303 172 296 q 186 318 181 311 q 201 333 193 326 q 204 343 204 339 q 211 350 207 347 q 218 357 215 353 q 224 372 221 368 q 233 385 228 376 q 243 399 238 393 q 260 424 254 411 q 266 437 263 431 q 275 450 269 443 q 283 457 279 454 q 285 461 285 460 q 286 464 285 463 q 288 471 286 468 q 296 482 292 476 q 304 494 300 488 q 317 519 313 510 q 331 550 324 531 q 332 556 332 553 q 333 561 332 560 q 335 572 333 568 q 343 585 338 579 q 354 596 349 590 q 376 613 368 608 l 390 625 q 404 631 399 631 q 417 618 419 631 q 415 599 413 610 q 422 594 417 597 q 419 588 419 583 q 420 576 419 582 q 422 565 421 571 q 424 558 422 561 q 425 551 425 556 q 426 540 426 547 q 429 531 426 539 q 431 517 432 522 q 431 503 428 510 q 431 493 432 497 q 429 485 428 486 q 428 472 431 478 q 426 464 426 469 q 428 449 426 456 q 429 440 429 443 q 432 431 429 433 q 433 422 432 426 q 433 414 436 417 q 435 403 436 404 q 436 393 433 401 q 435 383 435 390 q 436 375 439 378 q 439 367 442 372 q 438 354 435 361 q 438 338 440 349 q 436 331 438 332 q 444 319 444 326 l 444 308 q 446 296 444 300 q 449 293 449 293 q 450 289 449 290 q 450 274 453 282 q 450 261 449 265 q 454 254 453 256 q 458 246 458 250 q 460 241 460 243 q 461 236 460 239 q 460 226 461 231 l 464 215 l 469 201 q 471 192 472 193 q 469 183 469 189 l 474 175 q 477 172 476 174 q 479 168 478 169 q 478 165 478 167 q 479 161 479 163 q 481 153 483 157 q 485 137 483 142 q 488 121 486 132 q 494 100 489 107 q 503 99 494 101 q 507 83 503 88 q 514 76 507 79 q 511 69 514 72 q 511 68 511 69 q 513 65 511 67 l 521 60 l 528 42 q 529 18 533 26 q 524 11 528 15 q 517 3 518 6 q 503 1 508 4 q 497 -1 500 0 q 489 -4 493 -3 q 482 -1 486 -1 q 474 0 475 -1 q 465 -1 469 -1 q 457 -1 461 -1 q 411 38 417 -1 q 414 46 411 43 q 419 53 415 49 q 425 58 425 56 q 426 68 429 63 l 426 72 q 429 83 426 75 q 438 101 436 94 q 433 113 433 106 q 436 125 433 117 q 439 132 436 129 l 435 136 q 432 148 435 143 q 435 160 429 153 q 429 165 429 160 q 428 171 429 168 q 426 176 428 174 q 428 189 428 178 q 431 203 428 200 q 422 221 426 207 q 414 238 418 236 q 406 237 411 238 q 394 235 401 236 q 376 229 378 231 q 360 224 368 226 q 344 219 351 222 q 329 215 338 217 q 311 211 321 214 q 274 207 293 207 l 197 207 q 188 208 194 207 q 172 208 182 208 q 158 211 163 211 q 151 211 153 211 q 115 176 129 200 q 99 153 108 163 q 83 133 90 143 l 71 117 l 63 104 l 58 99 q 39 78 43 90 q 35 63 36 71 q 32 49 33 56 l 28 18 q 14 -10 26 4 q -7 -21 6 -18 l -32 -21 m 354 243 q 365 243 360 243 q 375 244 369 243 q 387 244 382 244 q 397 246 392 244 q 406 247 403 247 q 410 247 408 247 q 415 251 413 250 q 417 256 415 254 q 419 260 418 258 q 415 267 417 263 q 410 275 413 271 q 404 301 404 282 q 404 314 407 304 q 404 326 403 325 q 400 332 400 331 l 396 344 q 393 358 396 350 q 389 364 389 363 q 386 381 385 375 q 385 389 386 385 q 383 397 385 393 l 379 415 q 378 428 379 425 q 376 439 376 431 q 351 486 372 465 l 350 486 q 336 475 344 481 q 322 464 328 469 l 314 450 l 306 433 q 299 425 303 429 q 290 417 294 421 q 274 396 281 407 q 276 386 272 390 l 264 372 l 250 358 q 248 351 249 354 q 247 346 247 349 q 238 339 244 342 q 228 331 229 336 l 224 322 q 222 317 222 321 q 218 311 221 314 l 214 307 q 213 307 214 307 q 211 306 213 307 q 210 300 211 303 q 208 299 208 300 q 207 296 208 297 q 200 292 204 296 l 183 275 l 178 265 q 179 261 176 261 q 201 250 185 253 q 221 250 218 247 l 231 256 q 238 256 233 256 q 244 254 242 256 q 263 250 251 251 q 276 249 269 249 q 289 247 282 249 q 303 246 296 246 q 317 246 311 246 q 339 247 333 246 q 341 247 340 247 q 342 246 342 246 q 343 243 342 243 l 354 243 m 353 686 q 328 690 347 686 q 318 694 322 692 q 307 699 314 697 q 297 703 301 700 q 288 706 293 706 q 274 710 279 710 q 257 717 260 715 q 251 721 254 719 q 245 723 249 722 q 238 725 242 724 q 236 725 238 725 q 233 726 235 725 q 229 726 232 729 q 228 728 228 728 q 225 729 228 729 q 215 732 221 729 l 211 736 q 207 736 211 736 l 194 743 l 183 746 q 181 749 182 747 q 176 751 179 751 l 169 753 q 160 758 165 753 q 156 758 158 761 q 156 761 150 758 q 168 765 160 764 q 178 767 172 767 q 192 771 183 768 q 204 776 197 774 q 217 779 211 779 q 236 776 233 779 q 246 767 239 774 q 259 761 249 765 q 274 753 269 757 l 289 738 q 294 733 292 736 q 300 725 297 729 q 308 722 303 724 q 315 717 313 719 q 317 716 317 717 q 322 714 318 715 q 327 710 325 713 q 335 703 329 707 q 347 696 338 699 q 356 686 356 694 l 353 686 z "},"Ä":{"ha":588,"x_min":-74,"x_max":533,"o":"m -32 -21 q -37 -21 -33 -21 q -47 -19 -40 -21 q -64 -18 -61 -19 q -69 -7 -74 -12 q -67 1 -69 -3 q -64 10 -65 6 q -51 26 -57 21 q -46 34 -49 31 q -42 39 -43 38 q -28 47 -36 40 q -19 57 -25 51 l -11 69 q 6 78 1 72 l 15 89 q 25 99 21 93 l 32 113 q 38 115 35 114 q 44 119 40 117 q 46 128 47 122 q 50 138 46 133 q 65 156 57 147 q 81 172 72 165 q 113 207 99 186 l 119 218 q 126 226 122 222 q 131 233 129 232 q 132 240 131 239 q 140 250 133 246 q 153 260 144 254 q 169 289 164 275 q 176 303 172 296 q 186 318 181 311 q 201 333 193 326 q 204 343 204 339 q 211 350 207 347 q 218 357 215 353 q 224 372 221 368 q 233 385 228 376 q 243 399 238 393 q 260 424 254 411 q 266 437 263 431 q 275 450 269 443 q 283 457 279 454 q 285 461 285 460 q 286 464 285 463 q 288 471 286 468 q 296 482 292 476 q 304 494 300 488 q 317 519 313 510 q 331 550 324 531 q 332 556 332 553 q 333 561 332 560 q 335 572 333 568 q 343 585 338 579 q 354 596 349 590 q 376 613 368 608 l 390 625 q 404 631 399 631 q 417 618 419 631 q 415 599 413 610 q 422 594 417 597 q 419 588 419 583 q 420 576 419 582 q 422 565 421 571 q 424 558 422 561 q 425 551 425 556 q 426 540 426 547 q 429 531 426 539 q 431 517 432 522 q 431 503 428 510 q 431 493 432 497 q 429 485 428 486 q 428 472 431 478 q 426 464 426 469 q 428 449 426 456 q 429 440 429 443 q 432 431 429 433 q 433 422 432 426 q 433 414 436 417 q 435 403 436 404 q 436 393 433 401 q 435 383 435 390 q 436 375 439 378 q 439 367 442 372 q 438 354 435 361 q 438 338 440 349 q 436 331 438 332 q 444 319 444 326 l 444 308 q 446 296 444 300 q 449 293 449 293 q 450 289 449 290 q 450 274 453 282 q 450 261 449 265 q 454 254 453 256 q 458 246 458 250 q 460 241 460 243 q 461 236 460 239 q 460 226 461 231 l 464 215 l 469 201 q 471 192 472 193 q 469 183 469 189 l 474 175 q 477 172 476 174 q 479 168 478 169 q 478 165 478 167 q 479 161 479 163 q 481 153 483 157 q 485 137 483 142 q 488 121 486 132 q 494 100 489 107 q 503 99 494 101 q 507 83 503 88 q 514 76 507 79 q 511 69 514 72 q 511 68 511 69 q 513 65 511 67 l 521 60 l 528 42 q 529 18 533 26 q 524 11 528 15 q 517 3 518 6 q 503 1 508 4 q 497 -1 500 0 q 489 -4 493 -3 q 482 -1 486 -1 q 474 0 475 -1 q 465 -1 469 -1 q 457 -1 461 -1 q 411 38 417 -1 q 414 46 411 43 q 419 53 415 49 q 425 58 425 56 q 426 68 429 63 l 426 72 q 429 83 426 75 q 438 101 436 94 q 433 113 433 106 q 436 125 433 117 q 439 132 436 129 l 435 136 q 432 148 435 143 q 435 160 429 153 q 429 165 429 160 q 428 171 429 168 q 426 176 428 174 q 428 189 428 178 q 431 203 428 200 q 422 221 426 207 q 414 238 418 236 q 406 237 411 238 q 394 235 401 236 q 376 229 378 231 q 360 224 368 226 q 344 219 351 222 q 329 215 338 217 q 311 211 321 214 q 274 207 293 207 l 197 207 q 188 208 194 207 q 172 208 182 208 q 158 211 163 211 q 151 211 153 211 q 115 176 129 200 q 99 153 108 163 q 83 133 90 143 l 71 117 l 63 104 l 58 99 q 39 78 43 90 q 35 63 36 71 q 32 49 33 56 l 28 18 q 14 -10 26 4 q -7 -21 6 -18 l -32 -21 m 354 243 q 365 243 360 243 q 375 244 369 243 q 387 244 382 244 q 397 246 392 244 q 406 247 403 247 q 410 247 408 247 q 415 251 413 250 q 417 256 415 254 q 419 260 418 258 q 415 267 417 263 q 410 275 413 271 q 404 301 404 282 q 404 314 407 304 q 404 326 403 325 q 400 332 400 331 l 396 344 q 393 358 396 350 q 389 364 389 363 q 386 381 385 375 q 385 389 386 385 q 383 397 385 393 l 379 415 q 378 428 379 425 q 376 439 376 431 q 351 486 372 465 l 350 486 q 336 475 344 481 q 322 464 328 469 l 314 450 l 306 433 q 299 425 303 429 q 290 417 294 421 q 274 396 281 407 q 276 386 272 390 l 264 372 l 250 358 q 248 351 249 354 q 247 346 247 349 q 238 339 244 342 q 228 331 229 336 l 224 322 q 222 317 222 321 q 218 311 221 314 l 214 307 q 213 307 214 307 q 211 306 213 307 q 210 300 211 303 q 208 299 208 300 q 207 296 208 297 q 200 292 204 296 l 183 275 l 178 265 q 179 261 176 261 q 201 250 185 253 q 221 250 218 247 l 231 256 q 238 256 233 256 q 244 254 242 256 q 263 250 251 251 q 276 249 269 249 q 289 247 282 249 q 303 246 296 246 q 317 246 311 246 q 339 247 333 246 q 341 247 340 247 q 342 246 342 246 q 343 243 342 243 l 354 243 m 446 686 q 425 700 426 690 q 424 711 422 706 l 426 726 q 432 735 429 731 q 440 742 435 740 q 453 744 447 744 q 465 744 460 744 q 476 742 474 744 q 488 721 486 735 q 488 707 490 711 q 472 689 482 694 q 458 685 467 685 q 446 686 450 685 m 333 686 q 313 700 313 686 q 311 711 310 706 l 314 726 q 319 735 317 731 q 328 742 322 740 q 342 744 336 743 q 353 744 347 744 q 364 742 361 744 q 375 721 374 728 q 375 707 378 710 q 360 689 368 690 l 347 686 l 333 686 z "},"Ạ":{"ha":588,"x_min":-74,"x_max":533,"o":"m -32 -21 q -37 -21 -33 -21 q -47 -19 -40 -21 q -64 -18 -61 -19 q -69 -7 -74 -12 q -67 1 -69 -3 q -64 10 -65 6 q -51 26 -57 21 q -46 34 -49 31 q -42 39 -43 38 q -28 47 -36 40 q -19 57 -25 51 l -11 69 q 6 78 1 72 l 15 89 q 25 99 21 93 l 32 113 q 38 115 35 114 q 44 119 40 117 q 46 128 47 122 q 50 138 46 133 q 65 156 57 147 q 81 172 72 165 q 113 207 99 186 l 119 218 q 126 226 122 222 q 131 233 129 232 q 132 240 131 239 q 140 250 133 246 q 153 260 144 254 q 169 289 164 275 q 176 303 172 296 q 186 318 181 311 q 201 333 193 326 q 204 343 204 339 q 211 350 207 347 q 218 357 215 353 q 224 372 221 368 q 233 385 228 376 q 243 399 238 393 q 260 424 254 411 q 266 437 263 431 q 275 450 269 443 q 283 457 279 454 q 285 461 285 460 q 286 464 285 463 q 288 471 286 468 q 296 482 292 476 q 304 494 300 488 q 317 519 313 510 q 331 550 324 531 q 332 556 332 553 q 333 561 332 560 q 335 572 333 568 q 343 585 338 579 q 354 596 349 590 q 376 613 368 608 l 390 625 q 404 631 399 631 q 417 618 419 631 q 415 599 413 610 q 422 594 417 597 q 419 588 419 583 q 420 576 419 582 q 422 565 421 571 q 424 558 422 561 q 425 551 425 556 q 426 540 426 547 q 429 531 426 539 q 431 517 432 522 q 431 503 428 510 q 431 493 432 497 q 429 485 428 486 q 428 472 431 478 q 426 464 426 469 q 428 449 426 456 q 429 440 429 443 q 432 431 429 433 q 433 422 432 426 q 433 414 436 417 q 435 403 436 404 q 436 393 433 401 q 435 383 435 390 q 436 375 439 378 q 439 367 442 372 q 438 354 435 361 q 438 338 440 349 q 436 331 438 332 q 444 319 444 326 l 444 308 q 446 296 444 300 q 449 293 449 293 q 450 289 449 290 q 450 274 453 282 q 450 261 449 265 q 454 254 453 256 q 458 246 458 250 q 460 241 460 243 q 461 236 460 239 q 460 226 461 231 l 464 215 l 469 201 q 471 192 472 193 q 469 183 469 189 l 474 175 q 477 172 476 174 q 479 168 478 169 q 478 165 478 167 q 479 161 479 163 q 481 153 483 157 q 485 137 483 142 q 488 121 486 132 q 494 100 489 107 q 503 99 494 101 q 507 83 503 88 q 514 76 507 79 q 511 69 514 72 q 511 68 511 69 q 513 65 511 67 l 521 60 l 528 42 q 529 18 533 26 q 524 11 528 15 q 517 3 518 6 q 503 1 508 4 q 497 -1 500 0 q 489 -4 493 -3 q 482 -1 486 -1 q 474 0 475 -1 q 465 -1 469 -1 q 457 -1 461 -1 q 411 38 417 -1 q 414 46 411 43 q 419 53 415 49 q 425 58 425 56 q 426 68 429 63 l 426 72 q 429 83 426 75 q 438 101 436 94 q 433 113 433 106 q 436 125 433 117 q 439 132 436 129 l 435 136 q 432 148 435 143 q 435 160 429 153 q 429 165 429 160 q 428 171 429 168 q 426 176 428 174 q 428 189 428 178 q 431 203 428 200 q 422 221 426 207 q 414 238 418 236 q 406 237 411 238 q 394 235 401 236 q 376 229 378 231 q 360 224 368 226 q 344 219 351 222 q 329 215 338 217 q 311 211 321 214 q 274 207 293 207 l 197 207 q 188 208 194 207 q 172 208 182 208 q 158 211 163 211 q 151 211 153 211 q 115 176 129 200 q 99 153 108 163 q 83 133 90 143 l 71 117 l 63 104 l 58 99 q 39 78 43 90 q 35 63 36 71 q 32 49 33 56 l 28 18 q 14 -10 26 4 q -7 -21 6 -18 l -32 -21 m 354 243 q 365 243 360 243 q 375 244 369 243 q 387 244 382 244 q 397 246 392 244 q 406 247 403 247 q 410 247 408 247 q 415 251 413 250 q 417 256 415 254 q 419 260 418 258 q 415 267 417 263 q 410 275 413 271 q 404 301 404 282 q 404 314 407 304 q 404 326 403 325 q 400 332 400 331 l 396 344 q 393 358 396 350 q 389 364 389 363 q 386 381 385 375 q 385 389 386 385 q 383 397 385 393 l 379 415 q 378 428 379 425 q 376 439 376 431 q 351 486 372 465 l 350 486 q 336 475 344 481 q 322 464 328 469 l 314 450 l 306 433 q 299 425 303 429 q 290 417 294 421 q 274 396 281 407 q 276 386 272 390 l 264 372 l 250 358 q 248 351 249 354 q 247 346 247 349 q 238 339 244 342 q 228 331 229 336 l 224 322 q 222 317 222 321 q 218 311 221 314 l 214 307 q 213 307 214 307 q 211 306 213 307 q 210 300 211 303 q 208 299 208 300 q 207 296 208 297 q 200 292 204 296 l 183 275 l 178 265 q 179 261 176 261 q 201 250 185 253 q 221 250 218 247 l 231 256 q 238 256 233 256 q 244 254 242 256 q 263 250 251 251 q 276 249 269 249 q 289 247 282 249 q 303 246 296 246 q 317 246 311 246 q 339 247 333 246 q 341 247 340 247 q 342 246 342 246 q 343 243 342 243 l 354 243 m 214 -125 q 193 -111 193 -125 q 192 -100 190 -106 l 194 -85 q 200 -76 197 -81 q 208 -69 203 -71 q 222 -67 217 -68 q 233 -67 228 -67 q 244 -69 242 -67 q 256 -90 254 -83 q 256 -104 258 -101 q 240 -122 249 -121 l 228 -125 l 214 -125 z "},"À":{"ha":588,"x_min":-74,"x_max":533,"o":"m -32 -21 q -37 -21 -33 -21 q -47 -19 -40 -21 q -64 -18 -61 -19 q -69 -7 -74 -12 q -67 1 -69 -3 q -64 10 -65 6 q -51 26 -57 21 q -46 34 -49 31 q -42 39 -43 38 q -28 47 -36 40 q -19 57 -25 51 l -11 69 q 6 78 1 72 l 15 89 q 25 99 21 93 l 32 113 q 38 115 35 114 q 44 119 40 117 q 46 128 47 122 q 50 138 46 133 q 65 156 57 147 q 81 172 72 165 q 113 207 99 186 l 119 218 q 126 226 122 222 q 131 233 129 232 q 132 240 131 239 q 140 250 133 246 q 153 260 144 254 q 169 289 164 275 q 176 303 172 296 q 186 318 181 311 q 201 333 193 326 q 204 343 204 339 q 211 350 207 347 q 218 357 215 353 q 224 372 221 368 q 233 385 228 376 q 243 399 238 393 q 260 424 254 411 q 266 437 263 431 q 275 450 269 443 q 283 457 279 454 q 285 461 285 460 q 286 464 285 463 q 288 471 286 468 q 296 482 292 476 q 304 494 300 488 q 317 519 313 510 q 331 550 324 531 q 332 556 332 553 q 333 561 332 560 q 335 572 333 568 q 343 585 338 579 q 354 596 349 590 q 376 613 368 608 l 390 625 q 404 631 399 631 q 417 618 419 631 q 415 599 413 610 q 422 594 417 597 q 419 588 419 583 q 420 576 419 582 q 422 565 421 571 q 424 558 422 561 q 425 551 425 556 q 426 540 426 547 q 429 531 426 539 q 431 517 432 522 q 431 503 428 510 q 431 493 432 497 q 429 485 428 486 q 428 472 431 478 q 426 464 426 469 q 428 449 426 456 q 429 440 429 443 q 432 431 429 433 q 433 422 432 426 q 433 414 436 417 q 435 403 436 404 q 436 393 433 401 q 435 383 435 390 q 436 375 439 378 q 439 367 442 372 q 438 354 435 361 q 438 338 440 349 q 436 331 438 332 q 444 319 444 326 l 444 308 q 446 296 444 300 q 449 293 449 293 q 450 289 449 290 q 450 274 453 282 q 450 261 449 265 q 454 254 453 256 q 458 246 458 250 q 460 241 460 243 q 461 236 460 239 q 460 226 461 231 l 464 215 l 469 201 q 471 192 472 193 q 469 183 469 189 l 474 175 q 477 172 476 174 q 479 168 478 169 q 478 165 478 167 q 479 161 479 163 q 481 153 483 157 q 485 137 483 142 q 488 121 486 132 q 494 100 489 107 q 503 99 494 101 q 507 83 503 88 q 514 76 507 79 q 511 69 514 72 q 511 68 511 69 q 513 65 511 67 l 521 60 l 528 42 q 529 18 533 26 q 524 11 528 15 q 517 3 518 6 q 503 1 508 4 q 497 -1 500 0 q 489 -4 493 -3 q 482 -1 486 -1 q 474 0 475 -1 q 465 -1 469 -1 q 457 -1 461 -1 q 411 38 417 -1 q 414 46 411 43 q 419 53 415 49 q 425 58 425 56 q 426 68 429 63 l 426 72 q 429 83 426 75 q 438 101 436 94 q 433 113 433 106 q 436 125 433 117 q 439 132 436 129 l 435 136 q 432 148 435 143 q 435 160 429 153 q 429 165 429 160 q 428 171 429 168 q 426 176 428 174 q 428 189 428 178 q 431 203 428 200 q 422 221 426 207 q 414 238 418 236 q 406 237 411 238 q 394 235 401 236 q 376 229 378 231 q 360 224 368 226 q 344 219 351 222 q 329 215 338 217 q 311 211 321 214 q 274 207 293 207 l 197 207 q 188 208 194 207 q 172 208 182 208 q 158 211 163 211 q 151 211 153 211 q 115 176 129 200 q 99 153 108 163 q 83 133 90 143 l 71 117 l 63 104 l 58 99 q 39 78 43 90 q 35 63 36 71 q 32 49 33 56 l 28 18 q 14 -10 26 4 q -7 -21 6 -18 l -32 -21 m 354 243 q 365 243 360 243 q 375 244 369 243 q 387 244 382 244 q 397 246 392 244 q 406 247 403 247 q 410 247 408 247 q 415 251 413 250 q 417 256 415 254 q 419 260 418 258 q 415 267 417 263 q 410 275 413 271 q 404 301 404 282 q 404 314 407 304 q 404 326 403 325 q 400 332 400 331 l 396 344 q 393 358 396 350 q 389 364 389 363 q 386 381 385 375 q 385 389 386 385 q 383 397 385 393 l 379 415 q 378 428 379 425 q 376 439 376 431 q 351 486 372 465 l 350 486 q 336 475 344 481 q 322 464 328 469 l 314 450 l 306 433 q 299 425 303 429 q 290 417 294 421 q 274 396 281 407 q 276 386 272 390 l 264 372 l 250 358 q 248 351 249 354 q 247 346 247 349 q 238 339 244 342 q 228 331 229 336 l 224 322 q 222 317 222 321 q 218 311 221 314 l 214 307 q 213 307 214 307 q 211 306 213 307 q 210 300 211 303 q 208 299 208 300 q 207 296 208 297 q 200 292 204 296 l 183 275 l 178 265 q 179 261 176 261 q 201 250 185 253 q 221 250 218 247 l 231 256 q 238 256 233 256 q 244 254 242 256 q 263 250 251 251 q 276 249 269 249 q 289 247 282 249 q 303 246 296 246 q 317 246 311 246 q 339 247 333 246 q 341 247 340 247 q 342 246 342 246 q 343 243 342 243 l 354 243 m 471 686 q 446 690 465 686 q 436 694 440 692 q 425 699 432 697 q 415 703 419 700 q 406 706 411 706 q 392 710 397 710 q 375 717 378 715 q 369 721 372 719 q 363 723 367 722 q 356 725 360 724 q 354 725 356 725 q 351 726 353 725 q 347 726 350 729 q 346 728 346 728 q 343 729 346 729 q 333 732 339 729 l 329 736 q 325 736 329 736 l 313 743 l 301 746 q 299 749 300 747 q 294 751 297 751 l 288 753 q 278 758 283 753 q 274 758 276 761 q 274 761 268 758 q 286 765 278 764 q 296 767 290 767 q 310 771 301 768 q 322 776 315 774 q 335 779 329 779 q 354 776 351 779 q 364 767 357 774 q 377 761 367 765 q 392 753 388 757 l 407 738 q 413 733 410 736 q 418 725 415 729 q 426 722 421 724 q 433 717 431 719 q 435 716 435 717 q 440 714 436 715 q 445 710 443 713 q 453 703 447 707 q 465 696 456 699 q 474 686 474 694 l 471 686 z "},"Ả":{"ha":588,"x_min":-74,"x_max":539,"o":"m -32 -21 q -37 -21 -33 -21 q -47 -19 -40 -21 q -64 -18 -61 -19 q -69 -7 -74 -12 q -67 1 -69 -3 q -64 10 -65 6 q -51 26 -57 21 q -46 34 -49 31 q -42 39 -43 38 q -28 47 -36 40 q -19 57 -25 51 l -11 69 q 6 78 1 72 l 15 89 q 25 99 21 93 l 32 113 q 38 115 35 114 q 44 119 40 117 q 46 128 47 122 q 50 138 46 133 q 65 156 57 147 q 81 172 72 165 q 113 207 99 186 l 119 218 q 126 226 122 222 q 131 233 129 232 q 132 240 131 239 q 140 250 133 246 q 153 260 144 254 q 169 289 164 275 q 176 303 172 296 q 186 318 181 311 q 201 333 193 326 q 204 343 204 339 q 211 350 207 347 q 218 357 215 353 q 224 372 221 368 q 233 385 228 376 q 243 399 238 393 q 260 424 254 411 q 266 437 263 431 q 275 450 269 443 q 283 457 279 454 q 285 461 285 460 q 286 464 285 463 q 288 471 286 468 q 296 482 292 476 q 304 494 300 488 q 317 519 313 510 q 331 550 324 531 q 332 556 332 553 q 333 561 332 560 q 335 572 333 568 q 343 585 338 579 q 354 596 349 590 q 376 613 368 608 l 390 625 q 404 631 399 631 q 417 618 419 631 q 415 599 413 610 q 422 594 417 597 q 419 588 419 583 q 420 576 419 582 q 422 565 421 571 q 424 558 422 561 q 425 551 425 556 q 426 540 426 547 q 429 531 426 539 q 431 517 432 522 q 431 503 428 510 q 431 493 432 497 q 429 485 428 486 q 428 472 431 478 q 426 464 426 469 q 428 449 426 456 q 429 440 429 443 q 432 431 429 433 q 433 422 432 426 q 433 414 436 417 q 435 403 436 404 q 436 393 433 401 q 435 383 435 390 q 436 375 439 378 q 439 367 442 372 q 438 354 435 361 q 438 338 440 349 q 436 331 438 332 q 444 319 444 326 l 444 308 q 446 296 444 300 q 449 293 449 293 q 450 289 449 290 q 450 274 453 282 q 450 261 449 265 q 454 254 453 256 q 458 246 458 250 q 460 241 460 243 q 461 236 460 239 q 460 226 461 231 l 464 215 l 469 201 q 471 192 472 193 q 469 183 469 189 l 474 175 q 477 172 476 174 q 479 168 478 169 q 478 165 478 167 q 479 161 479 163 q 481 153 483 157 q 485 137 483 142 q 488 121 486 132 q 494 100 489 107 q 503 99 494 101 q 507 83 503 88 q 514 76 507 79 q 511 69 514 72 q 511 68 511 69 q 513 65 511 67 l 521 60 l 528 42 q 529 18 533 26 q 524 11 528 15 q 517 3 518 6 q 503 1 508 4 q 497 -1 500 0 q 489 -4 493 -3 q 482 -1 486 -1 q 474 0 475 -1 q 465 -1 469 -1 q 457 -1 461 -1 q 411 38 417 -1 q 414 46 411 43 q 419 53 415 49 q 425 58 425 56 q 426 68 429 63 l 426 72 q 429 83 426 75 q 438 101 436 94 q 433 113 433 106 q 436 125 433 117 q 439 132 436 129 l 435 136 q 432 148 435 143 q 435 160 429 153 q 429 165 429 160 q 428 171 429 168 q 426 176 428 174 q 428 189 428 178 q 431 203 428 200 q 422 221 426 207 q 414 238 418 236 q 406 237 411 238 q 394 235 401 236 q 376 229 378 231 q 360 224 368 226 q 344 219 351 222 q 329 215 338 217 q 311 211 321 214 q 274 207 293 207 l 197 207 q 188 208 194 207 q 172 208 182 208 q 158 211 163 211 q 151 211 153 211 q 115 176 129 200 q 99 153 108 163 q 83 133 90 143 l 71 117 l 63 104 l 58 99 q 39 78 43 90 q 35 63 36 71 q 32 49 33 56 l 28 18 q 14 -10 26 4 q -7 -21 6 -18 l -32 -21 m 354 243 q 365 243 360 243 q 375 244 369 243 q 387 244 382 244 q 397 246 392 244 q 406 247 403 247 q 410 247 408 247 q 415 251 413 250 q 417 256 415 254 q 419 260 418 258 q 415 267 417 263 q 410 275 413 271 q 404 301 404 282 q 404 314 407 304 q 404 326 403 325 q 400 332 400 331 l 396 344 q 393 358 396 350 q 389 364 389 363 q 386 381 385 375 q 385 389 386 385 q 383 397 385 393 l 379 415 q 378 428 379 425 q 376 439 376 431 q 351 486 372 465 l 350 486 q 336 475 344 481 q 322 464 328 469 l 314 450 l 306 433 q 299 425 303 429 q 290 417 294 421 q 274 396 281 407 q 276 386 272 390 l 264 372 l 250 358 q 248 351 249 354 q 247 346 247 349 q 238 339 244 342 q 228 331 229 336 l 224 322 q 222 317 222 321 q 218 311 221 314 l 214 307 q 213 307 214 307 q 211 306 213 307 q 210 300 211 303 q 208 299 208 300 q 207 296 208 297 q 200 292 204 296 l 183 275 l 178 265 q 179 261 176 261 q 201 250 185 253 q 221 250 218 247 l 231 256 q 238 256 233 256 q 244 254 242 256 q 263 250 251 251 q 276 249 269 249 q 289 247 282 249 q 303 246 296 246 q 317 246 311 246 q 339 247 333 246 q 341 247 340 247 q 342 246 342 246 q 343 243 342 243 l 354 243 m 431 686 q 420 685 426 685 q 415 688 414 686 q 413 690 413 686 q 415 697 413 693 q 433 725 422 713 q 456 749 443 738 q 481 783 476 769 q 483 794 482 789 q 483 803 483 799 q 458 825 483 825 q 436 819 447 825 q 415 807 425 814 l 406 800 q 400 797 401 797 q 397 792 399 796 q 390 782 396 788 q 379 776 383 776 q 365 782 365 775 q 394 815 365 796 q 411 826 403 822 q 428 839 419 829 q 458 852 439 850 q 486 853 476 854 q 517 847 514 849 q 533 829 529 843 q 537 826 535 828 q 539 821 539 824 l 539 818 q 535 802 539 811 q 528 779 532 793 q 515 763 521 769 q 503 749 510 757 q 481 729 499 742 q 468 721 474 724 q 457 714 463 718 l 447 707 l 438 696 l 431 686 z "},"Ȃ":{"ha":588,"x_min":-74,"x_max":550,"o":"m 472 788 q 490 783 482 788 q 513 772 501 775 q 529 758 524 768 q 535 751 532 753 q 542 746 538 749 q 543 742 542 743 q 544 740 544 740 q 545 738 544 739 q 546 738 546 738 q 546 733 546 740 q 547 728 546 726 q 549 721 549 726 q 550 713 550 718 q 537 684 550 690 q 522 675 524 678 q 517 675 519 675 q 511 676 514 675 q 507 685 507 679 q 508 703 507 696 q 506 714 508 711 q 496 726 500 722 l 483 742 q 476 744 482 742 q 469 747 469 746 q 465 749 469 749 l 453 750 q 447 751 450 751 q 436 751 443 750 q 430 752 433 754 q 425 750 426 750 l 411 747 l 394 744 l 371 739 q 349 731 353 735 q 345 726 346 729 q 338 719 344 722 q 332 715 338 718 q 326 707 326 710 q 323 703 325 704 q 318 699 321 701 q 313 685 317 693 q 307 675 310 676 q 298 679 296 675 q 300 683 300 683 q 308 707 300 694 l 315 717 q 329 736 318 721 q 343 753 340 751 q 356 761 347 760 q 368 767 364 763 q 379 772 369 767 q 396 778 389 776 q 405 781 403 779 q 411 783 407 783 q 431 788 419 788 l 451 788 q 453 787 453 788 q 457 786 453 786 q 463 787 458 786 q 472 788 467 788 m -32 -21 q -37 -21 -33 -21 q -47 -19 -40 -21 q -64 -18 -61 -19 q -69 -7 -74 -12 q -67 1 -69 -3 q -64 10 -65 6 q -51 26 -57 21 q -46 34 -49 31 q -42 39 -43 38 q -28 47 -36 40 q -19 57 -25 51 l -11 69 q 6 78 1 72 l 15 89 q 25 99 21 93 l 32 113 q 38 115 35 114 q 44 119 40 117 q 46 128 47 122 q 50 138 46 133 q 65 156 57 147 q 81 172 72 165 q 113 207 99 186 l 119 218 q 126 226 122 222 q 131 233 129 232 q 132 240 131 239 q 140 250 133 246 q 153 260 144 254 q 169 289 164 275 q 176 303 172 296 q 186 318 181 311 q 201 333 193 326 q 204 343 204 339 q 211 350 207 347 q 218 357 215 353 q 224 372 221 368 q 233 385 228 376 q 243 399 238 393 q 260 424 254 411 q 266 437 263 431 q 275 450 269 443 q 283 457 279 454 q 285 461 285 460 q 286 464 285 463 q 288 471 286 468 q 296 482 292 476 q 304 494 300 488 q 317 519 313 510 q 331 550 324 531 q 332 556 332 553 q 333 561 332 560 q 335 572 333 568 q 343 585 338 579 q 354 596 349 590 q 376 613 368 608 l 390 625 q 404 631 399 631 q 417 618 419 631 q 415 599 413 610 q 422 594 417 597 q 419 588 419 583 q 420 576 419 582 q 422 565 421 571 q 424 558 422 561 q 425 551 425 556 q 426 540 426 547 q 429 531 426 539 q 431 517 432 522 q 431 503 428 510 q 431 493 432 497 q 429 485 428 486 q 428 472 431 478 q 426 464 426 469 q 428 449 426 456 q 429 440 429 443 q 432 431 429 433 q 433 422 432 426 q 433 414 436 417 q 435 403 436 404 q 436 393 433 401 q 435 383 435 390 q 436 375 439 378 q 439 367 442 372 q 438 354 435 361 q 438 338 440 349 q 436 331 438 332 q 444 319 444 326 l 444 308 q 446 296 444 300 q 449 293 449 293 q 450 289 449 290 q 450 274 453 282 q 450 261 449 265 q 454 254 453 256 q 458 246 458 250 q 460 241 460 243 q 461 236 460 239 q 460 226 461 231 l 464 215 l 469 201 q 471 192 472 193 q 469 183 469 189 l 474 175 q 477 172 476 174 q 479 168 478 169 q 478 165 478 167 q 479 161 479 163 q 481 153 483 157 q 485 137 483 142 q 488 121 486 132 q 494 100 489 107 q 503 99 494 101 q 507 83 503 88 q 514 76 507 79 q 511 69 514 72 q 511 68 511 69 q 513 65 511 67 l 521 60 l 528 42 q 529 18 533 26 q 524 11 528 15 q 517 3 518 6 q 503 1 508 4 q 497 -1 500 0 q 489 -4 493 -3 q 482 -1 486 -1 q 474 0 475 -1 q 465 -1 469 -1 q 457 -1 461 -1 q 411 38 417 -1 q 414 46 411 43 q 419 53 415 49 q 425 58 425 56 q 426 68 429 63 l 426 72 q 429 83 426 75 q 438 101 436 94 q 433 113 433 106 q 436 125 433 117 q 439 132 436 129 l 435 136 q 432 148 435 143 q 435 160 429 153 q 429 165 429 160 q 428 171 429 168 q 426 176 428 174 q 428 189 428 178 q 431 203 428 200 q 422 221 426 207 q 414 238 418 236 q 406 237 411 238 q 394 235 401 236 q 376 229 378 231 q 360 224 368 226 q 344 219 351 222 q 329 215 338 217 q 311 211 321 214 q 274 207 293 207 l 197 207 q 188 208 194 207 q 172 208 182 208 q 158 211 163 211 q 151 211 153 211 q 115 176 129 200 q 99 153 108 163 q 83 133 90 143 l 71 117 l 63 104 l 58 99 q 39 78 43 90 q 35 63 36 71 q 32 49 33 56 l 28 18 q 14 -10 26 4 q -7 -21 6 -18 l -32 -21 m 354 243 q 365 243 360 243 q 375 244 369 243 q 387 244 382 244 q 397 246 392 244 q 406 247 403 247 q 410 247 408 247 q 415 251 413 250 q 417 256 415 254 q 419 260 418 258 q 415 267 417 263 q 410 275 413 271 q 404 301 404 282 q 404 314 407 304 q 404 326 403 325 q 400 332 400 331 l 396 344 q 393 358 396 350 q 389 364 389 363 q 386 381 385 375 q 385 389 386 385 q 383 397 385 393 l 379 415 q 378 428 379 425 q 376 439 376 431 q 351 486 372 465 l 350 486 q 336 475 344 481 q 322 464 328 469 l 314 450 l 306 433 q 299 425 303 429 q 290 417 294 421 q 274 396 281 407 q 276 386 272 390 l 264 372 l 250 358 q 248 351 249 354 q 247 346 247 349 q 238 339 244 342 q 228 331 229 336 l 224 322 q 222 317 222 321 q 218 311 221 314 l 214 307 q 213 307 214 307 q 211 306 213 307 q 210 300 211 303 q 208 299 208 300 q 207 296 208 297 q 200 292 204 296 l 183 275 l 178 265 q 179 261 176 261 q 201 250 185 253 q 221 250 218 247 l 231 256 q 238 256 233 256 q 244 254 242 256 q 263 250 251 251 q 276 249 269 249 q 289 247 282 249 q 303 246 296 246 q 317 246 311 246 q 339 247 333 246 q 341 247 340 247 q 342 246 342 246 q 343 243 342 243 l 354 243 z "},"Ā":{"ha":588,"x_min":-74,"x_max":538,"o":"m -32 -21 q -37 -21 -33 -21 q -47 -19 -40 -21 q -64 -18 -61 -19 q -69 -7 -74 -12 q -67 1 -69 -3 q -64 10 -65 6 q -51 26 -57 21 q -46 34 -49 31 q -42 39 -43 38 q -28 47 -36 40 q -19 57 -25 51 l -11 69 q 6 78 1 72 l 15 89 q 25 99 21 93 l 32 113 q 38 115 35 114 q 44 119 40 117 q 46 128 47 122 q 50 138 46 133 q 65 156 57 147 q 81 172 72 165 q 113 207 99 186 l 119 218 q 126 226 122 222 q 131 233 129 232 q 132 240 131 239 q 140 250 133 246 q 153 260 144 254 q 169 289 164 275 q 176 303 172 296 q 186 318 181 311 q 201 333 193 326 q 204 343 204 339 q 211 350 207 347 q 218 357 215 353 q 224 372 221 368 q 233 385 228 376 q 243 399 238 393 q 260 424 254 411 q 266 437 263 431 q 275 450 269 443 q 283 457 279 454 q 285 461 285 460 q 286 464 285 463 q 288 471 286 468 q 296 482 292 476 q 304 494 300 488 q 317 519 313 510 q 331 550 324 531 q 332 556 332 553 q 333 561 332 560 q 335 572 333 568 q 343 585 338 579 q 354 596 349 590 q 376 613 368 608 l 390 625 q 404 631 399 631 q 417 618 419 631 q 415 599 413 610 q 422 594 417 597 q 419 588 419 583 q 420 576 419 582 q 422 565 421 571 q 424 558 422 561 q 425 551 425 556 q 426 540 426 547 q 429 531 426 539 q 431 517 432 522 q 431 503 428 510 q 431 493 432 497 q 429 485 428 486 q 428 472 431 478 q 426 464 426 469 q 428 449 426 456 q 429 440 429 443 q 432 431 429 433 q 433 422 432 426 q 433 414 436 417 q 435 403 436 404 q 436 393 433 401 q 435 383 435 390 q 436 375 439 378 q 439 367 442 372 q 438 354 435 361 q 438 338 440 349 q 436 331 438 332 q 444 319 444 326 l 444 308 q 446 296 444 300 q 449 293 449 293 q 450 289 449 290 q 450 274 453 282 q 450 261 449 265 q 454 254 453 256 q 458 246 458 250 q 460 241 460 243 q 461 236 460 239 q 460 226 461 231 l 464 215 l 469 201 q 471 192 472 193 q 469 183 469 189 l 474 175 q 477 172 476 174 q 479 168 478 169 q 478 165 478 167 q 479 161 479 163 q 481 153 483 157 q 485 137 483 142 q 488 121 486 132 q 494 100 489 107 q 503 99 494 101 q 507 83 503 88 q 514 76 507 79 q 511 69 514 72 q 511 68 511 69 q 513 65 511 67 l 521 60 l 528 42 q 529 18 533 26 q 524 11 528 15 q 517 3 518 6 q 503 1 508 4 q 497 -1 500 0 q 489 -4 493 -3 q 482 -1 486 -1 q 474 0 475 -1 q 465 -1 469 -1 q 457 -1 461 -1 q 411 38 417 -1 q 414 46 411 43 q 419 53 415 49 q 425 58 425 56 q 426 68 429 63 l 426 72 q 429 83 426 75 q 438 101 436 94 q 433 113 433 106 q 436 125 433 117 q 439 132 436 129 l 435 136 q 432 148 435 143 q 435 160 429 153 q 429 165 429 160 q 428 171 429 168 q 426 176 428 174 q 428 189 428 178 q 431 203 428 200 q 422 221 426 207 q 414 238 418 236 q 406 237 411 238 q 394 235 401 236 q 376 229 378 231 q 360 224 368 226 q 344 219 351 222 q 329 215 338 217 q 311 211 321 214 q 274 207 293 207 l 197 207 q 188 208 194 207 q 172 208 182 208 q 158 211 163 211 q 151 211 153 211 q 115 176 129 200 q 99 153 108 163 q 83 133 90 143 l 71 117 l 63 104 l 58 99 q 39 78 43 90 q 35 63 36 71 q 32 49 33 56 l 28 18 q 14 -10 26 4 q -7 -21 6 -18 l -32 -21 m 354 243 q 365 243 360 243 q 375 244 369 243 q 387 244 382 244 q 397 246 392 244 q 406 247 403 247 q 410 247 408 247 q 415 251 413 250 q 417 256 415 254 q 419 260 418 258 q 415 267 417 263 q 410 275 413 271 q 404 301 404 282 q 404 314 407 304 q 404 326 403 325 q 400 332 400 331 l 396 344 q 393 358 396 350 q 389 364 389 363 q 386 381 385 375 q 385 389 386 385 q 383 397 385 393 l 379 415 q 378 428 379 425 q 376 439 376 431 q 351 486 372 465 l 350 486 q 336 475 344 481 q 322 464 328 469 l 314 450 l 306 433 q 299 425 303 429 q 290 417 294 421 q 274 396 281 407 q 276 386 272 390 l 264 372 l 250 358 q 248 351 249 354 q 247 346 247 349 q 238 339 244 342 q 228 331 229 336 l 224 322 q 222 317 222 321 q 218 311 221 314 l 214 307 q 213 307 214 307 q 211 306 213 307 q 210 300 211 303 q 208 299 208 300 q 207 296 208 297 q 200 292 204 296 l 183 275 l 178 265 q 179 261 176 261 q 201 250 185 253 q 221 250 218 247 l 231 256 q 238 256 233 256 q 244 254 242 256 q 263 250 251 251 q 276 249 269 249 q 289 247 282 249 q 303 246 296 246 q 317 246 311 246 q 339 247 333 246 q 341 247 340 247 q 342 246 342 246 q 343 243 342 243 l 354 243 m 286 690 q 291 705 289 699 q 294 714 293 711 q 303 725 300 719 q 310 738 307 733 q 315 744 314 742 q 320 744 317 744 q 326 743 324 744 l 331 738 q 331 739 331 738 q 335 743 332 740 l 368 743 q 376 739 376 746 q 393 739 381 735 q 398 742 396 740 q 406 743 400 743 l 406 739 q 406 739 406 739 q 407 740 407 739 q 411 743 407 743 q 413 742 413 742 q 413 743 414 742 q 417 746 413 746 l 419 746 l 424 743 q 428 746 425 743 l 428 744 q 431 743 431 746 q 443 744 442 743 q 453 746 443 746 l 488 746 q 496 743 493 746 l 497 743 q 501 746 497 746 l 508 746 q 510 744 510 746 q 511 743 511 742 l 511 746 l 515 746 q 517 744 515 743 q 519 746 518 746 l 519 743 q 529 744 525 743 q 538 743 533 747 q 525 719 535 733 q 515 704 517 704 q 494 704 503 704 q 476 706 485 704 l 400 706 q 383 705 393 706 q 363 704 374 704 l 315 701 q 301 700 303 701 q 294 697 296 700 l 286 690 z "},"Ą":{"ha":588,"x_min":-74,"x_max":540,"o":"m -32 -21 q -37 -21 -33 -21 q -47 -19 -40 -21 q -64 -18 -61 -19 q -69 -7 -74 -12 q -67 1 -69 -3 q -64 10 -65 6 q -51 26 -57 21 q -46 34 -49 31 q -42 39 -43 38 q -28 47 -36 40 q -19 57 -25 51 l -11 69 q 6 78 1 72 l 15 89 q 25 99 21 93 l 32 113 q 38 115 35 114 q 44 119 40 117 q 46 128 47 122 q 50 138 46 133 q 65 156 57 147 q 81 172 72 165 q 113 207 99 186 l 119 218 q 126 226 122 222 q 131 233 129 232 q 132 240 131 239 q 140 250 133 246 q 153 260 144 254 q 169 289 164 275 q 176 303 172 296 q 186 318 181 311 q 201 333 193 326 q 204 343 204 339 q 211 350 207 347 q 218 357 215 353 q 224 372 221 368 q 233 385 228 376 q 243 399 238 393 q 260 424 254 411 q 266 437 263 431 q 275 450 269 443 q 283 457 279 454 q 285 461 285 460 q 286 464 285 463 q 288 471 286 468 q 296 482 292 476 q 304 494 300 488 q 317 519 313 510 q 331 550 324 531 q 332 556 332 553 q 333 561 332 560 q 335 572 333 568 q 343 585 338 579 q 354 596 349 590 q 376 613 368 608 l 390 625 q 404 631 399 631 q 417 618 419 631 q 415 599 413 610 q 422 594 417 597 q 419 588 419 583 q 420 576 419 582 q 422 565 421 571 q 424 558 422 561 q 425 551 425 556 q 426 540 426 547 q 429 531 426 539 q 431 517 432 522 q 431 503 428 510 q 431 493 432 497 q 429 485 428 486 q 428 472 431 478 q 426 464 426 469 q 428 449 426 456 q 429 440 429 443 q 432 431 429 433 q 433 422 432 426 q 433 414 436 417 q 435 403 436 404 q 436 393 433 401 q 435 383 435 390 q 436 375 439 378 q 439 367 442 372 q 438 354 435 361 q 438 338 440 349 q 436 331 438 332 q 444 319 444 326 l 444 308 q 446 296 444 300 q 449 293 449 293 q 450 289 449 290 q 450 274 453 282 q 450 261 449 265 q 454 254 453 256 q 458 246 458 250 q 460 241 460 243 q 461 236 460 239 q 460 226 461 231 l 464 215 l 469 201 q 471 192 472 193 q 469 183 469 189 l 474 175 q 477 172 476 174 q 479 168 478 169 q 478 165 478 167 q 479 161 479 163 q 481 153 483 157 q 485 137 483 142 q 488 121 486 132 q 494 100 489 107 q 503 99 494 101 q 507 83 503 88 q 514 76 507 79 q 511 69 514 72 q 511 68 511 69 q 513 65 511 67 l 521 60 l 528 42 q 529 18 533 26 q 524 11 528 15 q 517 3 518 6 q 503 1 508 4 q 497 -1 500 0 q 489 -4 493 -3 q 482 -1 486 -1 q 474 0 475 -1 q 465 -1 469 -1 q 457 -1 461 -1 q 411 38 417 -1 q 414 46 411 43 q 419 53 415 49 q 425 58 425 56 q 426 68 429 63 l 426 72 q 429 83 426 75 q 438 101 436 94 q 433 113 433 106 q 436 125 433 117 q 439 132 436 129 l 435 136 q 432 148 435 143 q 435 160 429 153 q 429 165 429 160 q 428 171 429 168 q 426 176 428 174 q 428 189 428 178 q 431 203 428 200 q 422 221 426 207 q 414 238 418 236 q 406 237 411 238 q 394 235 401 236 q 376 229 378 231 q 360 224 368 226 q 344 219 351 222 q 329 215 338 217 q 311 211 321 214 q 274 207 293 207 l 197 207 q 188 208 194 207 q 172 208 182 208 q 158 211 163 211 q 151 211 153 211 q 115 176 129 200 q 99 153 108 163 q 83 133 90 143 l 71 117 l 63 104 l 58 99 q 39 78 43 90 q 35 63 36 71 q 32 49 33 56 l 28 18 q 14 -10 26 4 q -7 -21 6 -18 l -32 -21 m 354 243 q 365 243 360 243 q 375 244 369 243 q 387 244 382 244 q 397 246 392 244 q 406 247 403 247 q 410 247 408 247 q 415 251 413 250 q 417 256 415 254 q 419 260 418 258 q 415 267 417 263 q 410 275 413 271 q 404 301 404 282 q 404 314 407 304 q 404 326 403 325 q 400 332 400 331 l 396 344 q 393 358 396 350 q 389 364 389 363 q 386 381 385 375 q 385 389 386 385 q 383 397 385 393 l 379 415 q 378 428 379 425 q 376 439 376 431 q 351 486 372 465 l 350 486 q 336 475 344 481 q 322 464 328 469 l 314 450 l 306 433 q 299 425 303 429 q 290 417 294 421 q 274 396 281 407 q 276 386 272 390 l 264 372 l 250 358 q 248 351 249 354 q 247 346 247 349 q 238 339 244 342 q 228 331 229 336 l 224 322 q 222 317 222 321 q 218 311 221 314 l 214 307 q 213 307 214 307 q 211 306 213 307 q 210 300 211 303 q 208 299 208 300 q 207 296 208 297 q 200 292 204 296 l 183 275 l 178 265 q 179 261 176 261 q 201 250 185 253 q 221 250 218 247 l 231 256 q 238 256 233 256 q 244 254 242 256 q 263 250 251 251 q 276 249 269 249 q 289 247 282 249 q 303 246 296 246 q 317 246 311 246 q 339 247 333 246 q 341 247 340 247 q 342 246 342 246 q 343 243 342 243 l 354 243 m 419 -218 q 386 -210 390 -214 q 372 -202 376 -207 q 365 -186 368 -197 q 363 -175 363 -178 q 361 -163 363 -168 q 360 -153 360 -158 l 360 -144 q 361 -135 360 -139 q 363 -124 361 -126 q 374 -103 369 -110 q 382 -87 378 -96 q 400 -64 385 -81 q 417 -46 415 -47 q 426 -36 421 -40 q 435 -28 432 -32 l 447 -12 q 452 -7 450 -10 q 456 -3 454 -4 l 469 10 q 482 14 476 14 q 489 13 485 14 q 489 6 493 11 q 453 -47 468 -25 q 432 -81 438 -69 q 417 -112 422 -96 q 413 -137 413 -129 q 418 -173 413 -158 q 446 -187 424 -187 q 467 -180 457 -187 q 486 -165 478 -172 l 496 -157 q 503 -150 499 -154 q 511 -140 508 -146 l 518 -131 q 522 -125 519 -128 q 528 -122 525 -122 q 536 -128 532 -122 q 535 -144 540 -135 q 523 -161 529 -153 q 510 -176 517 -169 l 478 -204 q 449 -217 467 -214 q 419 -218 431 -219 z "},"Å":{"ha":588,"x_min":-74,"x_max":533,"o":"m -32 -21 q -37 -21 -33 -21 q -47 -19 -40 -21 q -64 -18 -61 -19 q -69 -7 -74 -12 q -67 1 -69 -3 q -64 10 -65 6 q -51 26 -57 21 q -46 34 -49 31 q -42 39 -43 38 q -28 47 -36 40 q -19 57 -25 51 l -11 69 q 6 78 1 72 l 15 89 q 25 99 21 93 l 32 113 q 38 115 35 114 q 44 119 40 117 q 46 128 47 122 q 50 138 46 133 q 65 156 57 147 q 81 172 72 165 q 113 207 99 186 l 119 218 q 126 226 122 222 q 131 233 129 232 q 132 240 131 239 q 140 250 133 246 q 153 260 144 254 q 169 289 164 275 q 176 303 172 296 q 186 318 181 311 q 201 333 193 326 q 204 343 204 339 q 211 350 207 347 q 218 357 215 353 q 224 372 221 368 q 233 385 228 376 q 243 399 238 393 q 260 424 254 411 q 266 437 263 431 q 275 450 269 443 q 283 457 279 454 q 285 461 285 460 q 286 464 285 463 q 288 471 286 468 q 296 482 292 476 q 304 494 300 488 q 317 519 313 510 q 331 550 324 531 q 332 556 332 553 q 333 561 332 560 q 335 572 333 568 q 343 585 338 579 q 354 596 349 590 q 376 613 368 608 l 390 625 q 404 631 399 631 q 417 618 419 631 q 415 599 413 610 q 422 594 417 597 q 419 588 419 583 q 420 576 419 582 q 422 565 421 571 q 424 558 422 561 q 425 551 425 556 q 426 540 426 547 q 429 531 426 539 q 431 517 432 522 q 431 503 428 510 q 431 493 432 497 q 429 485 428 486 q 428 472 431 478 q 426 464 426 469 q 428 449 426 456 q 429 440 429 443 q 432 431 429 433 q 433 422 432 426 q 433 414 436 417 q 435 403 436 404 q 436 393 433 401 q 435 383 435 390 q 436 375 439 378 q 439 367 442 372 q 438 354 435 361 q 438 338 440 349 q 436 331 438 332 q 444 319 444 326 l 444 308 q 446 296 444 300 q 449 293 449 293 q 450 289 449 290 q 450 274 453 282 q 450 261 449 265 q 454 254 453 256 q 458 246 458 250 q 460 241 460 243 q 461 236 460 239 q 460 226 461 231 l 464 215 l 469 201 q 471 192 472 193 q 469 183 469 189 l 474 175 q 477 172 476 174 q 479 168 478 169 q 478 165 478 167 q 479 161 479 163 q 481 153 483 157 q 485 137 483 142 q 488 121 486 132 q 494 100 489 107 q 503 99 494 101 q 507 83 503 88 q 514 76 507 79 q 511 69 514 72 q 511 68 511 69 q 513 65 511 67 l 521 60 l 528 42 q 529 18 533 26 q 524 11 528 15 q 517 3 518 6 q 503 1 508 4 q 497 -1 500 0 q 489 -4 493 -3 q 482 -1 486 -1 q 474 0 475 -1 q 465 -1 469 -1 q 457 -1 461 -1 q 411 38 417 -1 q 414 46 411 43 q 419 53 415 49 q 425 58 425 56 q 426 68 429 63 l 426 72 q 429 83 426 75 q 438 101 436 94 q 433 113 433 106 q 436 125 433 117 q 439 132 436 129 l 435 136 q 432 148 435 143 q 435 160 429 153 q 429 165 429 160 q 428 171 429 168 q 426 176 428 174 q 428 189 428 178 q 431 203 428 200 q 422 221 426 207 q 414 238 418 236 q 406 237 411 238 q 394 235 401 236 q 376 229 378 231 q 360 224 368 226 q 344 219 351 222 q 329 215 338 217 q 311 211 321 214 q 274 207 293 207 l 197 207 q 188 208 194 207 q 172 208 182 208 q 158 211 163 211 q 151 211 153 211 q 115 176 129 200 q 99 153 108 163 q 83 133 90 143 l 71 117 l 63 104 l 58 99 q 39 78 43 90 q 35 63 36 71 q 32 49 33 56 l 28 18 q 14 -10 26 4 q -7 -21 6 -18 l -32 -21 m 354 243 q 365 243 360 243 q 375 244 369 243 q 387 244 382 244 q 397 246 392 244 q 406 247 403 247 q 410 247 408 247 q 415 251 413 250 q 417 256 415 254 q 419 260 418 258 q 415 267 417 263 q 410 275 413 271 q 404 301 404 282 q 404 314 407 304 q 404 326 403 325 q 400 332 400 331 l 396 344 q 393 358 396 350 q 389 364 389 363 q 386 381 385 375 q 385 389 386 385 q 383 397 385 393 l 379 415 q 378 428 379 425 q 376 439 376 431 q 351 486 372 465 l 350 486 q 336 475 344 481 q 322 464 328 469 l 314 450 l 306 433 q 299 425 303 429 q 290 417 294 421 q 274 396 281 407 q 276 386 272 390 l 264 372 l 250 358 q 248 351 249 354 q 247 346 247 349 q 238 339 244 342 q 228 331 229 336 l 224 322 q 222 317 222 321 q 218 311 221 314 l 214 307 q 213 307 214 307 q 211 306 213 307 q 210 300 211 303 q 208 299 208 300 q 207 296 208 297 q 200 292 204 296 l 183 275 l 178 265 q 179 261 176 261 q 201 250 185 253 q 221 250 218 247 l 231 256 q 238 256 233 256 q 244 254 242 256 q 263 250 251 251 q 276 249 269 249 q 289 247 282 249 q 303 246 296 246 q 317 246 311 246 q 339 247 333 246 q 341 247 340 247 q 342 246 342 246 q 343 243 342 243 l 354 243 m 399 682 q 383 688 399 683 q 367 697 368 690 q 363 700 367 700 q 361 703 361 700 l 358 708 q 353 719 354 713 l 353 732 q 354 749 353 746 q 356 756 356 751 l 358 767 l 361 772 q 368 781 365 776 q 374 788 371 785 l 388 806 q 401 817 399 814 q 412 823 406 819 q 428 828 418 826 l 443 831 q 448 833 446 832 q 454 835 450 835 l 467 835 l 469 838 q 508 822 497 838 l 517 819 l 519 808 q 524 792 524 804 l 524 785 q 524 776 524 781 q 522 767 524 771 q 519 754 522 763 q 517 748 518 751 q 514 743 517 744 l 508 740 q 508 735 510 740 q 503 728 507 732 q 494 719 500 724 q 482 709 489 714 q 468 700 475 704 q 435 685 450 689 l 421 682 l 399 682 m 421 707 q 443 713 431 707 q 464 728 458 719 q 467 733 467 731 l 467 735 l 471 743 q 479 771 479 763 l 479 783 l 478 785 q 475 793 478 790 q 471 803 475 799 q 457 810 465 810 l 444 810 q 432 807 440 810 l 432 803 q 426 801 428 803 q 418 799 418 799 l 417 793 q 413 789 415 792 q 407 783 410 786 q 403 773 406 778 q 399 763 400 768 q 399 761 399 763 q 397 758 399 760 q 396 756 396 757 q 396 754 396 754 l 396 731 q 401 724 399 728 q 404 717 403 721 q 421 707 406 707 z "},"Ǻ":{"ha":588,"x_min":-74,"x_max":610,"o":"m -32 -21 q -37 -21 -33 -21 q -47 -19 -40 -21 q -64 -18 -61 -19 q -69 -7 -74 -12 q -67 1 -69 -3 q -64 10 -65 6 q -51 26 -57 21 q -46 34 -49 31 q -42 39 -43 38 q -28 47 -36 40 q -19 57 -25 51 l -11 69 q 6 78 1 72 l 15 89 q 25 99 21 93 l 32 113 q 38 115 35 114 q 44 119 40 117 q 46 128 47 122 q 50 138 46 133 q 65 156 57 147 q 81 172 72 165 q 113 207 99 186 l 119 218 q 126 226 122 222 q 131 233 129 232 q 132 240 131 239 q 140 250 133 246 q 153 260 144 254 q 169 289 164 275 q 176 303 172 296 q 186 318 181 311 q 201 333 193 326 q 204 343 204 339 q 211 350 207 347 q 218 357 215 353 q 224 372 221 368 q 233 385 228 376 q 243 399 238 393 q 260 424 254 411 q 266 437 263 431 q 275 450 269 443 q 283 457 279 454 q 285 461 285 460 q 286 464 285 463 q 288 471 286 468 q 296 482 292 476 q 304 494 300 488 q 317 519 313 510 q 331 550 324 531 q 332 556 332 553 q 333 561 332 560 q 335 572 333 568 q 343 585 338 579 q 354 596 349 590 q 376 613 368 608 l 390 625 q 404 631 399 631 q 417 618 419 631 q 415 599 413 610 q 422 594 417 597 q 419 588 419 583 q 420 576 419 582 q 422 565 421 571 q 424 558 422 561 q 425 551 425 556 q 426 540 426 547 q 429 531 426 539 q 431 517 432 522 q 431 503 428 510 q 431 493 432 497 q 429 485 428 486 q 428 472 431 478 q 426 464 426 469 q 428 449 426 456 q 429 440 429 443 q 432 431 429 433 q 433 422 432 426 q 433 414 436 417 q 435 403 436 404 q 436 393 433 401 q 435 383 435 390 q 436 375 439 378 q 439 367 442 372 q 438 354 435 361 q 438 338 440 349 q 436 331 438 332 q 444 319 444 326 l 444 308 q 446 296 444 300 q 449 293 449 293 q 450 289 449 290 q 450 274 453 282 q 450 261 449 265 q 454 254 453 256 q 458 246 458 250 q 460 241 460 243 q 461 236 460 239 q 460 226 461 231 l 464 215 l 469 201 q 471 192 472 193 q 469 183 469 189 l 474 175 q 477 172 476 174 q 479 168 478 169 q 478 165 478 167 q 479 161 479 163 q 481 153 483 157 q 485 137 483 142 q 488 121 486 132 q 494 100 489 107 q 503 99 494 101 q 507 83 503 88 q 514 76 507 79 q 511 69 514 72 q 511 68 511 69 q 513 65 511 67 l 521 60 l 528 42 q 529 18 533 26 q 524 11 528 15 q 517 3 518 6 q 503 1 508 4 q 497 -1 500 0 q 489 -4 493 -3 q 482 -1 486 -1 q 474 0 475 -1 q 465 -1 469 -1 q 457 -1 461 -1 q 411 38 417 -1 q 414 46 411 43 q 419 53 415 49 q 425 58 425 56 q 426 68 429 63 l 426 72 q 429 83 426 75 q 438 101 436 94 q 433 113 433 106 q 436 125 433 117 q 439 132 436 129 l 435 136 q 432 148 435 143 q 435 160 429 153 q 429 165 429 160 q 428 171 429 168 q 426 176 428 174 q 428 189 428 178 q 431 203 428 200 q 422 221 426 207 q 414 238 418 236 q 406 237 411 238 q 394 235 401 236 q 376 229 378 231 q 360 224 368 226 q 344 219 351 222 q 329 215 338 217 q 311 211 321 214 q 274 207 293 207 l 197 207 q 188 208 194 207 q 172 208 182 208 q 158 211 163 211 q 151 211 153 211 q 115 176 129 200 q 99 153 108 163 q 83 133 90 143 l 71 117 l 63 104 l 58 99 q 39 78 43 90 q 35 63 36 71 q 32 49 33 56 l 28 18 q 14 -10 26 4 q -7 -21 6 -18 l -32 -21 m 354 243 q 365 243 360 243 q 375 244 369 243 q 387 244 382 244 q 397 246 392 244 q 406 247 403 247 q 410 247 408 247 q 415 251 413 250 q 417 256 415 254 q 419 260 418 258 q 415 267 417 263 q 410 275 413 271 q 404 301 404 282 q 404 314 407 304 q 404 326 403 325 q 400 332 400 331 l 396 344 q 393 358 396 350 q 389 364 389 363 q 386 381 385 375 q 385 389 386 385 q 383 397 385 393 l 379 415 q 378 428 379 425 q 376 439 376 431 q 351 486 372 465 l 350 486 q 336 475 344 481 q 322 464 328 469 l 314 450 l 306 433 q 299 425 303 429 q 290 417 294 421 q 274 396 281 407 q 276 386 272 390 l 264 372 l 250 358 q 248 351 249 354 q 247 346 247 349 q 238 339 244 342 q 228 331 229 336 l 224 322 q 222 317 222 321 q 218 311 221 314 l 214 307 q 213 307 214 307 q 211 306 213 307 q 210 300 211 303 q 208 299 208 300 q 207 296 208 297 q 200 292 204 296 l 183 275 l 178 265 q 179 261 176 261 q 201 250 185 253 q 221 250 218 247 l 231 256 q 238 256 233 256 q 244 254 242 256 q 263 250 251 251 q 276 249 269 249 q 289 247 282 249 q 303 246 296 246 q 317 246 311 246 q 339 247 333 246 q 341 247 340 247 q 342 246 342 246 q 343 243 342 243 l 354 243 m 399 682 q 383 688 399 683 q 367 697 368 690 q 363 700 367 700 q 361 703 361 700 l 358 708 q 353 719 354 713 l 353 732 q 354 749 353 746 q 356 756 356 751 l 358 767 l 361 772 q 368 781 365 776 q 374 788 371 785 l 388 806 q 401 817 399 814 q 412 823 406 819 q 428 828 418 826 l 443 831 q 448 833 446 832 q 454 835 450 835 l 467 835 l 469 838 q 508 822 497 838 l 517 819 l 519 808 q 524 792 524 804 l 524 785 q 524 776 524 781 q 522 767 524 771 q 519 754 522 763 q 517 748 518 751 q 514 743 517 744 l 508 740 q 508 735 510 740 q 503 728 507 732 q 494 719 500 724 q 482 709 489 714 q 468 700 475 704 q 435 685 450 689 l 421 682 l 399 682 m 421 707 q 443 713 431 707 q 464 728 458 719 q 467 733 467 731 l 467 735 l 471 743 q 479 771 479 763 l 479 783 l 478 785 q 475 793 478 790 q 471 803 475 799 q 457 810 465 810 l 444 810 q 432 807 440 810 l 432 803 q 426 801 428 803 q 418 799 418 799 l 417 793 q 413 789 415 792 q 407 783 410 786 q 403 773 406 778 q 399 763 400 768 q 399 761 399 763 q 397 758 399 760 q 396 756 396 757 q 396 754 396 754 l 396 731 q 401 724 399 728 q 404 717 403 721 q 421 707 406 707 m 404 861 q 413 871 404 869 q 425 878 422 874 q 434 885 432 882 q 438 889 436 888 q 442 891 442 890 q 444 892 443 892 q 452 897 447 894 q 460 900 457 899 q 465 908 463 904 q 471 913 468 911 l 486 928 q 501 936 490 932 q 514 942 513 940 q 524 952 521 949 q 542 954 526 956 l 543 954 q 556 951 550 954 q 568 946 563 949 q 582 942 576 943 q 592 940 588 942 q 604 936 600 939 q 604 933 610 933 q 600 933 603 936 q 590 928 594 928 l 583 926 q 581 924 582 926 q 576 921 579 922 l 565 918 l 553 911 q 549 911 549 911 l 544 907 q 535 904 539 904 q 533 903 533 904 q 531 901 533 903 q 526 901 529 904 q 524 900 525 900 q 522 900 522 900 q 515 898 518 899 q 508 896 511 897 q 503 892 507 894 q 486 885 500 890 q 472 881 481 885 q 463 878 467 881 q 453 874 458 875 q 442 869 447 872 q 432 865 438 867 q 407 861 414 861 l 404 861 z "},"Ã":{"ha":588,"x_min":-74,"x_max":547,"o":"m -32 -21 q -37 -21 -33 -21 q -47 -19 -40 -21 q -64 -18 -61 -19 q -69 -7 -74 -12 q -67 1 -69 -3 q -64 10 -65 6 q -51 26 -57 21 q -46 34 -49 31 q -42 39 -43 38 q -28 47 -36 40 q -19 57 -25 51 l -11 69 q 6 78 1 72 l 15 89 q 25 99 21 93 l 32 113 q 38 115 35 114 q 44 119 40 117 q 46 128 47 122 q 50 138 46 133 q 65 156 57 147 q 81 172 72 165 q 113 207 99 186 l 119 218 q 126 226 122 222 q 131 233 129 232 q 132 240 131 239 q 140 250 133 246 q 153 260 144 254 q 169 289 164 275 q 176 303 172 296 q 186 318 181 311 q 201 333 193 326 q 204 343 204 339 q 211 350 207 347 q 218 357 215 353 q 224 372 221 368 q 233 385 228 376 q 243 399 238 393 q 260 424 254 411 q 266 437 263 431 q 275 450 269 443 q 283 457 279 454 q 285 461 285 460 q 286 464 285 463 q 288 471 286 468 q 296 482 292 476 q 304 494 300 488 q 317 519 313 510 q 331 550 324 531 q 332 556 332 553 q 333 561 332 560 q 335 572 333 568 q 343 585 338 579 q 354 596 349 590 q 376 613 368 608 l 390 625 q 404 631 399 631 q 417 618 419 631 q 415 599 413 610 q 422 594 417 597 q 419 588 419 583 q 420 576 419 582 q 422 565 421 571 q 424 558 422 561 q 425 551 425 556 q 426 540 426 547 q 429 531 426 539 q 431 517 432 522 q 431 503 428 510 q 431 493 432 497 q 429 485 428 486 q 428 472 431 478 q 426 464 426 469 q 428 449 426 456 q 429 440 429 443 q 432 431 429 433 q 433 422 432 426 q 433 414 436 417 q 435 403 436 404 q 436 393 433 401 q 435 383 435 390 q 436 375 439 378 q 439 367 442 372 q 438 354 435 361 q 438 338 440 349 q 436 331 438 332 q 444 319 444 326 l 444 308 q 446 296 444 300 q 449 293 449 293 q 450 289 449 290 q 450 274 453 282 q 450 261 449 265 q 454 254 453 256 q 458 246 458 250 q 460 241 460 243 q 461 236 460 239 q 460 226 461 231 l 464 215 l 469 201 q 471 192 472 193 q 469 183 469 189 l 474 175 q 477 172 476 174 q 479 168 478 169 q 478 165 478 167 q 479 161 479 163 q 481 153 483 157 q 485 137 483 142 q 488 121 486 132 q 494 100 489 107 q 503 99 494 101 q 507 83 503 88 q 514 76 507 79 q 511 69 514 72 q 511 68 511 69 q 513 65 511 67 l 521 60 l 528 42 q 529 18 533 26 q 524 11 528 15 q 517 3 518 6 q 503 1 508 4 q 497 -1 500 0 q 489 -4 493 -3 q 482 -1 486 -1 q 474 0 475 -1 q 465 -1 469 -1 q 457 -1 461 -1 q 411 38 417 -1 q 414 46 411 43 q 419 53 415 49 q 425 58 425 56 q 426 68 429 63 l 426 72 q 429 83 426 75 q 438 101 436 94 q 433 113 433 106 q 436 125 433 117 q 439 132 436 129 l 435 136 q 432 148 435 143 q 435 160 429 153 q 429 165 429 160 q 428 171 429 168 q 426 176 428 174 q 428 189 428 178 q 431 203 428 200 q 422 221 426 207 q 414 238 418 236 q 406 237 411 238 q 394 235 401 236 q 376 229 378 231 q 360 224 368 226 q 344 219 351 222 q 329 215 338 217 q 311 211 321 214 q 274 207 293 207 l 197 207 q 188 208 194 207 q 172 208 182 208 q 158 211 163 211 q 151 211 153 211 q 115 176 129 200 q 99 153 108 163 q 83 133 90 143 l 71 117 l 63 104 l 58 99 q 39 78 43 90 q 35 63 36 71 q 32 49 33 56 l 28 18 q 14 -10 26 4 q -7 -21 6 -18 l -32 -21 m 354 243 q 365 243 360 243 q 375 244 369 243 q 387 244 382 244 q 397 246 392 244 q 406 247 403 247 q 410 247 408 247 q 415 251 413 250 q 417 256 415 254 q 419 260 418 258 q 415 267 417 263 q 410 275 413 271 q 404 301 404 282 q 404 314 407 304 q 404 326 403 325 q 400 332 400 331 l 396 344 q 393 358 396 350 q 389 364 389 363 q 386 381 385 375 q 385 389 386 385 q 383 397 385 393 l 379 415 q 378 428 379 425 q 376 439 376 431 q 351 486 372 465 l 350 486 q 336 475 344 481 q 322 464 328 469 l 314 450 l 306 433 q 299 425 303 429 q 290 417 294 421 q 274 396 281 407 q 276 386 272 390 l 264 372 l 250 358 q 248 351 249 354 q 247 346 247 349 q 238 339 244 342 q 228 331 229 336 l 224 322 q 222 317 222 321 q 218 311 221 314 l 214 307 q 213 307 214 307 q 211 306 213 307 q 210 300 211 303 q 208 299 208 300 q 207 296 208 297 q 200 292 204 296 l 183 275 l 178 265 q 179 261 176 261 q 201 250 185 253 q 221 250 218 247 l 231 256 q 238 256 233 256 q 244 254 242 256 q 263 250 251 251 q 276 249 269 249 q 289 247 282 249 q 303 246 296 246 q 317 246 311 246 q 339 247 333 246 q 341 247 340 247 q 342 246 342 246 q 343 243 342 243 l 354 243 m 299 690 q 285 694 292 690 q 283 697 283 694 q 287 702 283 699 q 290 710 290 706 q 295 715 292 713 q 300 722 299 717 q 306 730 303 725 q 315 736 310 735 q 325 744 322 740 q 331 750 328 749 q 343 758 339 757 q 353 763 346 761 q 364 764 361 765 l 374 760 q 383 758 379 758 q 389 756 388 757 q 403 751 396 753 q 414 746 410 749 q 435 740 431 744 q 446 738 439 739 q 454 735 453 736 q 468 732 458 732 q 471 731 469 732 q 474 731 472 731 q 488 735 479 731 q 497 737 492 738 q 507 742 501 736 q 516 751 513 747 q 524 761 519 756 q 528 769 526 765 q 538 774 531 774 q 546 769 544 774 q 547 760 547 764 q 540 740 547 749 q 521 719 533 732 q 474 692 499 697 q 471 691 472 692 q 467 690 469 690 q 453 692 460 690 q 443 694 446 694 q 424 697 431 694 q 411 701 417 700 q 396 704 403 703 q 383 706 389 706 q 370 710 375 708 q 360 715 365 713 q 351 720 353 718 q 340 722 349 722 q 326 718 329 721 q 321 715 324 715 q 314 710 315 713 q 310 703 313 707 q 306 698 308 701 q 304 692 304 694 q 299 690 303 690 z "},"B":{"ha":543,"x_min":-7,"x_max":508,"o":"m 179 -1 q 175 1 176 0 q 174 1 174 1 q 150 3 161 7 q 139 3 144 3 q 128 4 133 3 l 115 4 q 108 4 113 4 q 101 3 104 4 q 69 7 86 10 l 60 7 q 49 7 54 7 q 39 8 43 7 q 24 10 35 10 q -7 17 -3 10 l -7 22 q -1 35 -7 31 q 6 42 3 38 q 11 49 10 46 q 19 53 18 56 q 25 58 24 53 l 25 60 q 26 61 25 58 q 35 76 29 68 q 42 89 42 86 q 44 94 43 92 q 49 103 46 97 q 57 119 56 114 q 61 125 60 122 q 65 133 65 125 q 74 156 71 143 q 79 185 78 168 q 83 217 81 203 q 89 244 86 232 q 91 251 90 247 q 93 260 92 254 l 99 282 l 103 303 q 103 315 106 314 q 104 321 101 318 q 107 326 108 325 q 108 333 110 332 q 107 338 107 333 q 107 350 106 344 q 111 361 111 358 q 113 365 115 365 q 111 369 111 368 l 111 375 q 112 383 111 379 q 114 392 113 388 l 121 411 l 118 415 q 118 417 118 415 q 117 419 118 418 q 117 432 115 426 l 121 443 l 121 463 q 121 473 121 468 q 122 483 121 478 q 123 487 122 485 q 124 490 124 489 q 126 496 126 493 q 128 501 126 499 q 124 508 124 504 q 124 515 124 511 q 125 522 124 519 q 122 538 125 529 q 119 543 122 540 q 115 551 115 547 q 114 564 114 556 q 121 588 114 579 q 147 606 132 604 q 179 619 165 610 l 207 615 l 214 615 q 225 616 219 615 q 238 618 231 617 q 250 618 244 621 q 264 619 254 617 q 267 618 268 619 q 269 617 267 617 l 271 617 q 282 617 276 617 q 294 619 288 618 q 303 618 300 619 l 311 618 q 321 619 317 618 q 336 619 328 622 l 340 617 l 346 617 q 357 618 351 618 q 369 619 363 618 q 390 615 385 619 q 392 611 392 614 q 393 607 392 608 q 411 609 404 608 q 422 610 418 610 q 451 601 433 610 q 456 600 453 600 q 457 600 456 600 q 460 599 458 600 q 468 589 465 593 q 481 579 476 581 q 481 575 479 578 q 490 568 486 569 q 499 557 496 564 q 497 547 499 550 l 497 538 q 499 535 499 536 q 500 531 499 533 q 499 524 501 526 q 501 515 499 524 q 493 489 500 504 q 488 460 486 472 q 478 458 479 460 q 475 447 478 453 q 472 442 474 446 q 469 436 471 439 q 458 429 464 435 l 449 419 q 417 399 439 407 q 382 378 399 389 q 381 375 382 376 l 381 374 q 383 372 382 372 q 386 368 385 371 q 393 363 390 368 q 408 364 397 364 q 443 357 422 364 q 475 325 469 347 q 489 313 488 325 q 494 300 489 301 q 500 294 496 300 q 504 288 500 288 q 503 279 497 276 q 507 269 507 279 q 506 267 506 268 q 504 264 506 265 q 503 258 504 260 q 506 257 504 258 l 508 257 q 506 242 507 250 q 506 228 506 235 q 499 203 506 214 q 493 193 496 200 q 490 185 492 189 q 486 179 488 182 l 479 172 q 475 168 475 172 q 471 163 474 168 q 469 149 469 160 q 458 140 465 149 q 447 128 449 131 q 435 119 442 122 q 424 111 428 117 q 422 107 424 108 l 422 103 q 417 101 421 101 q 415 101 417 101 q 413 100 414 101 q 407 94 410 97 q 401 89 404 92 q 390 76 399 85 q 383 72 389 72 q 375 69 381 72 l 367 64 q 358 57 363 61 q 353 56 354 57 q 349 54 351 54 q 344 53 347 54 q 342 49 344 51 q 333 47 336 46 q 325 46 331 49 q 320 43 322 44 q 315 40 318 42 q 310 37 313 39 q 304 33 307 35 q 286 26 299 29 q 275 24 281 25 q 264 21 269 24 l 233 8 q 217 6 229 6 q 208 6 213 6 q 199 7 204 6 q 194 4 196 6 q 189 1 192 3 q 179 -1 181 -1 m 235 358 q 247 360 238 360 q 262 359 256 360 q 272 360 268 358 q 306 364 292 367 l 321 367 l 338 371 l 343 375 q 349 378 346 375 q 356 381 356 381 q 357 381 356 381 q 361 383 358 382 q 386 401 368 396 q 413 425 403 410 q 414 432 415 428 q 417 443 413 436 q 425 481 429 464 q 422 499 425 490 q 417 518 419 508 l 410 529 q 401 542 406 538 q 399 550 399 550 q 396 556 399 553 q 388 561 392 558 q 378 565 383 564 q 360 579 367 568 q 354 576 357 579 l 349 575 q 332 585 342 585 q 316 584 322 585 q 303 582 310 583 q 292 586 296 582 q 282 583 283 583 q 271 582 275 583 q 269 588 271 586 q 259 585 264 586 q 251 586 254 585 q 243 586 247 586 q 235 588 239 586 q 229 583 232 586 q 224 578 226 581 q 213 567 217 568 q 204 543 204 553 q 197 517 204 533 q 186 507 190 510 l 175 500 q 176 496 176 499 q 178 492 176 493 l 186 492 q 182 485 183 486 q 179 478 182 483 q 172 446 178 461 l 160 417 q 163 410 163 414 q 162 400 163 404 q 161 392 161 396 q 150 379 151 389 q 147 369 149 374 q 144 363 146 365 q 158 362 151 363 q 174 360 165 361 q 206 358 189 356 l 235 358 m 228 40 q 253 43 240 42 q 279 47 265 44 q 306 55 293 50 q 331 65 318 60 q 355 78 343 71 q 376 92 367 85 q 414 125 400 107 q 424 138 419 129 q 428 147 426 143 q 431 153 429 150 q 432 168 432 157 q 442 185 433 176 l 439 204 l 439 208 q 447 228 439 218 q 446 231 446 229 q 444 235 446 233 q 442 242 444 239 q 440 244 440 243 q 438 246 440 244 q 433 250 438 246 q 433 256 431 253 q 432 261 433 260 q 431 265 431 260 q 429 278 431 274 q 425 290 429 282 q 421 299 424 294 q 415 306 418 303 q 400 318 410 314 q 381 324 390 324 q 374 325 379 322 q 369 329 374 329 q 364 331 367 333 q 358 332 361 329 q 351 338 356 332 q 343 342 347 344 q 322 342 332 342 q 303 343 311 343 q 292 344 299 344 q 278 343 286 344 q 264 339 271 342 q 262 339 264 339 q 257 340 260 339 q 250 340 254 340 q 242 342 246 340 q 228 340 232 342 q 221 339 221 340 q 200 339 213 338 q 179 338 183 339 l 163 335 q 147 329 157 335 l 142 324 q 142 310 143 318 q 133 293 138 300 q 129 265 133 282 q 126 249 128 257 q 122 232 124 240 q 121 225 125 229 q 119 218 114 221 l 121 213 q 117 201 121 208 q 114 183 110 194 q 113 171 111 181 q 113 162 114 165 q 111 156 113 158 q 106 147 110 151 q 106 138 103 144 l 106 128 q 104 114 106 118 q 101 104 101 111 q 100 93 101 94 q 110 81 110 92 q 117 64 110 71 q 120 63 118 63 q 124 60 122 63 q 132 54 129 60 q 140 51 136 53 q 144 49 143 49 q 149 47 147 47 q 153 44 151 46 q 156 43 154 43 q 160 42 158 43 q 165 42 163 42 q 172 40 168 42 l 228 40 z "},"C":{"ha":561,"x_min":19,"x_max":583,"o":"m 232 -6 q 207 -1 219 -6 l 194 -1 q 188 1 189 1 q 182 6 188 3 q 174 8 178 7 q 164 10 169 10 q 154 13 158 13 q 144 14 150 13 q 136 21 142 15 q 126 29 132 28 q 117 32 118 32 q 106 36 113 32 q 97 46 99 43 q 90 47 97 47 q 85 56 88 49 q 82 65 85 63 q 74 71 78 69 l 64 78 q 63 83 63 79 q 60 90 63 88 l 56 94 q 51 96 53 94 q 38 121 46 101 q 28 149 28 139 q 26 162 26 156 q 26 174 26 168 q 19 217 26 201 q 22 244 25 225 q 20 260 21 253 q 19 274 19 268 q 25 294 22 283 q 29 314 28 304 q 35 335 32 325 q 39 356 38 346 q 51 381 46 368 q 63 404 57 393 q 74 427 68 415 q 86 450 79 439 q 103 473 93 461 q 126 499 114 485 q 172 540 154 526 l 178 544 q 182 550 178 546 l 188 554 q 196 557 190 554 l 211 571 q 221 580 217 576 q 228 586 225 583 q 286 614 253 603 q 320 626 304 621 q 350 636 336 632 q 368 636 360 640 q 377 636 372 636 q 388 638 382 636 q 394 639 390 639 q 403 640 399 639 l 426 640 q 440 639 435 640 q 460 638 453 635 l 478 638 q 494 631 483 638 l 500 622 l 514 622 q 521 617 517 621 q 524 615 522 617 q 529 613 526 614 q 535 614 533 613 q 538 608 538 611 q 542 601 538 604 q 553 597 551 601 q 563 590 557 596 q 568 587 565 589 q 572 583 571 585 q 577 576 575 581 q 582 564 579 571 l 581 564 q 583 553 583 556 q 579 538 583 544 q 576 533 578 536 q 575 525 575 529 q 573 518 574 521 q 571 513 572 515 q 557 497 568 497 q 555 497 556 497 q 551 496 554 496 q 540 506 546 496 q 532 528 533 521 q 528 536 531 532 q 524 543 526 540 q 514 556 518 551 q 508 562 511 558 q 500 568 504 565 q 490 576 494 572 q 481 585 485 581 q 456 599 472 592 l 438 603 q 426 606 432 604 q 418 607 421 607 q 385 611 404 611 q 365 611 375 611 q 344 608 354 611 q 325 607 335 608 q 306 603 315 606 q 274 590 285 596 q 269 588 272 589 q 263 585 267 588 q 250 581 254 585 q 244 578 247 579 q 239 575 242 576 q 231 572 231 572 q 224 568 225 569 q 217 557 221 565 q 210 553 214 560 q 203 542 206 544 q 190 531 200 540 q 182 522 186 526 q 175 513 178 518 q 167 502 171 507 q 161 493 164 497 q 157 481 156 483 q 153 479 156 479 q 150 478 151 479 q 142 460 147 465 q 136 451 139 456 q 132 442 133 447 q 131 433 129 436 q 130 428 131 431 q 128 422 129 425 q 117 410 126 417 q 104 397 107 404 q 103 386 101 389 q 101 374 104 382 q 96 369 99 371 l 97 364 q 99 358 96 363 q 96 347 92 351 q 92 335 96 339 l 88 328 q 85 321 88 328 q 88 307 88 318 q 88 294 88 301 q 86 279 88 286 q 86 263 86 271 q 85 249 86 256 q 83 237 83 242 q 83 229 83 232 q 94 210 94 218 q 94 199 94 204 q 93 188 94 194 q 107 168 106 182 q 113 144 107 154 q 124 133 117 138 q 133 121 132 125 q 133 117 132 119 q 133 113 138 117 q 140 111 136 111 q 144 110 143 111 l 154 106 q 160 99 157 103 q 165 90 163 94 q 178 76 171 81 q 186 75 181 74 q 193 74 192 75 q 195 69 194 71 q 196 68 196 68 l 200 68 q 207 63 203 67 q 208 59 207 61 q 211 54 210 57 q 217 53 213 53 q 225 49 221 53 q 228 51 226 50 q 232 53 231 51 q 239 51 238 53 q 247 49 243 50 q 257 46 251 47 q 267 42 263 44 q 276 39 272 40 q 289 40 281 40 q 299 39 294 39 q 307 38 304 39 q 326 36 311 36 q 343 35 339 36 q 365 42 353 38 q 390 53 376 47 q 417 66 406 60 q 435 78 429 72 q 451 92 439 79 q 468 107 463 106 l 476 111 q 485 104 485 114 l 485 103 q 481 95 483 99 q 476 89 479 92 l 465 83 q 454 76 460 81 q 443 67 449 72 q 421 49 432 56 l 408 44 q 397 40 404 44 q 386 32 392 38 q 379 26 383 29 q 369 21 375 24 q 349 17 360 21 q 344 13 347 15 q 339 8 342 11 q 332 10 333 8 q 322 8 331 11 q 311 3 317 7 q 299 -3 307 0 q 285 -4 292 -7 q 272 -1 278 0 l 240 -6 l 232 -6 z "},"Ć":{"ha":561,"x_min":19,"x_max":583,"o":"m 232 -6 q 207 -1 219 -6 l 194 -1 q 188 1 189 1 q 182 6 188 3 q 174 8 178 7 q 164 10 169 10 q 154 13 158 13 q 144 14 150 13 q 136 21 142 15 q 126 29 132 28 q 117 32 118 32 q 106 36 113 32 q 97 46 99 43 q 90 47 97 47 q 85 56 88 49 q 82 65 85 63 q 74 71 78 69 l 64 78 q 63 83 63 79 q 60 90 63 88 l 56 94 q 51 96 53 94 q 38 121 46 101 q 28 149 28 139 q 26 162 26 156 q 26 174 26 168 q 19 217 26 201 q 22 244 25 225 q 20 260 21 253 q 19 274 19 268 q 25 294 22 283 q 29 314 28 304 q 35 335 32 325 q 39 356 38 346 q 51 381 46 368 q 63 404 57 393 q 74 427 68 415 q 86 450 79 439 q 103 473 93 461 q 126 499 114 485 q 172 540 154 526 l 178 544 q 182 550 178 546 l 188 554 q 196 557 190 554 l 211 571 q 221 580 217 576 q 228 586 225 583 q 286 614 253 603 q 320 626 304 621 q 350 636 336 632 q 368 636 360 640 q 377 636 372 636 q 388 638 382 636 q 394 639 390 639 q 403 640 399 639 l 426 640 q 440 639 435 640 q 460 638 453 635 l 478 638 q 494 631 483 638 l 500 622 l 514 622 q 521 617 517 621 q 524 615 522 617 q 529 613 526 614 q 535 614 533 613 q 538 608 538 611 q 542 601 538 604 q 553 597 551 601 q 563 590 557 596 q 568 587 565 589 q 572 583 571 585 q 577 576 575 581 q 582 564 579 571 l 581 564 q 583 553 583 556 q 579 538 583 544 q 576 533 578 536 q 575 525 575 529 q 573 518 574 521 q 571 513 572 515 q 557 497 568 497 q 555 497 556 497 q 551 496 554 496 q 540 506 546 496 q 532 528 533 521 q 528 536 531 532 q 524 543 526 540 q 514 556 518 551 q 508 562 511 558 q 500 568 504 565 q 490 576 494 572 q 481 585 485 581 q 456 599 472 592 l 438 603 q 426 606 432 604 q 418 607 421 607 q 385 611 404 611 q 365 611 375 611 q 344 608 354 611 q 325 607 335 608 q 306 603 315 606 q 274 590 285 596 q 269 588 272 589 q 263 585 267 588 q 250 581 254 585 q 244 578 247 579 q 239 575 242 576 q 231 572 231 572 q 224 568 225 569 q 217 557 221 565 q 210 553 214 560 q 203 542 206 544 q 190 531 200 540 q 182 522 186 526 q 175 513 178 518 q 167 502 171 507 q 161 493 164 497 q 157 481 156 483 q 153 479 156 479 q 150 478 151 479 q 142 460 147 465 q 136 451 139 456 q 132 442 133 447 q 131 433 129 436 q 130 428 131 431 q 128 422 129 425 q 117 410 126 417 q 104 397 107 404 q 103 386 101 389 q 101 374 104 382 q 96 369 99 371 l 97 364 q 99 358 96 363 q 96 347 92 351 q 92 335 96 339 l 88 328 q 85 321 88 328 q 88 307 88 318 q 88 294 88 301 q 86 279 88 286 q 86 263 86 271 q 85 249 86 256 q 83 237 83 242 q 83 229 83 232 q 94 210 94 218 q 94 199 94 204 q 93 188 94 194 q 107 168 106 182 q 113 144 107 154 q 124 133 117 138 q 133 121 132 125 q 133 117 132 119 q 133 113 138 117 q 140 111 136 111 q 144 110 143 111 l 154 106 q 160 99 157 103 q 165 90 163 94 q 178 76 171 81 q 186 75 181 74 q 193 74 192 75 q 195 69 194 71 q 196 68 196 68 l 200 68 q 207 63 203 67 q 208 59 207 61 q 211 54 210 57 q 217 53 213 53 q 225 49 221 53 q 228 51 226 50 q 232 53 231 51 q 239 51 238 53 q 247 49 243 50 q 257 46 251 47 q 267 42 263 44 q 276 39 272 40 q 289 40 281 40 q 299 39 294 39 q 307 38 304 39 q 326 36 311 36 q 343 35 339 36 q 365 42 353 38 q 390 53 376 47 q 417 66 406 60 q 435 78 429 72 q 451 92 439 79 q 468 107 463 106 l 476 111 q 485 104 485 114 l 485 103 q 481 95 483 99 q 476 89 479 92 l 465 83 q 454 76 460 81 q 443 67 449 72 q 421 49 432 56 l 408 44 q 397 40 404 44 q 386 32 392 38 q 379 26 383 29 q 369 21 375 24 q 349 17 360 21 q 344 13 347 15 q 339 8 342 11 q 332 10 333 8 q 322 8 331 11 q 311 3 317 7 q 299 -3 307 0 q 285 -4 292 -7 q 272 -1 278 0 l 240 -6 l 232 -6 m 363 706 q 371 715 363 714 q 383 722 381 718 q 392 729 390 726 q 396 733 394 732 q 401 735 400 735 q 403 736 401 736 q 410 741 406 739 q 418 744 415 743 q 424 752 421 749 q 429 757 426 756 l 444 772 q 460 781 449 776 q 472 786 471 785 q 482 797 479 793 q 500 799 485 800 l 501 799 q 515 796 508 799 q 526 790 521 793 q 540 787 535 788 q 550 785 546 786 q 563 781 558 783 q 563 778 568 778 q 558 778 561 781 q 549 772 553 772 l 542 771 q 539 769 540 771 q 535 765 538 767 l 524 763 l 511 756 q 507 756 507 756 l 503 751 q 493 749 497 749 q 492 748 492 749 q 489 746 492 747 q 485 746 488 749 q 482 744 483 744 q 481 744 481 744 q 473 742 476 743 q 467 740 469 742 q 462 737 465 739 q 444 729 458 735 q 431 725 439 729 q 421 722 425 725 q 411 718 417 719 q 401 714 406 717 q 390 710 396 711 q 365 706 372 706 l 363 706 z "}}}
